{"glyphs":{"0":{"ha":638,"x_min":49,"x_max":614,"o":"m 278 -10 q 109 81 169 -10 q 49 353 49 171 q 56 486 49 425 q 169 858 83 735 q 382 982 254 982 q 553 892 492 982 q 614 622 614 803 q 606 486 614 560 q 494 114 581 238 q 278 -10 407 -10 m 290 110 q 394 195 350 110 q 458 486 438 281 q 468 646 468 574 q 371 863 468 863 q 268 777 311 863 q 204 486 225 692 q 194 322 194 397 q 219 158 194 207 q 290 110 244 110 z "},"1":{"ha":638,"x_min":35,"x_max":567,"o":"m 64 0 q 35 36 35 0 l 36 50 l 39 68 q 49 106 40 94 q 75 118 58 118 l 250 118 l 325 831 l 132 801 q 114 819 119 801 q 108 860 108 836 q 110 885 108 878 q 140 915 111 910 l 435 976 q 466 967 451 976 q 479 946 481 958 l 392 118 l 538 118 q 560 106 554 118 q 564 68 567 94 l 563 50 q 550 12 558 24 q 525 0 542 0 l 64 0 z "},"2":{"ha":638,"x_min":-7,"x_max":611,"o":"m 19 0 q 0 26 7 0 q -4 79 -7 53 q 3 101 -1 94 l 371 558 q 447 668 428 631 q 465 751 465 706 q 431 834 465 806 q 336 863 397 863 q 252 848 288 863 q 181 810 217 833 q 147 793 154 793 q 116 819 132 793 q 100 867 100 846 q 141 924 100 897 q 244 966 182 950 q 361 982 306 982 q 544 926 478 982 q 611 772 611 869 q 610 743 611 753 q 587 653 604 694 q 531 558 569 611 q 417 418 493 506 l 182 117 l 518 117 q 541 106 535 117 q 544 68 547 94 l 543 50 q 531 12 540 24 q 506 0 522 0 l 19 0 z "},"3":{"ha":638,"x_min":-8,"x_max":582,"o":"m 240 -10 q 122 2 179 -10 q 28 34 64 14 q -8 78 -8 54 q 16 128 -8 97 q 54 160 40 160 q 85 147 60 160 q 152 119 122 129 q 226 110 182 110 q 360 160 301 110 q 418 318 418 210 q 375 423 418 390 q 250 456 332 456 l 197 456 q 173 467 179 456 q 169 506 167 479 l 171 524 q 183 562 174 550 q 208 574 192 574 l 254 574 q 355 603 314 574 q 416 673 396 632 q 436 750 436 714 q 406 830 436 797 q 308 863 376 863 q 235 853 265 863 q 178 828 206 843 q 151 818 156 818 q 121 849 138 818 q 107 900 104 879 q 185 958 110 935 q 339 982 261 982 q 518 926 454 982 q 582 772 582 871 q 537 627 582 685 q 419 542 492 569 l 419 536 q 524 459 483 517 q 565 314 565 401 q 564 279 565 292 q 508 122 554 188 q 393 24 463 57 q 240 -10 324 -10 z "},"4":{"ha":638,"x_min":6,"x_max":611,"o":"m 394 -3 q 344 32 340 -3 l 364 222 l 38 222 q 15 254 25 222 q 8 310 6 286 q 14 325 10 319 l 431 953 q 490 975 444 975 l 531 975 q 582 940 585 975 l 519 340 l 585 340 q 611 308 611 340 q 610 290 611 297 l 608 272 q 598 234 607 246 q 572 222 589 222 l 506 222 l 486 32 q 428 -3 482 -3 l 394 -3 m 376 340 l 401 576 q 432 751 411 663 l 428 754 l 157 340 l 376 340 z "},"5":{"ha":638,"x_min":11,"x_max":599,"o":"m 238 -10 q 121 3 172 -10 q 40 35 69 15 q 11 76 11 56 q 36 128 11 96 q 76 160 61 160 q 103 149 85 160 q 166 121 133 132 q 244 110 199 110 q 366 158 314 110 q 428 294 418 207 q 429 321 429 304 q 247 475 429 475 l 136 475 q 106 483 115 475 q 97 507 97 490 l 99 521 l 165 926 q 182 961 169 950 q 218 972 194 972 l 571 972 q 599 938 599 972 l 597 922 l 596 900 q 584 865 593 876 q 558 854 575 854 l 293 854 l 249 593 l 297 593 q 497 535 418 593 q 575 342 575 476 q 572 294 575 328 q 459 62 556 133 q 238 -10 363 -10 z "},"6":{"ha":638,"x_min":42,"x_max":594,"o":"m 279 -8 q 105 65 168 -8 q 42 275 42 139 q 46 342 42 307 q 169 686 67 543 q 385 903 271 829 q 549 976 500 976 q 583 944 571 976 q 593 890 594 913 q 589 878 592 882 q 578 871 586 874 q 364 735 450 822 q 233 531 278 647 q 383 572 304 572 q 485 544 439 572 q 560 463 532 517 q 588 335 588 410 q 585 288 588 321 q 531 128 575 194 q 422 26 488 61 q 279 -8 356 -8 m 296 110 q 365 133 331 110 q 420 203 399 157 q 442 315 442 250 q 409 419 442 383 q 325 454 376 454 q 201 417 265 454 q 190 335 196 390 q 186 272 186 301 q 217 147 186 185 q 296 110 249 110 z "},"7":{"ha":638,"x_min":63,"x_max":653,"o":"m 125 -3 q 77 3 92 -3 q 64 22 63 8 q 74 44 64 25 l 486 854 l 125 854 q 97 889 97 854 l 99 904 l 100 922 q 112 960 103 949 q 138 972 121 972 l 626 972 q 644 942 636 972 q 650 886 653 911 q 644 869 647 874 l 217 21 q 151 -3 206 -3 l 125 -3 z "},"8":{"ha":638,"x_min":36,"x_max":608,"o":"m 278 -10 q 101 53 165 -10 q 36 228 36 115 q 201 518 36 436 q 135 593 158 550 q 113 700 113 636 q 149 851 113 788 q 247 949 185 915 q 388 982 310 982 q 547 928 485 982 q 608 775 608 875 q 607 744 608 756 q 458 524 590 590 q 548 440 515 489 q 581 314 581 392 q 578 272 581 303 q 485 67 565 144 q 278 -10 404 -10 m 361 581 q 467 760 467 647 q 441 837 467 811 q 374 863 415 863 q 290 826 324 863 q 256 721 256 790 q 283 640 256 671 q 361 581 310 610 m 290 110 q 392 163 350 110 q 433 296 433 215 q 415 369 433 339 q 369 416 396 399 q 294 460 343 433 q 211 375 240 425 q 182 246 182 325 q 212 144 182 178 q 290 110 242 110 z "},"9":{"ha":638,"x_min":67,"x_max":618,"o":"m 113 -7 q 78 26 90 -7 q 69 79 67 58 q 85 99 69 93 q 297 235 211 147 q 428 439 383 322 q 278 397 360 397 q 131 461 190 397 q 72 639 72 525 q 75 681 72 650 q 129 841 85 774 q 240 943 174 908 q 381 978 306 978 q 556 905 493 978 q 618 696 618 832 q 614 628 618 664 q 492 283 593 426 q 276 67 390 140 q 113 -7 161 -7 m 336 515 q 460 554 394 515 q 472 635 472 631 q 475 693 475 656 q 444 821 475 783 q 365 858 414 858 q 297 835 331 858 q 242 766 264 813 q 219 654 219 719 q 252 550 219 585 q 336 515 285 515 z "},"\u0000":{"ha":0,"x_min":0,"x_max":0,"o":""},"\r":{"ha":190,"x_min":0,"x_max":0,"o":""}," ":{"ha":190,"x_min":0,"x_max":0,"o":""},"A":{"ha":701,"x_min":-25,"x_max":653,"o":"m 31 -3 q -22 22 -25 -3 q -17 43 -22 26 l 319 944 q 388 975 332 975 l 438 975 q 499 944 494 975 l 650 43 q 651 22 653 28 q 596 -3 649 -3 l 558 -3 q 508 21 510 -3 l 476 232 l 199 232 l 125 21 q 68 -3 115 -3 l 31 -3 m 461 353 l 410 717 q 401 807 404 758 l 394 807 q 367 717 374 738 l 238 353 l 461 353 z "},"Á":{"ha":701,"x_min":-22,"x_max":651,"o":"m 31 -3 q -22 22 -25 -3 q -17 43 -22 26 l 319 944 q 388 975 332 975 l 438 975 q 499 944 494 975 l 650 43 q 651 22 653 28 q 596 -3 649 -3 l 558 -3 q 508 21 510 -3 l 476 232 l 199 232 l 125 21 q 68 -3 115 -3 l 31 -3 m 461 353 l 410 717 q 401 807 404 758 l 394 807 q 367 717 374 738 l 238 353 l 461 353 m 389 1054 q 363 1058 371 1054 q 356 1071 356 1061 q 367 1103 356 1079 q 399 1169 378 1128 l 426 1226 q 514 1264 446 1264 q 562 1260 547 1264 q 576 1244 576 1256 q 565 1218 576 1236 q 525 1164 553 1200 q 501 1132 515 1151 q 464 1082 486 1113 q 437 1061 454 1068 q 389 1054 419 1054 z "},"Ă":{"ha":701,"x_min":-22,"x_max":651,"o":"m 31 -3 q -22 22 -25 -3 q -17 43 -22 26 l 319 944 q 388 975 332 975 l 438 975 q 499 944 494 975 l 650 43 q 651 22 653 28 q 596 -3 649 -3 l 558 -3 q 508 21 510 -3 l 476 232 l 199 232 l 125 21 q 68 -3 115 -3 l 31 -3 m 461 353 l 410 717 q 401 807 404 758 l 394 807 q 367 717 374 738 l 238 353 l 461 353 m 425 1054 q 315 1092 357 1054 q 272 1192 272 1129 l 274 1210 q 311 1239 278 1239 q 331 1232 325 1239 q 340 1207 336 1225 q 372 1169 349 1182 q 438 1156 394 1156 q 544 1208 517 1156 q 559 1233 553 1226 q 579 1239 565 1239 q 608 1210 613 1239 q 551 1097 601 1139 q 425 1054 500 1054 z "},"Ắ":{"ha":701,"x_min":-25,"x_max":653,"o":"m 419 1182 q 388 1199 388 1182 q 397 1230 388 1207 q 424 1293 406 1253 l 443 1338 q 526 1374 463 1374 q 563 1369 551 1374 q 574 1351 574 1364 q 557 1318 574 1343 q 504 1243 540 1293 l 476 1206 q 453 1188 465 1194 q 419 1182 440 1182 m 424 1054 q 312 1088 354 1054 q 269 1172 269 1121 q 278 1210 269 1199 q 306 1221 288 1221 q 325 1214 319 1221 q 338 1189 331 1207 q 369 1151 346 1168 q 433 1135 392 1135 q 501 1151 475 1135 q 540 1190 528 1168 q 555 1214 547 1207 q 576 1221 563 1221 q 606 1186 610 1221 q 549 1092 599 1129 q 424 1054 499 1054 m 31 -3 q -22 22 -25 -3 q -17 43 -22 26 l 319 944 q 388 975 332 975 l 438 975 q 499 944 494 975 l 650 43 q 651 22 653 28 q 596 -3 649 -3 l 558 -3 q 508 21 510 -3 l 476 232 l 199 232 l 125 21 q 68 -3 115 -3 l 31 -3 m 461 353 l 410 717 q 401 807 404 758 l 394 807 q 367 717 374 738 l 238 353 l 461 353 z "},"Ặ":{"ha":701,"x_min":-22,"x_max":651,"o":"m 31 -3 q -22 22 -25 -3 q -17 43 -22 26 l 319 944 q 388 975 332 975 l 438 975 q 499 944 494 975 l 650 43 q 651 22 653 28 q 596 -3 649 -3 l 558 -3 q 508 21 510 -3 l 476 232 l 199 232 l 125 21 q 68 -3 115 -3 l 31 -3 m 461 353 l 410 717 q 401 807 404 758 l 394 807 q 367 717 374 738 l 238 353 l 461 353 m 289 -254 q 235 -246 251 -254 q 221 -221 218 -237 l 229 -146 q 304 -111 232 -111 q 372 -146 376 -111 l 365 -221 q 289 -254 361 -254 m 425 1054 q 315 1092 357 1054 q 272 1192 272 1129 l 274 1210 q 311 1239 278 1239 q 331 1232 325 1239 q 340 1207 336 1225 q 372 1169 349 1182 q 438 1156 394 1156 q 544 1208 517 1156 q 559 1233 553 1226 q 579 1239 565 1239 q 608 1210 613 1239 q 551 1097 601 1139 q 425 1054 500 1054 z "},"Ằ":{"ha":701,"x_min":-25,"x_max":653,"o":"m 472 1182 q 414 1208 433 1182 l 374 1267 q 333 1325 346 1306 q 321 1353 321 1344 q 332 1369 321 1364 q 371 1374 343 1374 q 454 1338 438 1374 q 492 1241 479 1275 q 506 1199 506 1207 q 472 1182 506 1182 m 424 1054 q 312 1088 354 1054 q 269 1172 269 1121 q 278 1210 269 1199 q 306 1221 288 1221 q 325 1214 319 1221 q 338 1189 331 1207 q 369 1151 346 1168 q 433 1135 392 1135 q 501 1151 475 1135 q 540 1190 528 1168 q 555 1214 547 1207 q 576 1221 563 1221 q 606 1186 610 1221 q 549 1092 599 1129 q 424 1054 499 1054 m 31 -3 q -22 22 -25 -3 q -17 43 -22 26 l 319 944 q 388 975 332 975 l 438 975 q 499 944 494 975 l 650 43 q 651 22 653 28 q 596 -3 649 -3 l 558 -3 q 508 21 510 -3 l 476 232 l 199 232 l 125 21 q 68 -3 115 -3 l 31 -3 m 461 353 l 410 717 q 401 807 404 758 l 394 807 q 367 717 374 738 l 238 353 l 461 353 z "},"Ẳ":{"ha":701,"x_min":-25,"x_max":653,"o":"m 439 1192 q 400 1201 415 1192 q 385 1221 385 1210 q 394 1235 385 1228 q 417 1249 403 1242 q 460 1296 460 1271 q 447 1320 460 1311 q 415 1329 435 1329 q 368 1319 385 1329 q 349 1310 351 1310 q 326 1328 340 1310 q 313 1360 313 1347 q 349 1386 313 1374 q 422 1399 385 1399 q 508 1375 471 1399 q 544 1306 544 1351 q 499 1222 544 1261 q 465 1201 483 1211 q 439 1192 447 1192 m 424 1054 q 312 1088 354 1054 q 269 1172 269 1121 q 278 1210 269 1199 q 306 1221 288 1221 q 325 1214 319 1221 q 338 1189 331 1207 q 369 1151 346 1168 q 433 1135 392 1135 q 501 1151 475 1135 q 540 1190 528 1168 q 555 1214 547 1207 q 576 1221 563 1221 q 606 1186 610 1221 q 549 1092 599 1129 q 424 1054 499 1054 m 31 -3 q -22 22 -25 -3 q -17 43 -22 26 l 319 944 q 388 975 332 975 l 438 975 q 499 944 494 975 l 650 43 q 651 22 653 28 q 596 -3 649 -3 l 558 -3 q 508 21 510 -3 l 476 232 l 199 232 l 125 21 q 68 -3 115 -3 l 31 -3 m 461 353 l 410 717 q 401 807 404 758 l 394 807 q 367 717 374 738 l 238 353 l 461 353 z "},"Ẵ":{"ha":701,"x_min":-25,"x_max":653,"o":"m 278 1292 q 261 1314 261 1299 q 265 1333 261 1324 q 372 1429 297 1429 q 411 1422 390 1429 q 460 1401 432 1415 q 498 1385 479 1392 q 529 1378 517 1378 q 551 1385 542 1378 q 572 1410 561 1392 q 600 1432 585 1432 q 614 1428 606 1432 l 625 1424 q 639 1415 635 1419 q 643 1401 643 1410 q 639 1382 643 1393 q 532 1286 604 1286 q 443 1314 501 1286 q 372 1338 393 1338 q 332 1304 350 1338 q 306 1285 318 1285 q 292 1288 303 1285 l 278 1292 m 424 1054 q 312 1088 354 1054 q 269 1172 269 1121 q 278 1210 269 1199 q 306 1221 288 1221 q 325 1214 319 1221 q 338 1189 331 1207 q 369 1151 346 1168 q 433 1135 392 1135 q 501 1151 475 1135 q 540 1190 528 1168 q 555 1214 547 1207 q 576 1221 563 1221 q 606 1186 610 1221 q 549 1092 599 1129 q 424 1054 499 1054 m 31 -3 q -22 22 -25 -3 q -17 43 -22 26 l 319 944 q 388 975 332 975 l 438 975 q 499 944 494 975 l 650 43 q 651 22 653 28 q 596 -3 649 -3 l 558 -3 q 508 21 510 -3 l 476 232 l 199 232 l 125 21 q 68 -3 115 -3 l 31 -3 m 461 353 l 410 717 q 401 807 404 758 l 394 807 q 367 717 374 738 l 238 353 l 461 353 z "},"Â":{"ha":701,"x_min":-22,"x_max":651,"o":"m 31 -3 q -22 22 -25 -3 q -17 43 -22 26 l 319 944 q 388 975 332 975 l 438 975 q 499 944 494 975 l 650 43 q 651 22 653 28 q 596 -3 649 -3 l 558 -3 q 508 21 510 -3 l 476 232 l 199 232 l 125 21 q 68 -3 115 -3 l 31 -3 m 461 353 l 410 717 q 401 807 404 758 l 394 807 q 367 717 374 738 l 238 353 l 461 353 m 292 1044 q 265 1061 265 1044 q 272 1075 268 1068 q 278 1086 275 1082 l 367 1214 q 435 1243 388 1243 l 450 1243 q 488 1236 474 1243 q 511 1214 501 1229 l 574 1086 q 581 1063 581 1072 q 551 1044 578 1044 l 521 1044 q 478 1065 489 1044 l 432 1156 l 369 1065 q 321 1044 351 1044 l 292 1044 z "},"Ấ":{"ha":701,"x_min":-25,"x_max":729,"o":"m 575 1181 q 543 1197 543 1181 q 552 1228 543 1206 q 579 1292 561 1251 l 599 1336 q 682 1372 618 1372 q 718 1367 707 1372 q 729 1350 729 1363 q 713 1317 729 1342 q 660 1242 696 1292 l 632 1204 q 608 1187 621 1193 q 575 1181 596 1181 m 301 1044 q 275 1061 275 1044 q 280 1074 276 1068 q 285 1086 283 1081 l 369 1214 q 436 1243 388 1243 l 453 1243 q 490 1237 476 1243 q 513 1214 504 1231 l 568 1086 q 575 1063 575 1072 q 566 1049 574 1054 q 546 1044 558 1044 l 515 1044 q 471 1064 481 1044 l 433 1156 l 379 1065 q 359 1049 371 1053 q 331 1044 347 1044 l 301 1044 m 31 -3 q -22 22 -25 -3 q -17 43 -22 26 l 319 944 q 388 975 332 975 l 438 975 q 499 944 494 975 l 650 43 q 651 22 653 28 q 596 -3 649 -3 l 558 -3 q 508 21 510 -3 l 476 232 l 199 232 l 125 21 q 68 -3 115 -3 l 31 -3 m 461 353 l 410 717 q 401 807 404 758 l 394 807 q 367 717 374 738 l 238 353 l 461 353 z "},"Ậ":{"ha":701,"x_min":-22,"x_max":651,"o":"m 31 -3 q -22 22 -25 -3 q -17 43 -22 26 l 319 944 q 388 975 332 975 l 438 975 q 499 944 494 975 l 650 43 q 651 22 653 28 q 596 -3 649 -3 l 558 -3 q 508 21 510 -3 l 476 232 l 199 232 l 125 21 q 68 -3 115 -3 l 31 -3 m 461 353 l 410 717 q 401 807 404 758 l 394 807 q 367 717 374 738 l 238 353 l 461 353 m 289 -254 q 235 -246 251 -254 q 221 -221 218 -237 l 229 -146 q 304 -111 232 -111 q 372 -146 376 -111 l 365 -221 q 289 -254 361 -254 m 292 1044 q 265 1061 265 1044 q 272 1075 268 1068 q 278 1086 275 1082 l 367 1214 q 435 1243 388 1243 l 450 1243 q 488 1236 474 1243 q 511 1214 501 1229 l 574 1086 q 581 1063 581 1072 q 551 1044 578 1044 l 521 1044 q 478 1065 489 1044 l 432 1156 l 369 1065 q 321 1044 351 1044 l 292 1044 z "},"Ầ":{"ha":701,"x_min":-25,"x_max":661,"o":"m 628 1181 q 569 1207 589 1181 l 529 1265 q 489 1324 501 1304 q 476 1351 476 1343 q 488 1367 476 1363 q 526 1372 499 1372 q 610 1336 593 1372 q 648 1240 635 1274 q 661 1197 661 1206 q 628 1181 661 1181 m 301 1044 q 275 1061 275 1044 q 280 1074 276 1068 q 285 1086 283 1081 l 369 1214 q 436 1243 388 1243 l 453 1243 q 490 1237 476 1243 q 513 1214 504 1231 l 568 1086 q 575 1063 575 1072 q 566 1049 574 1054 q 546 1044 558 1044 l 515 1044 q 471 1064 481 1044 l 433 1156 l 379 1065 q 359 1049 371 1053 q 331 1044 347 1044 l 301 1044 m 31 -3 q -22 22 -25 -3 q -17 43 -22 26 l 319 944 q 388 975 332 975 l 438 975 q 499 944 494 975 l 650 43 q 651 22 653 28 q 596 -3 649 -3 l 558 -3 q 508 21 510 -3 l 476 232 l 199 232 l 125 21 q 68 -3 115 -3 l 31 -3 m 461 353 l 410 717 q 401 807 404 758 l 394 807 q 367 717 374 738 l 238 353 l 461 353 z "},"Ẩ":{"ha":701,"x_min":-25,"x_max":700,"o":"m 594 1190 q 556 1199 571 1190 q 540 1219 540 1208 q 549 1233 540 1226 q 572 1247 558 1240 q 615 1294 615 1269 q 603 1319 615 1310 q 571 1328 590 1328 q 524 1318 540 1328 q 504 1308 507 1308 q 482 1327 496 1308 q 468 1358 468 1346 q 504 1385 468 1372 q 578 1397 540 1397 q 663 1374 626 1397 q 700 1304 700 1350 q 654 1221 700 1260 q 621 1200 639 1210 q 594 1190 603 1190 m 301 1044 q 275 1061 275 1044 q 280 1074 276 1068 q 285 1086 283 1081 l 369 1214 q 436 1243 388 1243 l 453 1243 q 490 1237 476 1243 q 513 1214 504 1231 l 568 1086 q 575 1063 575 1072 q 566 1049 574 1054 q 546 1044 558 1044 l 515 1044 q 471 1064 481 1044 l 433 1156 l 379 1065 q 359 1049 371 1053 q 331 1044 347 1044 l 301 1044 m 31 -3 q -22 22 -25 -3 q -17 43 -22 26 l 319 944 q 388 975 332 975 l 438 975 q 499 944 494 975 l 650 43 q 651 22 653 28 q 596 -3 649 -3 l 558 -3 q 508 21 510 -3 l 476 232 l 199 232 l 125 21 q 68 -3 115 -3 l 31 -3 m 461 353 l 410 717 q 401 807 404 758 l 394 807 q 367 717 374 738 l 238 353 l 461 353 z "},"Ẫ":{"ha":701,"x_min":-25,"x_max":653,"o":"m 271 1228 q 254 1250 254 1235 q 258 1269 254 1260 q 365 1365 290 1365 q 404 1358 383 1365 q 453 1338 425 1351 q 491 1321 472 1328 q 522 1314 510 1314 q 544 1321 535 1314 q 565 1346 554 1328 q 593 1368 578 1368 q 607 1364 599 1368 l 618 1360 q 632 1351 628 1356 q 636 1338 636 1346 q 632 1318 636 1329 q 525 1222 597 1222 q 436 1250 494 1222 q 365 1274 386 1274 q 325 1240 343 1274 q 299 1221 311 1221 q 285 1224 296 1221 l 271 1228 m 301 1044 q 276 1063 275 1044 q 289 1089 276 1069 l 365 1183 q 394 1206 378 1199 q 433 1213 410 1213 l 450 1213 q 511 1183 492 1213 l 567 1089 q 575 1063 575 1067 q 566 1049 574 1054 q 546 1044 558 1044 l 515 1044 q 471 1064 486 1044 l 433 1138 l 379 1065 q 358 1049 369 1054 q 331 1044 347 1044 l 301 1044 m 31 -3 q -22 22 -25 -3 q -17 43 -22 26 l 319 944 q 388 975 332 975 l 438 975 q 499 944 494 975 l 650 43 q 651 22 653 28 q 596 -3 649 -3 l 558 -3 q 508 21 510 -3 l 476 232 l 199 232 l 125 21 q 68 -3 115 -3 l 31 -3 m 461 353 l 410 717 q 401 807 404 758 l 394 807 q 367 717 374 738 l 238 353 l 461 353 z "},"Ä":{"ha":701,"x_min":-22,"x_max":651,"o":"m 31 -3 q -22 22 -25 -3 q -17 43 -22 26 l 319 944 q 388 975 332 975 l 438 975 q 499 944 494 975 l 650 43 q 651 22 653 28 q 596 -3 649 -3 l 558 -3 q 508 21 510 -3 l 476 232 l 199 232 l 125 21 q 68 -3 115 -3 l 31 -3 m 461 353 l 410 717 q 401 807 404 758 l 394 807 q 367 717 374 738 l 238 353 l 461 353 m 331 1078 q 285 1086 299 1078 q 275 1111 272 1094 l 282 1186 q 347 1221 286 1221 q 406 1186 408 1221 l 397 1111 q 331 1078 393 1078 m 521 1078 q 464 1111 460 1078 l 472 1186 q 538 1221 475 1221 q 594 1186 597 1221 l 588 1111 q 521 1078 583 1078 z "},"Ạ":{"ha":701,"x_min":-22,"x_max":651,"o":"m 31 -3 q -22 22 -25 -3 q -17 43 -22 26 l 319 944 q 388 975 332 975 l 438 975 q 499 944 494 975 l 650 43 q 651 22 653 28 q 596 -3 649 -3 l 558 -3 q 508 21 510 -3 l 476 232 l 199 232 l 125 21 q 68 -3 115 -3 l 31 -3 m 461 353 l 410 717 q 401 807 404 758 l 394 807 q 367 717 374 738 l 238 353 l 461 353 m 289 -254 q 235 -246 251 -254 q 221 -221 218 -237 l 229 -146 q 304 -111 232 -111 q 372 -146 376 -111 l 365 -221 q 289 -254 361 -254 z "},"À":{"ha":701,"x_min":-22,"x_max":651,"o":"m 31 -3 q -22 22 -25 -3 q -17 43 -22 26 l 319 944 q 388 975 332 975 l 438 975 q 499 944 494 975 l 650 43 q 651 22 653 28 q 596 -3 649 -3 l 558 -3 q 508 21 510 -3 l 476 232 l 199 232 l 125 21 q 68 -3 115 -3 l 31 -3 m 461 353 l 410 717 q 401 807 404 758 l 394 807 q 367 717 374 738 l 238 353 l 461 353 m 446 1054 q 371 1082 389 1054 l 326 1140 q 268 1219 279 1203 q 257 1244 257 1235 q 272 1260 257 1256 q 321 1264 288 1264 q 408 1226 390 1264 q 460 1119 442 1157 q 478 1071 478 1081 q 471 1058 478 1061 q 446 1054 464 1054 z "},"Ả":{"ha":701,"x_min":-22,"x_max":651,"o":"m 31 -3 q -22 22 -25 -3 q -17 43 -22 26 l 319 944 q 388 975 332 975 l 438 975 q 499 944 494 975 l 650 43 q 651 22 653 28 q 596 -3 649 -3 l 558 -3 q 508 21 510 -3 l 476 232 l 199 232 l 125 21 q 68 -3 115 -3 l 31 -3 m 461 353 l 410 717 q 401 807 404 758 l 394 807 q 367 717 374 738 l 238 353 l 461 353 m 432 1031 q 397 1040 417 1031 q 378 1057 378 1049 q 385 1075 378 1067 q 413 1100 393 1083 q 451 1137 438 1119 q 465 1178 465 1154 q 451 1203 465 1194 q 417 1213 438 1213 q 373 1204 389 1213 q 354 1196 357 1196 q 332 1215 346 1196 q 318 1244 318 1233 q 355 1273 318 1258 q 428 1288 392 1288 q 522 1263 482 1288 q 563 1186 563 1238 q 536 1112 563 1147 q 477 1053 510 1076 q 432 1031 444 1031 z "},"Ā":{"ha":701,"x_min":-22,"x_max":651,"o":"m 31 -3 q -22 22 -25 -3 q -17 43 -22 26 l 319 944 q 388 975 332 975 l 438 975 q 499 944 494 975 l 650 43 q 651 22 653 28 q 596 -3 649 -3 l 558 -3 q 508 21 510 -3 l 476 232 l 199 232 l 125 21 q 68 -3 115 -3 l 31 -3 m 461 353 l 410 717 q 401 807 404 758 l 394 807 q 367 717 374 738 l 238 353 l 461 353 m 292 1090 q 265 1136 261 1090 l 267 1151 q 278 1186 269 1175 q 301 1197 286 1197 l 575 1197 q 598 1186 592 1197 q 601 1151 604 1175 l 599 1136 q 588 1101 596 1113 q 564 1090 581 1090 l 292 1090 z "},"Ą":{"ha":701,"x_min":-25,"x_max":693,"o":"m 661 -140 q 693 -176 693 -140 q 674 -215 693 -203 q 585 -239 636 -239 q 482 -199 508 -239 q 456 -114 456 -158 q 467 -42 456 -82 q 506 35 479 -3 l 476 232 l 199 232 l 125 21 q 68 -3 115 -3 l 31 -3 q -22 22 -25 -3 q -17 43 -22 26 l 319 944 q 388 975 332 975 l 438 975 q 499 944 494 975 l 650 43 q 651 22 653 28 q 596 -3 649 -3 l 564 -3 q 543 -89 543 -51 q 563 -136 543 -124 q 611 -149 582 -149 q 640 -144 622 -149 q 661 -140 657 -140 m 461 353 l 410 717 q 401 807 404 758 l 394 807 q 367 717 374 738 l 238 353 l 461 353 z "},"Å":{"ha":701,"x_min":-22,"x_max":651,"o":"m 31 -3 q -22 22 -25 -3 q -17 43 -22 26 l 319 944 q 388 975 332 975 l 438 975 q 499 944 494 975 l 650 43 q 651 22 653 28 q 596 -3 649 -3 l 558 -3 q 508 21 510 -3 l 476 232 l 199 232 l 125 21 q 68 -3 115 -3 l 31 -3 m 461 353 l 410 717 q 401 807 404 758 l 394 807 q 367 717 374 738 l 238 353 l 461 353 m 418 1024 q 339 1052 368 1024 q 310 1128 310 1081 q 348 1231 310 1190 q 444 1271 386 1271 q 526 1242 496 1271 q 556 1164 556 1213 q 517 1063 556 1103 q 418 1024 478 1024 m 425 1083 q 475 1102 457 1083 q 493 1156 493 1121 q 439 1210 493 1210 q 389 1190 407 1210 q 371 1136 371 1171 q 425 1083 371 1083 z "},"Ǻ":{"ha":701,"x_min":-25,"x_max":653,"o":"m 407 1138 q 380 1141 388 1138 q 372 1154 372 1144 l 418 1225 q 436 1254 429 1244 q 474 1283 450 1275 q 536 1292 499 1292 q 590 1288 574 1292 q 606 1272 607 1283 q 597 1259 606 1268 q 568 1233 588 1250 l 490 1165 q 407 1138 463 1138 m 650 43 q 651 22 653 28 q 596 -3 649 -3 l 558 -3 q 508 21 510 -3 l 476 232 l 199 232 l 125 21 q 68 -3 115 -3 l 31 -3 q -22 22 -25 -3 q -17 43 -22 26 l 306 906 q 292 961 292 931 q 330 1063 292 1022 q 426 1103 368 1103 q 508 1074 478 1103 q 538 996 538 1044 q 506 903 538 944 l 650 43 m 353 968 q 407 915 353 915 q 457 934 439 915 q 475 988 475 953 q 421 1042 475 1042 q 371 1022 389 1042 q 353 968 353 1003 m 461 353 l 410 717 q 401 807 404 758 l 394 807 q 367 717 374 738 l 238 353 l 461 353 z "},"Ã":{"ha":701,"x_min":-22,"x_max":651,"o":"m 31 -3 q -22 22 -25 -3 q -17 43 -22 26 l 319 944 q 388 975 332 975 l 438 975 q 499 944 494 975 l 650 43 q 651 22 653 28 q 596 -3 649 -3 l 558 -3 q 508 21 510 -3 l 476 232 l 199 232 l 125 21 q 68 -3 115 -3 l 31 -3 m 461 353 l 410 717 q 401 807 404 758 l 394 807 q 367 717 374 738 l 238 353 l 461 353 m 226 1068 q 207 1090 207 1075 q 211 1110 207 1100 q 329 1206 247 1206 q 425 1178 361 1206 q 457 1165 431 1175 q 501 1154 483 1154 q 526 1161 515 1154 q 549 1186 536 1168 q 579 1208 563 1208 q 596 1204 586 1208 l 606 1200 q 623 1191 618 1196 q 628 1178 628 1186 q 622 1158 628 1172 q 504 1063 585 1063 q 462 1069 483 1063 q 407 1090 440 1076 q 365 1107 386 1100 q 329 1114 344 1114 q 307 1107 317 1114 q 285 1081 297 1100 q 256 1061 271 1061 q 240 1064 251 1061 l 226 1068 z "},"Æ":{"ha":1036,"x_min":-36,"x_max":985,"o":"m 25 -3 q -33 22 -36 -3 q -25 46 -31 38 l 418 935 q 441 963 429 954 q 471 972 453 972 l 958 972 q 985 938 985 972 q 983 922 985 928 l 981 894 q 944 844 976 844 l 608 844 l 619 561 l 913 561 q 939 526 939 561 q 938 511 939 517 l 935 483 q 899 433 929 433 l 625 433 l 638 128 l 900 128 q 925 94 925 128 q 924 78 925 85 l 922 50 q 910 12 918 24 q 886 0 901 0 l 531 0 q 496 40 496 0 l 489 232 l 211 232 l 108 21 q 57 -3 96 -3 l 25 -3 m 272 360 l 485 360 l 474 701 l 481 788 l 478 788 l 440 701 l 272 360 z "},"Ǽ":{"ha":1036,"x_min":-33,"x_max":985,"o":"m 25 -3 q -33 22 -36 -3 q -25 46 -31 38 l 418 935 q 441 963 429 954 q 471 972 453 972 l 958 972 q 985 938 985 972 q 983 922 985 928 l 981 894 q 944 844 976 844 l 608 844 l 619 561 l 913 561 q 939 526 939 561 q 938 511 939 517 l 935 483 q 899 433 929 433 l 625 433 l 638 128 l 900 128 q 925 94 925 128 q 924 78 925 85 l 922 50 q 910 12 918 24 q 886 0 901 0 l 531 0 q 496 40 496 0 l 489 232 l 211 232 l 108 21 q 57 -3 96 -3 l 25 -3 m 272 360 l 485 360 l 474 701 l 481 788 l 478 788 l 440 701 l 272 360 m 586 1054 q 560 1058 568 1054 q 553 1071 553 1061 q 564 1103 553 1079 q 596 1169 575 1128 l 624 1226 q 711 1264 643 1264 q 759 1260 744 1264 q 774 1244 774 1256 q 762 1218 774 1236 q 722 1164 750 1200 q 698 1132 713 1151 q 661 1082 683 1113 q 634 1061 651 1068 q 586 1054 617 1054 z "},"B":{"ha":749,"x_min":65,"x_max":699,"o":"m 106 0 q 74 10 83 0 q 68 46 65 21 l 161 926 q 175 962 164 951 q 208 972 186 972 l 442 972 q 635 918 571 972 q 699 767 699 864 q 696 729 699 754 q 646 596 689 657 q 549 514 603 535 l 549 508 q 640 444 597 492 q 682 311 682 397 q 681 278 682 290 q 584 69 665 139 q 350 0 503 0 l 106 0 m 401 560 q 505 610 465 560 q 544 742 544 661 q 517 823 544 797 q 431 849 489 849 l 301 849 l 271 560 l 401 560 m 383 124 q 484 167 446 124 q 531 288 522 210 q 532 313 532 296 q 499 405 532 374 q 401 436 465 436 l 258 436 l 225 124 l 383 124 z "},"C":{"ha":638,"x_min":69,"x_max":654,"o":"m 394 -10 q 150 83 231 -10 q 69 369 69 176 q 76 488 69 418 q 202 863 104 743 q 496 982 300 982 q 567 975 532 982 q 628 958 603 968 q 649 942 644 953 q 651 913 654 931 q 631 848 649 882 q 593 825 614 814 q 485 850 543 850 q 315 762 376 850 q 232 488 253 674 q 226 382 226 436 q 272 187 226 251 q 408 122 317 122 q 532 151 468 122 q 544 154 540 154 q 571 133 563 154 q 579 85 579 111 q 569 45 579 61 q 536 17 560 29 q 474 -2 511 6 q 394 -10 436 -10 z "},"Ć":{"ha":638,"x_min":69,"x_max":653,"o":"m 394 -10 q 150 83 231 -10 q 69 369 69 176 q 76 488 69 418 q 202 863 104 743 q 496 982 300 982 q 567 975 532 982 q 628 958 603 968 q 649 942 644 953 q 651 913 654 931 q 631 848 649 882 q 593 825 614 814 q 485 850 543 850 q 315 762 376 850 q 232 488 253 674 q 226 382 226 436 q 272 187 226 251 q 408 122 317 122 q 532 151 468 122 q 544 154 540 154 q 571 133 563 154 q 579 85 579 111 q 569 45 579 61 q 536 17 560 29 q 474 -2 511 6 q 394 -10 436 -10 m 414 1054 q 388 1058 396 1054 q 381 1071 381 1061 q 392 1103 381 1079 q 424 1169 403 1128 l 451 1226 q 539 1264 471 1264 q 587 1260 572 1264 q 601 1244 601 1256 q 590 1218 601 1236 q 550 1164 578 1200 q 526 1132 540 1151 q 489 1082 511 1113 q 462 1061 479 1068 q 414 1054 444 1054 z "},"Č":{"ha":638,"x_min":69,"x_max":653,"o":"m 394 -10 q 150 83 231 -10 q 69 369 69 176 q 76 488 69 418 q 202 863 104 743 q 496 982 300 982 q 567 975 532 982 q 628 958 603 968 q 649 942 644 953 q 651 913 654 931 q 631 848 649 882 q 593 825 614 814 q 485 850 543 850 q 315 762 376 850 q 232 488 253 674 q 226 382 226 436 q 272 187 226 251 q 408 122 317 122 q 532 151 468 122 q 544 154 540 154 q 571 133 563 154 q 579 85 579 111 q 569 45 579 61 q 536 17 560 29 q 474 -2 511 6 q 394 -10 436 -10 m 442 1051 q 381 1081 396 1051 l 318 1207 q 311 1232 311 1228 q 342 1250 314 1250 l 371 1250 q 414 1228 400 1250 l 458 1139 l 522 1228 q 571 1250 536 1250 l 601 1250 q 626 1231 629 1250 q 614 1207 626 1225 l 524 1081 q 497 1058 513 1064 q 458 1051 482 1051 l 442 1051 z "},"Ç":{"ha":638,"x_min":71,"x_max":654,"o":"m 628 958 q 649 942 644 953 q 651 913 654 931 q 631 848 649 882 q 593 825 614 814 q 485 850 543 850 q 315 762 376 850 q 232 488 253 674 q 226 382 226 436 q 272 187 226 251 q 408 122 317 122 q 532 151 468 122 q 544 154 540 154 q 571 133 563 154 q 579 85 579 111 q 569 45 579 61 q 536 17 560 29 q 474 -2 511 6 q 394 -10 436 -10 q 363 -8 374 -10 l 343 -78 q 412 -103 382 -81 q 442 -175 442 -125 q 404 -265 442 -237 q 306 -293 367 -293 q 213 -274 257 -293 q 169 -229 169 -256 q 181 -200 169 -214 q 201 -186 192 -186 q 235 -197 210 -186 q 296 -215 271 -215 q 326 -206 313 -215 q 339 -179 339 -197 q 328 -153 339 -161 q 297 -137 318 -144 q 274 -125 281 -131 q 267 -110 267 -119 q 274 -76 267 -101 q 299 0 282 -50 q 127 115 183 24 q 71 371 71 207 q 76 488 71 432 q 202 863 104 743 q 496 982 300 982 q 567 975 532 982 q 628 958 603 968 z "},"Ĉ":{"ha":638,"x_min":69,"x_max":653,"o":"m 394 -10 q 150 83 231 -10 q 69 369 69 176 q 76 488 69 418 q 202 863 104 743 q 496 982 300 982 q 567 975 532 982 q 628 958 603 968 q 649 942 644 953 q 651 913 654 931 q 631 848 649 882 q 593 825 614 814 q 485 850 543 850 q 315 762 376 850 q 232 488 253 674 q 226 382 226 436 q 272 187 226 251 q 408 122 317 122 q 532 151 468 122 q 544 154 540 154 q 571 133 563 154 q 579 85 579 111 q 569 45 579 61 q 536 17 560 29 q 474 -2 511 6 q 394 -10 436 -10 m 317 1044 q 290 1061 290 1044 q 297 1075 293 1068 q 303 1086 300 1082 l 392 1214 q 460 1243 413 1243 l 475 1243 q 513 1236 499 1243 q 536 1214 526 1229 l 599 1086 q 606 1063 606 1072 q 576 1044 603 1044 l 546 1044 q 503 1065 514 1044 l 457 1156 l 394 1065 q 346 1044 376 1044 l 317 1044 z "},"Ċ":{"ha":638,"x_min":69,"x_max":653,"o":"m 394 -10 q 150 83 231 -10 q 69 369 69 176 q 76 488 69 418 q 202 863 104 743 q 496 982 300 982 q 567 975 532 982 q 628 958 603 968 q 649 942 644 953 q 651 913 654 931 q 631 848 649 882 q 593 825 614 814 q 485 850 543 850 q 315 762 376 850 q 232 488 253 674 q 226 382 226 436 q 272 187 226 251 q 408 122 317 122 q 532 151 468 122 q 544 154 540 154 q 571 133 563 154 q 579 85 579 111 q 569 45 579 61 q 536 17 560 29 q 474 -2 511 6 q 394 -10 436 -10 m 451 1078 q 397 1086 414 1078 q 383 1111 381 1094 l 392 1186 q 467 1221 394 1221 q 535 1186 539 1221 l 528 1111 q 451 1078 524 1078 z "},"D":{"ha":801,"x_min":63,"x_max":753,"o":"m 103 0 q 72 11 81 0 q 65 46 63 22 l 160 926 q 173 961 163 950 q 206 972 183 972 l 447 972 q 753 603 753 972 q 746 486 753 556 q 617 116 719 232 q 344 0 515 0 l 103 0 m 354 128 q 592 486 554 128 q 597 590 597 536 q 431 844 597 844 l 304 844 l 228 128 l 354 128 z "},"Ǳ":{"ha":1506,"x_min":65,"x_max":1506,"o":"m 103 0 q 72 11 81 0 q 65 46 63 22 l 160 926 q 173 961 163 950 q 206 972 183 972 l 447 972 q 753 603 753 972 q 746 486 753 556 q 617 116 719 232 q 344 0 515 0 l 103 0 m 354 128 q 592 486 554 128 q 597 590 597 536 q 431 844 597 844 l 304 844 l 228 128 l 354 128 m 843 0 q 821 31 831 0 q 814 88 811 63 q 818 104 814 99 l 1314 844 l 957 844 q 935 857 942 844 q 932 899 929 869 l 935 918 q 946 960 938 947 q 969 972 954 972 l 1478 972 q 1499 940 1490 972 q 1504 883 1507 907 q 1503 868 1504 872 l 1008 128 l 1396 128 q 1422 92 1422 128 q 1421 74 1422 81 l 1418 54 q 1406 13 1415 25 q 1382 0 1397 0 l 843 0 z "},"Ǆ":{"ha":1506,"x_min":65,"x_max":1506,"o":"m 103 0 q 72 11 81 0 q 65 46 63 22 l 160 926 q 173 961 163 950 q 206 972 183 972 l 447 972 q 753 603 753 972 q 746 486 753 556 q 617 116 719 232 q 344 0 515 0 l 103 0 m 354 128 q 592 486 554 128 q 597 590 597 536 q 431 844 597 844 l 304 844 l 228 128 l 354 128 m 843 0 q 821 31 831 0 q 814 88 811 63 q 818 104 814 99 l 1314 844 l 957 844 q 935 857 942 844 q 932 899 929 869 l 935 918 q 946 960 938 947 q 969 972 954 972 l 1478 972 q 1499 940 1490 972 q 1504 883 1507 907 q 1503 868 1504 872 l 1008 128 l 1396 128 q 1422 92 1422 128 q 1421 74 1422 81 l 1418 54 q 1406 13 1415 25 q 1382 0 1397 0 l 843 0 m 1222 1051 q 1161 1081 1176 1051 l 1099 1207 q 1092 1232 1092 1228 q 1122 1250 1094 1250 l 1151 1250 q 1194 1228 1181 1250 l 1239 1139 l 1303 1228 q 1351 1250 1317 1250 l 1382 1250 q 1407 1231 1410 1250 q 1394 1207 1407 1225 l 1304 1081 q 1278 1058 1293 1064 q 1239 1051 1263 1051 l 1222 1051 z "},"Ð":{"ha":801,"x_min":26,"x_max":753,"o":"m 447 972 q 753 603 753 972 q 746 486 753 556 q 617 116 719 232 q 344 0 515 0 l 103 0 q 72 11 81 0 q 65 46 63 22 l 107 432 l 53 432 q 26 471 26 432 q 34 536 26 513 q 67 560 42 560 l 121 560 l 160 926 q 173 961 163 950 q 206 972 183 972 l 447 972 m 592 486 q 597 590 597 536 q 431 844 597 844 l 304 844 l 274 560 l 411 560 q 433 551 426 560 q 439 522 439 542 q 431 457 439 482 q 399 432 424 432 l 260 432 l 228 128 l 354 128 q 592 486 554 128 z "},"Ď":{"ha":801,"x_min":65,"x_max":753,"o":"m 103 0 q 72 11 81 0 q 65 46 63 22 l 160 926 q 173 961 163 950 q 206 972 183 972 l 447 972 q 753 603 753 972 q 746 486 753 556 q 617 116 719 232 q 344 0 515 0 l 103 0 m 354 128 q 592 486 554 128 q 597 590 597 536 q 431 844 597 844 l 304 844 l 228 128 l 354 128 m 447 1051 q 386 1081 401 1051 l 324 1207 q 317 1232 317 1228 q 347 1250 319 1250 l 376 1250 q 419 1228 406 1250 l 464 1139 l 528 1228 q 576 1250 542 1250 l 607 1250 q 632 1231 635 1250 q 619 1207 632 1225 l 529 1081 q 503 1058 518 1064 q 464 1051 488 1051 l 447 1051 z "},"Đ":{"ha":801,"x_min":26,"x_max":753,"o":"m 447 972 q 753 603 753 972 q 746 486 753 556 q 617 116 719 232 q 344 0 515 0 l 103 0 q 72 11 81 0 q 65 46 63 22 l 107 432 l 53 432 q 26 471 26 432 q 34 536 26 513 q 67 560 42 560 l 121 560 l 160 926 q 173 961 163 950 q 206 972 183 972 l 447 972 m 592 486 q 597 590 597 536 q 431 844 597 844 l 304 844 l 274 560 l 411 560 q 433 551 426 560 q 439 522 439 542 q 431 457 439 482 q 399 432 424 432 l 260 432 l 228 128 l 354 128 q 592 486 554 128 z "},"Ḍ":{"ha":801,"x_min":65,"x_max":753,"o":"m 103 0 q 72 11 81 0 q 65 46 63 22 l 160 926 q 173 961 163 950 q 206 972 183 972 l 447 972 q 753 603 753 972 q 746 486 753 556 q 617 116 719 232 q 344 0 515 0 l 103 0 m 354 128 q 592 486 554 128 q 597 590 597 536 q 431 844 597 844 l 304 844 l 228 128 l 354 128 m 317 -254 q 263 -246 279 -254 q 249 -221 246 -237 l 257 -146 q 332 -111 260 -111 q 400 -146 404 -111 l 393 -221 q 317 -254 389 -254 z "},"ǲ":{"ha":1364,"x_min":65,"x_max":1349,"o":"m 103 0 q 72 11 81 0 q 65 46 63 22 l 160 926 q 173 961 163 950 q 206 972 183 972 l 447 972 q 753 603 753 972 q 746 486 753 556 q 617 116 719 232 q 344 0 515 0 l 103 0 m 354 128 q 592 486 554 128 q 597 590 597 536 q 431 844 597 844 l 304 844 l 228 128 l 354 128 m 842 0 q 824 29 832 0 q 819 81 817 58 q 824 97 819 85 l 1168 608 l 924 608 q 897 643 897 608 q 899 658 897 653 l 900 676 q 911 715 903 703 q 935 726 919 726 l 1328 726 q 1344 697 1336 726 q 1349 644 1351 668 l 1344 628 l 1000 118 l 1267 118 q 1293 68 1297 118 l 1290 50 q 1279 12 1288 24 q 1256 0 1271 0 l 842 0 z "},"ǅ":{"ha":1364,"x_min":65,"x_max":1349,"o":"m 103 0 q 72 11 81 0 q 65 46 63 22 l 160 926 q 173 961 163 950 q 206 972 183 972 l 447 972 q 753 603 753 972 q 746 486 753 556 q 617 116 719 232 q 344 0 515 0 l 103 0 m 354 128 q 592 486 554 128 q 597 590 597 536 q 431 844 597 844 l 304 844 l 228 128 l 354 128 m 842 0 q 824 29 832 0 q 819 81 817 58 q 824 97 819 85 l 1168 608 l 924 608 q 897 643 897 608 q 899 658 897 653 l 900 676 q 911 715 903 703 q 935 726 919 726 l 1328 726 q 1344 697 1336 726 q 1349 644 1351 668 l 1344 628 l 1000 118 l 1267 118 q 1293 68 1297 118 l 1290 50 q 1279 12 1288 24 q 1256 0 1271 0 l 842 0 m 1128 806 q 1067 835 1082 806 l 1004 961 q 997 986 997 982 q 1028 1004 1000 1004 l 1057 1004 q 1100 982 1086 1004 l 1144 893 l 1208 982 q 1257 1004 1222 1004 l 1288 1004 q 1313 985 1315 1004 q 1300 961 1313 979 l 1210 835 q 1183 812 1199 818 q 1144 806 1168 806 l 1128 806 z "},"E":{"ha":635,"x_min":65,"x_max":639,"o":"m 106 0 q 74 10 83 0 q 68 46 65 21 l 161 926 q 175 962 164 951 q 208 972 186 972 l 611 972 q 633 960 626 972 q 636 922 639 949 l 633 894 q 597 844 628 844 l 304 844 l 275 561 l 536 561 q 563 511 567 561 l 558 483 q 524 433 554 433 l 261 433 l 229 128 l 522 128 q 544 116 538 128 q 547 78 550 104 l 543 50 q 533 12 540 24 q 508 0 525 0 l 106 0 z "},"É":{"ha":635,"x_min":68,"x_max":636,"o":"m 106 0 q 74 10 83 0 q 68 46 65 21 l 161 926 q 175 962 164 951 q 208 972 186 972 l 611 972 q 633 960 626 972 q 636 922 639 949 l 633 894 q 597 844 628 844 l 304 844 l 275 561 l 536 561 q 563 511 567 561 l 558 483 q 524 433 554 433 l 261 433 l 229 128 l 522 128 q 544 116 538 128 q 547 78 550 104 l 543 50 q 533 12 540 24 q 508 0 525 0 l 106 0 m 382 1054 q 356 1058 364 1054 q 349 1071 349 1061 q 360 1103 349 1079 q 392 1169 371 1128 l 419 1226 q 507 1264 439 1264 q 555 1260 540 1264 q 569 1244 569 1256 q 558 1218 569 1236 q 518 1164 546 1200 q 494 1132 508 1151 q 457 1082 479 1113 q 430 1061 447 1068 q 382 1054 413 1054 z "},"Ĕ":{"ha":635,"x_min":68,"x_max":636,"o":"m 106 0 q 74 10 83 0 q 68 46 65 21 l 161 926 q 175 962 164 951 q 208 972 186 972 l 611 972 q 633 960 626 972 q 636 922 639 949 l 633 894 q 597 844 628 844 l 304 844 l 275 561 l 536 561 q 563 511 567 561 l 558 483 q 524 433 554 433 l 261 433 l 229 128 l 522 128 q 544 116 538 128 q 547 78 550 104 l 543 50 q 533 12 540 24 q 508 0 525 0 l 106 0 m 418 1054 q 308 1092 350 1054 q 265 1192 265 1129 l 267 1210 q 304 1239 271 1239 q 324 1232 318 1239 q 333 1207 329 1225 q 365 1169 342 1182 q 431 1156 388 1156 q 538 1208 510 1156 q 552 1233 546 1226 q 572 1239 558 1239 q 601 1210 606 1239 q 544 1097 594 1139 q 418 1054 493 1054 z "},"Ě":{"ha":635,"x_min":68,"x_max":636,"o":"m 106 0 q 74 10 83 0 q 68 46 65 21 l 161 926 q 175 962 164 951 q 208 972 186 972 l 611 972 q 633 960 626 972 q 636 922 639 949 l 633 894 q 597 844 628 844 l 304 844 l 275 561 l 536 561 q 563 511 567 561 l 558 483 q 524 433 554 433 l 261 433 l 229 128 l 522 128 q 544 116 538 128 q 547 78 550 104 l 543 50 q 533 12 540 24 q 508 0 525 0 l 106 0 m 410 1051 q 349 1081 364 1051 l 286 1207 q 279 1232 279 1228 q 310 1250 282 1250 l 339 1250 q 382 1228 368 1250 l 426 1139 l 490 1228 q 539 1250 504 1250 l 569 1250 q 594 1231 597 1250 q 582 1207 594 1225 l 492 1081 q 465 1058 481 1064 q 426 1051 450 1051 l 410 1051 z "},"Ê":{"ha":635,"x_min":68,"x_max":636,"o":"m 106 0 q 74 10 83 0 q 68 46 65 21 l 161 926 q 175 962 164 951 q 208 972 186 972 l 611 972 q 633 960 626 972 q 636 922 639 949 l 633 894 q 597 844 628 844 l 304 844 l 275 561 l 536 561 q 563 511 567 561 l 558 483 q 524 433 554 433 l 261 433 l 229 128 l 522 128 q 544 116 538 128 q 547 78 550 104 l 543 50 q 533 12 540 24 q 508 0 525 0 l 106 0 m 285 1044 q 258 1061 258 1044 q 265 1075 261 1068 q 271 1086 268 1082 l 360 1214 q 428 1243 381 1243 l 443 1243 q 481 1236 467 1243 q 504 1214 494 1229 l 567 1086 q 574 1063 574 1072 q 544 1044 571 1044 l 514 1044 q 471 1065 482 1044 l 425 1156 l 363 1065 q 314 1044 344 1044 l 285 1044 z "},"Ế":{"ha":635,"x_min":65,"x_max":721,"o":"m 567 1181 q 535 1197 535 1181 q 544 1228 535 1206 q 571 1292 553 1251 l 590 1336 q 674 1372 610 1372 q 710 1367 699 1372 q 721 1350 721 1363 q 704 1317 721 1342 q 651 1242 688 1292 l 624 1204 q 600 1187 613 1193 q 567 1181 588 1181 m 294 1044 q 268 1061 268 1044 q 273 1074 269 1068 q 278 1086 276 1081 l 363 1214 q 429 1243 381 1243 l 446 1243 q 483 1237 469 1243 q 506 1214 497 1231 l 561 1086 q 568 1063 568 1072 q 559 1049 567 1054 q 539 1044 551 1044 l 508 1044 q 464 1064 474 1044 l 426 1156 l 372 1065 q 352 1049 364 1053 q 324 1044 340 1044 l 294 1044 m 106 0 q 74 10 83 0 q 68 46 65 21 l 161 926 q 175 962 164 951 q 208 972 186 972 l 611 972 q 633 960 626 972 q 636 922 639 949 l 633 894 q 597 844 628 844 l 304 844 l 275 561 l 536 561 q 563 511 567 561 l 558 483 q 524 433 554 433 l 261 433 l 229 128 l 522 128 q 544 116 538 128 q 547 78 550 104 l 543 50 q 533 12 540 24 q 508 0 525 0 l 106 0 z "},"Ệ":{"ha":635,"x_min":68,"x_max":636,"o":"m 106 0 q 74 10 83 0 q 68 46 65 21 l 161 926 q 175 962 164 951 q 208 972 186 972 l 611 972 q 633 960 626 972 q 636 922 639 949 l 633 894 q 597 844 628 844 l 304 844 l 275 561 l 536 561 q 563 511 567 561 l 558 483 q 524 433 554 433 l 261 433 l 229 128 l 522 128 q 544 116 538 128 q 547 78 550 104 l 543 50 q 533 12 540 24 q 508 0 525 0 l 106 0 m 278 -254 q 224 -246 240 -254 q 210 -221 207 -237 l 218 -146 q 293 -111 221 -111 q 361 -146 365 -111 l 354 -221 q 278 -254 350 -254 m 285 1044 q 258 1061 258 1044 q 265 1075 261 1068 q 271 1086 268 1082 l 360 1214 q 428 1243 381 1243 l 443 1243 q 481 1236 467 1243 q 504 1214 494 1229 l 567 1086 q 574 1063 574 1072 q 544 1044 571 1044 l 514 1044 q 471 1065 482 1044 l 425 1156 l 363 1065 q 314 1044 344 1044 l 285 1044 z "},"Ề":{"ha":635,"x_min":65,"x_max":653,"o":"m 619 1181 q 561 1207 581 1181 l 521 1265 q 481 1324 493 1304 q 468 1351 468 1343 q 479 1367 468 1363 q 518 1372 490 1372 q 601 1336 585 1372 q 640 1240 626 1274 q 653 1197 653 1206 q 619 1181 653 1181 m 294 1044 q 268 1061 268 1044 q 273 1074 269 1068 q 278 1086 276 1081 l 363 1214 q 429 1243 381 1243 l 446 1243 q 483 1237 469 1243 q 506 1214 497 1231 l 561 1086 q 568 1063 568 1072 q 559 1049 567 1054 q 539 1044 551 1044 l 508 1044 q 464 1064 474 1044 l 426 1156 l 372 1065 q 352 1049 364 1053 q 324 1044 340 1044 l 294 1044 m 106 0 q 74 10 83 0 q 68 46 65 21 l 161 926 q 175 962 164 951 q 208 972 186 972 l 611 972 q 633 960 626 972 q 636 922 639 949 l 633 894 q 597 844 628 844 l 304 844 l 275 561 l 536 561 q 563 511 567 561 l 558 483 q 524 433 554 433 l 261 433 l 229 128 l 522 128 q 544 116 538 128 q 547 78 550 104 l 543 50 q 533 12 540 24 q 508 0 525 0 l 106 0 z "},"Ể":{"ha":635,"x_min":65,"x_max":693,"o":"m 588 1190 q 549 1199 564 1190 q 533 1219 533 1208 q 542 1233 533 1226 q 565 1247 551 1240 q 608 1294 608 1269 q 596 1319 608 1310 q 564 1328 583 1328 q 517 1318 533 1328 q 497 1308 500 1308 q 475 1327 489 1308 q 461 1358 461 1346 q 497 1385 461 1372 q 571 1397 533 1397 q 656 1374 619 1397 q 693 1304 693 1350 q 647 1221 693 1260 q 614 1200 632 1210 q 588 1190 596 1190 m 294 1044 q 268 1061 268 1044 q 273 1074 269 1068 q 278 1086 276 1081 l 363 1214 q 429 1243 381 1243 l 446 1243 q 483 1237 469 1243 q 506 1214 497 1231 l 561 1086 q 568 1063 568 1072 q 559 1049 567 1054 q 539 1044 551 1044 l 508 1044 q 464 1064 474 1044 l 426 1156 l 372 1065 q 352 1049 364 1053 q 324 1044 340 1044 l 294 1044 m 106 0 q 74 10 83 0 q 68 46 65 21 l 161 926 q 175 962 164 951 q 208 972 186 972 l 611 972 q 633 960 626 972 q 636 922 639 949 l 633 894 q 597 844 628 844 l 304 844 l 275 561 l 536 561 q 563 511 567 561 l 558 483 q 524 433 554 433 l 261 433 l 229 128 l 522 128 q 544 116 538 128 q 547 78 550 104 l 543 50 q 533 12 540 24 q 508 0 525 0 l 106 0 z "},"Ễ":{"ha":635,"x_min":65,"x_max":639,"o":"m 263 1228 q 246 1250 246 1235 q 250 1269 246 1260 q 357 1365 282 1365 q 396 1358 375 1365 q 444 1338 417 1351 q 483 1321 464 1328 q 514 1314 501 1314 q 536 1321 526 1314 q 557 1346 546 1328 q 585 1368 569 1368 q 599 1364 590 1368 l 610 1360 q 624 1351 619 1356 q 628 1338 628 1346 q 624 1318 628 1329 q 517 1222 589 1222 q 428 1250 486 1222 q 357 1274 378 1274 q 317 1240 335 1274 q 290 1221 303 1221 q 276 1224 288 1221 l 263 1228 m 294 1044 q 269 1063 268 1044 q 282 1089 269 1069 l 358 1183 q 387 1206 371 1199 q 426 1213 403 1213 l 443 1213 q 504 1183 485 1213 l 560 1089 q 568 1063 568 1067 q 559 1049 567 1054 q 539 1044 551 1044 l 508 1044 q 464 1064 479 1044 l 426 1138 l 372 1065 q 351 1049 363 1054 q 324 1044 340 1044 l 294 1044 m 106 0 q 74 10 83 0 q 68 46 65 21 l 161 926 q 175 962 164 951 q 208 972 186 972 l 611 972 q 633 960 626 972 q 636 922 639 949 l 633 894 q 597 844 628 844 l 304 844 l 275 561 l 536 561 q 563 511 567 561 l 558 483 q 524 433 554 433 l 261 433 l 229 128 l 522 128 q 544 116 538 128 q 547 78 550 104 l 543 50 q 533 12 540 24 q 508 0 525 0 l 106 0 z "},"Ë":{"ha":635,"x_min":68,"x_max":636,"o":"m 106 0 q 74 10 83 0 q 68 46 65 21 l 161 926 q 175 962 164 951 q 208 972 186 972 l 611 972 q 633 960 626 972 q 636 922 639 949 l 633 894 q 597 844 628 844 l 304 844 l 275 561 l 536 561 q 563 511 567 561 l 558 483 q 524 433 554 433 l 261 433 l 229 128 l 522 128 q 544 116 538 128 q 547 78 550 104 l 543 50 q 533 12 540 24 q 508 0 525 0 l 106 0 m 324 1078 q 278 1086 292 1078 q 268 1111 265 1094 l 275 1186 q 340 1221 279 1221 q 399 1186 401 1221 l 390 1111 q 324 1078 386 1078 m 514 1078 q 457 1111 453 1078 l 465 1186 q 531 1221 468 1221 q 588 1186 590 1221 l 581 1111 q 514 1078 576 1078 z "},"Ė":{"ha":635,"x_min":68,"x_max":636,"o":"m 106 0 q 74 10 83 0 q 68 46 65 21 l 161 926 q 175 962 164 951 q 208 972 186 972 l 611 972 q 633 960 626 972 q 636 922 639 949 l 633 894 q 597 844 628 844 l 304 844 l 275 561 l 536 561 q 563 511 567 561 l 558 483 q 524 433 554 433 l 261 433 l 229 128 l 522 128 q 544 116 538 128 q 547 78 550 104 l 543 50 q 533 12 540 24 q 508 0 525 0 l 106 0 m 419 1078 q 365 1086 382 1078 q 351 1111 349 1094 l 360 1186 q 435 1221 363 1221 q 503 1186 507 1221 l 496 1111 q 419 1078 492 1078 z "},"Ẹ":{"ha":635,"x_min":68,"x_max":636,"o":"m 106 0 q 74 10 83 0 q 68 46 65 21 l 161 926 q 175 962 164 951 q 208 972 186 972 l 611 972 q 633 960 626 972 q 636 922 639 949 l 633 894 q 597 844 628 844 l 304 844 l 275 561 l 536 561 q 563 511 567 561 l 558 483 q 524 433 554 433 l 261 433 l 229 128 l 522 128 q 544 116 538 128 q 547 78 550 104 l 543 50 q 533 12 540 24 q 508 0 525 0 l 106 0 m 278 -254 q 224 -246 240 -254 q 210 -221 207 -237 l 218 -146 q 293 -111 221 -111 q 361 -146 365 -111 l 354 -221 q 278 -254 350 -254 z "},"È":{"ha":635,"x_min":68,"x_max":636,"o":"m 106 0 q 74 10 83 0 q 68 46 65 21 l 161 926 q 175 962 164 951 q 208 972 186 972 l 611 972 q 633 960 626 972 q 636 922 639 949 l 633 894 q 597 844 628 844 l 304 844 l 275 561 l 536 561 q 563 511 567 561 l 558 483 q 524 433 554 433 l 261 433 l 229 128 l 522 128 q 544 116 538 128 q 547 78 550 104 l 543 50 q 533 12 540 24 q 508 0 525 0 l 106 0 m 439 1054 q 364 1082 382 1054 l 319 1140 q 261 1219 272 1203 q 250 1244 250 1235 q 265 1260 250 1256 q 314 1264 281 1264 q 401 1226 383 1264 q 453 1119 435 1157 q 471 1071 471 1081 q 464 1058 471 1061 q 439 1054 457 1054 z "},"Ẻ":{"ha":635,"x_min":68,"x_max":636,"o":"m 106 0 q 74 10 83 0 q 68 46 65 21 l 161 926 q 175 962 164 951 q 208 972 186 972 l 611 972 q 633 960 626 972 q 636 922 639 949 l 633 894 q 597 844 628 844 l 304 844 l 275 561 l 536 561 q 563 511 567 561 l 558 483 q 524 433 554 433 l 261 433 l 229 128 l 522 128 q 544 116 538 128 q 547 78 550 104 l 543 50 q 533 12 540 24 q 508 0 525 0 l 106 0 m 425 1031 q 390 1040 410 1031 q 371 1057 371 1049 q 378 1075 371 1067 q 406 1100 386 1083 q 444 1137 431 1119 q 458 1178 458 1154 q 444 1203 458 1194 q 410 1213 431 1213 q 366 1204 382 1213 q 347 1196 350 1196 q 325 1215 339 1196 q 311 1244 311 1233 q 348 1273 311 1258 q 421 1288 385 1288 q 515 1263 475 1288 q 556 1186 556 1238 q 529 1112 556 1147 q 470 1053 503 1076 q 425 1031 438 1031 z "},"Ē":{"ha":635,"x_min":68,"x_max":636,"o":"m 106 0 q 74 10 83 0 q 68 46 65 21 l 161 926 q 175 962 164 951 q 208 972 186 972 l 611 972 q 633 960 626 972 q 636 922 639 949 l 633 894 q 597 844 628 844 l 304 844 l 275 561 l 536 561 q 563 511 567 561 l 558 483 q 524 433 554 433 l 261 433 l 229 128 l 522 128 q 544 116 538 128 q 547 78 550 104 l 543 50 q 533 12 540 24 q 508 0 525 0 l 106 0 m 285 1090 q 258 1136 254 1090 l 260 1151 q 271 1186 263 1175 q 294 1197 279 1197 l 568 1197 q 591 1186 585 1197 q 594 1151 597 1175 l 592 1136 q 581 1101 589 1113 q 557 1090 574 1090 l 285 1090 z "},"Ę":{"ha":635,"x_min":65,"x_max":653,"o":"m 621 -147 q 653 -183 653 -147 q 633 -222 653 -210 q 544 -246 596 -246 q 442 -206 468 -246 q 415 -121 415 -165 q 449 0 415 -61 l 106 0 q 74 10 83 0 q 68 46 65 21 l 161 926 q 175 962 164 951 q 208 972 186 972 l 611 972 q 633 960 626 972 q 636 922 639 949 l 633 894 q 597 844 628 844 l 304 844 l 275 561 l 536 561 q 563 511 567 561 l 558 483 q 524 433 554 433 l 261 433 l 229 128 l 522 128 q 544 116 538 128 q 547 78 550 104 l 543 50 q 535 14 540 26 q 511 -44 519 -15 q 503 -96 503 -74 q 522 -143 503 -131 q 571 -156 542 -156 q 599 -151 582 -156 q 621 -147 617 -147 z "},"Ẽ":{"ha":635,"x_min":68,"x_max":636,"o":"m 106 0 q 74 10 83 0 q 68 46 65 21 l 161 926 q 175 962 164 951 q 208 972 186 972 l 611 972 q 633 960 626 972 q 636 922 639 949 l 633 894 q 597 844 628 844 l 304 844 l 275 561 l 536 561 q 563 511 567 561 l 558 483 q 524 433 554 433 l 261 433 l 229 128 l 522 128 q 544 116 538 128 q 547 78 550 104 l 543 50 q 533 12 540 24 q 508 0 525 0 l 106 0 m 219 1068 q 200 1090 200 1075 q 204 1110 200 1100 q 322 1206 240 1206 q 418 1178 354 1206 q 450 1165 424 1175 q 494 1154 476 1154 q 519 1161 508 1154 q 542 1186 529 1168 q 572 1208 556 1208 q 589 1204 579 1208 l 599 1200 q 616 1191 611 1196 q 621 1178 621 1186 q 615 1158 621 1172 q 497 1063 578 1063 q 455 1069 476 1063 q 400 1090 433 1076 q 358 1107 379 1100 q 322 1114 338 1114 q 300 1107 310 1114 q 278 1081 290 1100 q 249 1061 264 1061 q 233 1064 244 1061 l 219 1068 z "},"F":{"ha":588,"x_min":64,"x_max":603,"o":"m 124 -3 q 67 32 64 -3 l 161 926 q 175 962 164 951 q 208 972 186 972 l 575 972 q 597 960 590 972 q 600 922 603 949 l 597 894 q 561 844 592 844 l 304 844 l 275 561 l 511 561 q 538 526 538 561 q 536 511 538 517 l 533 483 q 497 433 529 433 l 261 433 l 218 32 q 154 -3 215 -3 l 124 -3 z "},"G":{"ha":767,"x_min":71,"x_max":722,"o":"m 489 849 q 314 758 375 849 q 233 489 253 668 q 228 385 228 440 q 401 121 228 121 q 507 135 458 121 l 536 414 l 432 414 q 406 446 406 414 q 407 464 406 457 l 408 492 q 420 530 411 518 q 446 542 429 542 l 657 542 q 688 531 679 542 q 694 496 697 519 l 653 94 q 565 17 647 43 q 385 -10 482 -10 q 153 86 235 -10 q 71 374 71 182 q 76 481 71 431 q 204 861 106 740 q 499 982 303 982 q 606 968 553 982 q 690 933 658 954 q 719 892 722 911 q 692 834 717 869 q 650 799 667 799 q 622 813 646 799 q 567 838 599 826 q 489 849 535 849 z "},"Ğ":{"ha":767,"x_min":71,"x_max":719,"o":"m 489 849 q 314 758 375 849 q 233 489 253 668 q 228 385 228 440 q 401 121 228 121 q 507 135 458 121 l 536 414 l 432 414 q 406 446 406 414 q 407 464 406 457 l 408 492 q 420 530 411 518 q 446 542 429 542 l 657 542 q 688 531 679 542 q 694 496 697 519 l 653 94 q 565 17 647 43 q 385 -10 482 -10 q 153 86 235 -10 q 71 374 71 182 q 76 481 71 431 q 204 861 106 740 q 499 982 303 982 q 606 968 553 982 q 690 933 658 954 q 719 892 722 911 q 692 834 717 869 q 650 799 667 799 q 622 813 646 799 q 567 838 599 826 q 489 849 535 849 m 483 1054 q 373 1092 415 1054 q 331 1192 331 1129 l 332 1210 q 369 1239 336 1239 q 389 1232 383 1239 q 399 1207 394 1225 q 430 1169 407 1182 q 496 1156 453 1156 q 603 1208 575 1156 q 617 1233 611 1226 q 638 1239 624 1239 q 667 1210 671 1239 q 609 1097 660 1139 q 483 1054 558 1054 z "},"Ĝ":{"ha":767,"x_min":71,"x_max":719,"o":"m 489 849 q 314 758 375 849 q 233 489 253 668 q 228 385 228 440 q 401 121 228 121 q 507 135 458 121 l 536 414 l 432 414 q 406 446 406 414 q 407 464 406 457 l 408 492 q 420 530 411 518 q 446 542 429 542 l 657 542 q 688 531 679 542 q 694 496 697 519 l 653 94 q 565 17 647 43 q 385 -10 482 -10 q 153 86 235 -10 q 71 374 71 182 q 76 481 71 431 q 204 861 106 740 q 499 982 303 982 q 606 968 553 982 q 690 933 658 954 q 719 892 722 911 q 692 834 717 869 q 650 799 667 799 q 622 813 646 799 q 567 838 599 826 q 489 849 535 849 m 350 1044 q 324 1061 324 1044 q 330 1075 326 1068 q 336 1086 333 1082 l 425 1214 q 493 1243 446 1243 l 508 1243 q 546 1236 532 1243 q 569 1214 560 1229 l 632 1086 q 639 1063 639 1072 q 610 1044 636 1044 l 579 1044 q 536 1065 547 1044 l 490 1156 l 428 1065 q 379 1044 410 1044 l 350 1044 z "},"Ģ":{"ha":767,"x_min":71,"x_max":719,"o":"m 489 849 q 314 758 375 849 q 233 489 253 668 q 228 385 228 440 q 401 121 228 121 q 507 135 458 121 l 536 414 l 432 414 q 406 446 406 414 q 407 464 406 457 l 408 492 q 420 530 411 518 q 446 542 429 542 l 657 542 q 688 531 679 542 q 694 496 697 519 l 653 94 q 565 17 647 43 q 385 -10 482 -10 q 153 86 235 -10 q 71 374 71 182 q 76 481 71 431 q 204 861 106 740 q 499 982 303 982 q 606 968 553 982 q 690 933 658 954 q 719 892 722 911 q 692 834 717 869 q 650 799 667 799 q 622 813 646 799 q 567 838 599 826 q 489 849 535 849 m 338 -328 q 306 -322 319 -328 q 292 -304 292 -317 q 300 -267 292 -297 q 325 -119 325 -199 q 385 -71 325 -71 l 403 -71 q 442 -83 429 -71 q 456 -117 456 -96 q 435 -221 456 -172 q 385 -299 414 -269 q 338 -328 357 -328 z "},"Ġ":{"ha":767,"x_min":71,"x_max":719,"o":"m 489 849 q 314 758 375 849 q 233 489 253 668 q 228 385 228 440 q 401 121 228 121 q 507 135 458 121 l 536 414 l 432 414 q 406 446 406 414 q 407 464 406 457 l 408 492 q 420 530 411 518 q 446 542 429 542 l 657 542 q 688 531 679 542 q 694 496 697 519 l 653 94 q 565 17 647 43 q 385 -10 482 -10 q 153 86 235 -10 q 71 374 71 182 q 76 481 71 431 q 204 861 106 740 q 499 982 303 982 q 606 968 553 982 q 690 933 658 954 q 719 892 722 911 q 692 834 717 869 q 650 799 667 799 q 622 813 646 799 q 567 838 599 826 q 489 849 535 849 m 485 1078 q 431 1086 447 1078 q 417 1111 414 1094 l 425 1186 q 500 1221 428 1221 q 568 1186 572 1221 l 561 1111 q 485 1078 557 1078 z "},"H":{"ha":835,"x_min":64,"x_max":799,"o":"m 124 -3 q 67 32 64 -3 l 163 940 q 226 975 167 975 l 258 975 q 315 940 318 975 l 275 563 l 603 563 l 643 940 q 707 975 646 975 l 738 975 q 796 940 799 975 l 699 32 q 635 -3 696 -3 l 604 -3 q 547 32 543 -3 l 589 433 l 261 433 l 218 32 q 156 -3 215 -3 l 124 -3 z "},"Ħ":{"ha":835,"x_min":6,"x_max":908,"o":"m 881 785 q 908 746 908 785 q 900 699 908 721 q 868 676 892 676 l 768 676 l 699 32 q 635 -3 696 -3 l 604 -3 q 547 32 543 -3 l 589 433 l 261 433 l 218 32 q 156 -3 215 -3 l 124 -3 q 67 32 64 -3 l 135 676 l 32 676 q 11 686 17 676 q 6 715 6 696 q 44 785 6 785 l 146 785 l 163 940 q 226 975 167 975 l 258 975 q 315 940 318 975 l 299 785 l 626 785 l 643 940 q 707 975 646 975 l 738 975 q 796 940 799 975 l 779 785 l 881 785 m 603 563 l 615 676 l 288 676 l 275 563 l 603 563 z "},"Ĥ":{"ha":835,"x_min":67,"x_max":796,"o":"m 124 -3 q 67 32 64 -3 l 163 940 q 226 975 167 975 l 258 975 q 315 940 318 975 l 275 563 l 603 563 l 643 940 q 707 975 646 975 l 738 975 q 796 940 799 975 l 699 32 q 635 -3 696 -3 l 604 -3 q 547 32 543 -3 l 589 433 l 261 433 l 218 32 q 156 -3 215 -3 l 124 -3 m 360 1044 q 333 1061 333 1044 q 340 1075 336 1068 q 346 1086 343 1082 l 435 1214 q 503 1243 456 1243 l 518 1243 q 556 1236 542 1243 q 579 1214 569 1229 l 642 1086 q 649 1063 649 1072 q 619 1044 646 1044 l 589 1044 q 546 1065 557 1044 l 500 1156 l 438 1065 q 389 1044 419 1044 l 360 1044 z "},"Ḥ":{"ha":835,"x_min":67,"x_max":796,"o":"m 124 -3 q 67 32 64 -3 l 163 940 q 226 975 167 975 l 258 975 q 315 940 318 975 l 275 563 l 603 563 l 643 940 q 707 975 646 975 l 738 975 q 796 940 799 975 l 699 32 q 635 -3 696 -3 l 604 -3 q 547 32 543 -3 l 589 433 l 261 433 l 218 32 q 156 -3 215 -3 l 124 -3 m 356 -254 q 301 -246 318 -254 q 288 -221 285 -237 l 296 -146 q 371 -111 299 -111 q 439 -146 443 -111 l 432 -221 q 356 -254 428 -254 z "},"I":{"ha":364,"x_min":67,"x_max":322,"o":"m 128 -3 q 71 32 67 -3 l 167 940 q 231 975 169 975 l 263 975 q 319 940 322 975 l 222 32 q 160 -3 219 -3 l 128 -3 z "},"Ĳ":{"ha":857,"x_min":71,"x_max":806,"o":"m 128 -3 q 71 32 67 -3 l 167 940 q 231 975 169 975 l 263 975 q 319 940 322 975 l 222 32 q 160 -3 219 -3 l 128 -3 m 460 -10 q 369 4 411 -10 q 329 40 328 18 q 349 99 333 67 q 379 133 364 132 q 407 127 383 133 q 453 121 431 121 q 543 160 513 121 q 583 283 574 199 l 653 940 q 715 975 656 975 l 747 975 q 806 940 808 975 l 736 283 q 654 67 722 144 q 460 -10 586 -10 z "},"Í":{"ha":364,"x_min":71,"x_max":407,"o":"m 128 -3 q 71 32 67 -3 l 167 940 q 231 975 169 975 l 263 975 q 319 940 322 975 l 222 32 q 160 -3 219 -3 l 128 -3 m 219 1054 q 194 1058 201 1054 q 186 1071 186 1061 q 197 1103 186 1079 q 229 1169 208 1128 l 257 1226 q 344 1264 276 1264 q 392 1260 378 1264 q 407 1244 407 1256 q 395 1218 407 1236 q 356 1164 383 1200 q 331 1132 346 1151 q 294 1082 317 1113 q 267 1061 285 1068 q 219 1054 250 1054 z "},"Ĭ":{"ha":364,"x_min":71,"x_max":439,"o":"m 128 -3 q 71 32 67 -3 l 167 940 q 231 975 169 975 l 263 975 q 319 940 322 975 l 222 32 q 160 -3 219 -3 l 128 -3 m 256 1054 q 145 1092 188 1054 q 103 1192 103 1129 l 104 1210 q 142 1239 108 1239 q 161 1232 156 1239 q 171 1207 167 1225 q 202 1169 179 1182 q 268 1156 225 1156 q 375 1208 347 1156 q 390 1233 383 1226 q 410 1239 396 1239 q 439 1210 443 1239 q 381 1097 432 1139 q 256 1054 331 1054 z "},"Î":{"ha":364,"x_min":71,"x_max":411,"o":"m 128 -3 q 71 32 67 -3 l 167 940 q 231 975 169 975 l 263 975 q 319 940 322 975 l 222 32 q 160 -3 219 -3 l 128 -3 m 122 1044 q 96 1061 96 1044 q 102 1075 99 1068 q 108 1086 106 1082 l 197 1214 q 265 1243 218 1243 l 281 1243 q 318 1236 304 1243 q 342 1214 332 1229 l 404 1086 q 411 1063 411 1072 q 382 1044 408 1044 l 351 1044 q 308 1065 319 1044 l 263 1156 l 200 1065 q 151 1044 182 1044 l 122 1044 z "},"Ï":{"ha":364,"x_min":71,"x_max":425,"o":"m 128 -3 q 71 32 67 -3 l 167 940 q 231 975 169 975 l 263 975 q 319 940 322 975 l 222 32 q 160 -3 219 -3 l 128 -3 m 161 1078 q 116 1086 129 1078 q 106 1111 103 1094 l 113 1186 q 178 1221 117 1221 q 236 1186 239 1221 l 228 1111 q 161 1078 224 1078 m 351 1078 q 294 1111 290 1078 l 303 1186 q 368 1221 306 1221 q 425 1186 428 1221 l 418 1111 q 351 1078 414 1078 z "},"İ":{"ha":364,"x_min":71,"x_max":340,"o":"m 128 -3 q 71 32 67 -3 l 167 940 q 231 975 169 975 l 263 975 q 319 940 322 975 l 222 32 q 160 -3 219 -3 l 128 -3 m 257 1078 q 203 1086 219 1078 q 189 1111 186 1094 l 197 1186 q 272 1221 200 1221 q 340 1186 344 1221 l 333 1111 q 257 1078 329 1078 z "},"Ị":{"ha":364,"x_min":50,"x_max":319,"o":"m 128 -3 q 71 32 67 -3 l 167 940 q 231 975 169 975 l 263 975 q 319 940 322 975 l 222 32 q 160 -3 219 -3 l 128 -3 m 118 -254 q 64 -246 81 -254 q 50 -221 47 -237 l 58 -146 q 133 -111 61 -111 q 201 -146 206 -111 l 194 -221 q 118 -254 190 -254 z "},"Ì":{"ha":364,"x_min":71,"x_max":319,"o":"m 128 -3 q 71 32 67 -3 l 167 940 q 231 975 169 975 l 263 975 q 319 940 322 975 l 222 32 q 160 -3 219 -3 l 128 -3 m 276 1054 q 201 1082 219 1054 l 157 1140 q 99 1219 110 1203 q 88 1244 88 1235 q 103 1260 88 1256 q 151 1264 118 1264 q 239 1226 221 1264 q 290 1119 272 1157 q 308 1071 308 1081 q 301 1058 308 1061 q 276 1054 294 1054 z "},"Ỉ":{"ha":364,"x_min":71,"x_max":393,"o":"m 128 -3 q 71 32 67 -3 l 167 940 q 231 975 169 975 l 263 975 q 319 940 322 975 l 222 32 q 160 -3 219 -3 l 128 -3 m 263 1031 q 228 1040 247 1031 q 208 1057 208 1049 q 216 1075 208 1067 q 243 1100 224 1083 q 282 1137 268 1119 q 296 1178 296 1154 q 282 1203 296 1194 q 247 1213 268 1213 q 203 1204 219 1213 q 185 1196 188 1196 q 163 1215 176 1196 q 149 1244 149 1233 q 185 1273 149 1258 q 258 1288 222 1288 q 353 1263 313 1288 q 393 1186 393 1238 q 367 1112 393 1147 q 308 1053 340 1076 q 263 1031 275 1031 z "},"Ī":{"ha":364,"x_min":71,"x_max":432,"o":"m 128 -3 q 71 32 67 -3 l 167 940 q 231 975 169 975 l 263 975 q 319 940 322 975 l 222 32 q 160 -3 219 -3 l 128 -3 m 122 1090 q 96 1136 92 1090 l 97 1151 q 108 1186 100 1175 q 132 1197 117 1197 l 406 1197 q 428 1186 422 1197 q 432 1151 435 1175 l 429 1136 q 419 1101 426 1113 q 394 1090 411 1090 l 122 1090 z "},"Į":{"ha":364,"x_min":67,"x_max":336,"o":"m 304 -144 q 336 -181 336 -144 q 317 -219 336 -207 q 228 -243 279 -243 q 125 -203 151 -243 q 99 -118 99 -162 q 129 -3 99 -60 l 128 -3 q 71 32 67 -3 l 167 940 q 231 975 169 975 l 263 975 q 319 940 322 975 l 222 32 q 218 17 222 24 q 194 -42 203 -12 q 186 -93 186 -71 q 206 -140 186 -128 q 254 -153 225 -153 q 283 -149 265 -153 q 304 -144 300 -144 z "},"Ĩ":{"ha":364,"x_min":58,"x_max":438,"o":"m 76 1068 q 58 1090 58 1075 q 63 1110 58 1100 q 168 1206 94 1206 q 254 1178 196 1206 q 283 1165 258 1176 q 324 1154 307 1154 q 365 1186 347 1154 q 393 1208 379 1208 q 408 1204 400 1208 l 417 1200 q 433 1191 428 1196 q 438 1178 438 1186 q 432 1158 438 1172 q 326 1063 399 1063 q 239 1090 297 1063 q 168 1114 189 1114 q 148 1107 157 1114 q 128 1081 139 1100 q 103 1061 117 1061 q 89 1064 97 1061 l 76 1068 m 128 -3 q 71 32 67 -3 l 167 940 q 231 975 169 975 l 263 975 q 319 940 322 975 l 222 32 q 160 -3 219 -3 l 128 -3 z "},"J":{"ha":493,"x_min":-36,"x_max":444,"o":"m 96 -10 q 6 4 47 -10 q -35 40 -36 18 q -15 99 -31 67 q 15 133 0 132 q 43 127 19 133 q 89 121 67 121 q 179 160 149 121 q 219 283 210 199 l 289 940 q 351 975 292 975 l 383 975 q 442 940 444 975 l 372 283 q 290 67 358 144 q 96 -10 222 -10 z "},"Ĵ":{"ha":493,"x_min":-35,"x_max":532,"o":"m 96 -10 q 6 4 47 -10 q -35 40 -36 18 q -15 99 -31 67 q 15 133 0 132 q 43 127 19 133 q 89 121 67 121 q 179 160 149 121 q 219 283 210 199 l 289 940 q 351 975 292 975 l 383 975 q 442 940 444 975 l 372 283 q 290 67 358 144 q 96 -10 222 -10 m 243 1044 q 217 1061 217 1044 q 223 1075 219 1068 q 229 1086 226 1082 l 318 1214 q 386 1243 339 1243 l 401 1243 q 439 1236 425 1243 q 463 1214 453 1229 l 525 1086 q 532 1063 532 1072 q 503 1044 529 1044 l 472 1044 q 429 1065 440 1044 l 383 1156 l 321 1065 q 272 1044 303 1044 l 243 1044 z "},"K":{"ha":708,"x_min":64,"x_max":735,"o":"m 124 -3 q 67 32 64 -3 l 163 940 q 226 975 167 975 l 256 975 q 315 940 318 975 l 269 522 l 275 522 l 572 954 q 597 971 581 967 q 640 975 614 975 l 679 975 q 735 956 735 975 q 719 928 733 946 l 411 489 l 656 42 q 663 17 664 26 q 647 2 661 7 q 600 -3 632 -3 l 567 -3 q 522 1 538 -3 q 499 18 506 4 l 268 463 l 263 463 l 218 32 q 153 -3 215 -3 l 124 -3 z "},"Ķ":{"ha":708,"x_min":67,"x_max":735,"o":"m 124 -3 q 67 32 64 -3 l 163 940 q 226 975 167 975 l 256 975 q 315 940 318 975 l 269 522 l 275 522 l 572 954 q 597 971 581 967 q 640 975 614 975 l 679 975 q 735 956 735 975 q 719 928 733 946 l 411 489 l 656 42 q 663 17 664 26 q 647 2 661 7 q 600 -3 632 -3 l 567 -3 q 522 1 538 -3 q 499 18 506 4 l 268 463 l 263 463 l 218 32 q 153 -3 215 -3 l 124 -3 m 268 -328 q 236 -322 250 -328 q 222 -304 222 -317 q 231 -267 222 -297 q 256 -119 256 -199 q 315 -71 256 -71 l 333 -71 q 373 -83 360 -71 q 386 -117 386 -96 q 365 -221 386 -172 q 316 -299 344 -269 q 268 -328 288 -328 z "},"L":{"ha":567,"x_min":65,"x_max":524,"o":"m 106 0 q 74 10 83 0 q 68 46 65 21 l 163 940 q 226 975 167 975 l 257 975 q 315 940 318 975 l 229 128 l 493 128 q 517 116 510 128 q 521 78 524 104 l 517 50 q 506 12 515 24 q 481 0 497 0 l 106 0 z "},"Ǉ":{"ha":997,"x_min":64,"x_max":928,"o":"m 247 975 q 307 940 307 975 l 222 128 l 488 128 q 509 119 503 128 q 515 90 515 110 q 508 24 515 49 q 475 0 500 0 l 106 0 q 73 10 82 0 q 64 43 64 19 l 158 940 q 225 975 161 975 l 247 975 m 868 975 q 928 940 928 975 l 835 63 q 743 -153 821 -75 q 517 -231 665 -231 q 428 -219 464 -231 q 392 -181 392 -208 q 414 -83 392 -83 q 443 -90 421 -83 q 504 -96 465 -96 q 634 -57 592 -96 q 686 68 676 -18 l 779 940 q 846 975 782 975 l 868 975 z "},"Ĺ":{"ha":567,"x_min":68,"x_max":521,"o":"m 106 0 q 74 10 83 0 q 68 46 65 21 l 163 940 q 226 975 167 975 l 257 975 q 315 940 318 975 l 229 128 l 493 128 q 517 116 510 128 q 521 78 524 104 l 517 50 q 506 12 515 24 q 481 0 497 0 l 106 0 m 218 1056 q 192 1059 200 1056 q 185 1072 185 1063 q 196 1105 185 1081 q 228 1171 207 1129 l 256 1228 q 343 1265 275 1265 q 391 1261 376 1265 q 406 1246 406 1257 q 394 1219 406 1238 q 354 1165 382 1201 q 330 1133 344 1153 q 293 1083 315 1114 q 266 1063 283 1069 q 218 1056 249 1056 z "},"Ľ":{"ha":567,"x_min":68,"x_max":557,"o":"m 106 0 q 74 10 83 0 q 68 46 65 21 l 163 940 q 226 975 167 975 l 257 975 q 315 940 318 975 l 229 128 l 493 128 q 517 116 510 128 q 521 78 524 104 l 517 50 q 506 12 515 24 q 481 0 497 0 l 106 0 m 453 725 q 422 731 436 725 q 407 749 407 736 q 413 804 407 763 q 417 851 414 817 q 421 924 421 886 q 437 959 421 946 q 485 972 453 972 l 501 972 q 542 960 528 972 q 557 926 557 947 q 539 826 557 872 q 496 753 521 781 q 453 725 471 725 z "},"Ļ":{"ha":567,"x_min":68,"x_max":521,"o":"m 106 0 q 74 10 83 0 q 68 46 65 21 l 163 940 q 226 975 167 975 l 257 975 q 315 940 318 975 l 229 128 l 493 128 q 517 116 510 128 q 521 78 524 104 l 517 50 q 506 12 515 24 q 481 0 497 0 l 106 0 m 229 -328 q 197 -322 211 -328 q 183 -304 183 -317 q 192 -267 183 -297 q 217 -119 217 -199 q 276 -71 217 -71 l 294 -71 q 334 -83 321 -71 q 347 -117 347 -96 q 326 -221 347 -172 q 277 -299 306 -269 q 229 -328 249 -328 z "},"Ŀ":{"ha":567,"x_min":68,"x_max":521,"o":"m 106 0 q 74 10 83 0 q 68 46 65 21 l 163 940 q 226 975 167 975 l 257 975 q 315 940 318 975 l 229 128 l 493 128 q 517 116 510 128 q 521 78 524 104 l 517 50 q 506 12 515 24 q 481 0 497 0 l 106 0 m 419 421 q 368 442 388 421 q 351 500 349 464 q 381 558 357 536 q 438 579 404 579 q 486 561 467 579 q 506 513 506 543 l 504 500 q 477 442 501 464 q 419 421 453 421 z "},"ǈ":{"ha":913,"x_min":68,"x_max":864,"o":"m 106 0 q 74 10 83 0 q 68 46 65 21 l 163 940 q 226 975 167 975 l 257 975 q 315 940 318 975 l 229 128 l 493 128 q 517 116 510 128 q 521 78 524 104 l 517 50 q 506 12 515 24 q 481 0 497 0 l 106 0 m 576 -294 q 472 -244 467 -294 q 486 -198 474 -226 q 514 -169 499 -169 q 531 -173 518 -169 q 561 -176 543 -176 q 617 -92 608 -176 l 699 694 q 767 729 703 729 l 782 729 q 842 694 846 729 l 758 -99 q 694 -249 747 -204 q 576 -294 642 -294 m 781 832 q 726 840 743 832 q 713 865 710 849 l 721 940 q 796 975 724 975 q 864 940 868 975 l 857 865 q 781 832 853 832 z "},"Ł":{"ha":567,"x_min":63,"x_max":521,"o":"m 490 128 q 514 116 507 128 q 518 78 521 104 l 514 50 q 503 12 513 24 q 478 0 494 0 l 103 0 q 72 10 81 0 q 65 46 63 21 l 160 940 q 224 975 164 975 l 254 975 q 313 940 315 975 l 276 600 q 281 596 281 596 q 275 588 281 590 l 226 128 l 490 128 m 281 594 l 281 596 l 281 597 l 281 594 m 136 514 l 136 515 l 136 515 l 136 514 z "},"M":{"ha":957,"x_min":54,"x_max":931,"o":"m 456 325 q 433 331 442 325 q 419 349 425 336 l 304 631 q 288 677 296 650 q 275 717 279 704 l 269 715 l 271 676 q 268 622 271 658 l 206 32 q 140 -3 201 -3 l 115 -3 q 58 32 54 -3 l 154 940 q 218 975 157 975 l 251 975 q 310 946 297 975 l 476 543 q 492 476 488 515 q 522 543 503 513 l 771 946 q 797 968 782 961 q 836 975 813 975 l 869 975 q 926 940 931 975 l 832 32 q 767 -3 828 -3 l 740 -3 q 685 32 681 -3 l 746 622 q 764 715 749 658 l 758 717 q 711 631 742 681 l 536 349 q 519 331 529 336 q 496 325 510 325 l 456 325 z "},"N":{"ha":819,"x_min":54,"x_max":790,"o":"m 115 -3 q 58 32 54 -3 l 154 940 q 218 975 157 975 l 251 975 q 288 968 274 975 q 308 944 301 961 l 546 358 q 576 265 563 315 l 583 268 q 581 321 581 286 q 582 364 581 350 l 644 940 q 708 975 647 975 l 729 975 q 788 940 790 975 l 692 32 q 626 -3 688 -3 l 601 -3 q 547 24 558 -3 l 297 629 q 271 718 283 665 l 264 714 q 267 664 267 697 q 265 622 267 636 l 201 32 q 136 -3 199 -3 l 115 -3 z "},"Ǌ":{"ha":1313,"x_min":58,"x_max":1261,"o":"m 115 -3 q 58 32 54 -3 l 154 940 q 218 975 157 975 l 251 975 q 288 968 274 975 q 308 944 301 961 l 546 358 q 576 265 563 315 l 583 268 q 581 321 581 286 q 582 364 581 350 l 644 940 q 708 975 647 975 l 729 975 q 788 940 790 975 l 692 32 q 626 -3 688 -3 l 601 -3 q 547 24 558 -3 l 297 629 q 271 718 283 665 l 264 714 q 267 664 267 697 q 265 622 267 636 l 201 32 q 136 -3 199 -3 l 115 -3 m 915 -10 q 825 4 867 -10 q 785 40 783 18 q 804 99 789 67 q 835 133 819 132 q 863 127 839 133 q 908 121 886 121 q 999 160 968 121 q 1039 283 1029 199 l 1108 940 q 1171 975 1111 975 l 1203 975 q 1261 940 1264 975 l 1192 283 q 1110 67 1178 144 q 915 -10 1042 -10 z "},"Ń":{"ha":819,"x_min":58,"x_max":788,"o":"m 115 -3 q 58 32 54 -3 l 154 940 q 218 975 157 975 l 251 975 q 288 968 274 975 q 308 944 301 961 l 546 358 q 576 265 563 315 l 583 268 q 581 321 581 286 q 582 364 581 350 l 644 940 q 708 975 647 975 l 729 975 q 788 940 790 975 l 692 32 q 626 -3 688 -3 l 601 -3 q 547 24 558 -3 l 297 629 q 271 718 283 665 l 264 714 q 267 664 267 697 q 265 622 267 636 l 201 32 q 136 -3 199 -3 l 115 -3 m 444 1054 q 419 1058 426 1054 q 411 1071 411 1061 q 422 1103 411 1079 q 454 1169 433 1128 l 482 1226 q 569 1264 501 1264 q 617 1260 603 1264 q 632 1244 632 1256 q 620 1218 632 1236 q 581 1164 608 1200 q 556 1132 571 1151 q 519 1082 542 1113 q 492 1061 510 1068 q 444 1054 475 1054 z "},"Ň":{"ha":819,"x_min":58,"x_max":788,"o":"m 115 -3 q 58 32 54 -3 l 154 940 q 218 975 157 975 l 251 975 q 288 968 274 975 q 308 944 301 961 l 546 358 q 576 265 563 315 l 583 268 q 581 321 581 286 q 582 364 581 350 l 644 940 q 708 975 647 975 l 729 975 q 788 940 790 975 l 692 32 q 626 -3 688 -3 l 601 -3 q 547 24 558 -3 l 297 629 q 271 718 283 665 l 264 714 q 267 664 267 697 q 265 622 267 636 l 201 32 q 136 -3 199 -3 l 115 -3 m 472 1051 q 411 1081 426 1051 l 349 1207 q 342 1232 342 1228 q 372 1250 344 1250 l 401 1250 q 444 1228 431 1250 l 489 1139 l 553 1228 q 601 1250 567 1250 l 632 1250 q 657 1231 660 1250 q 644 1207 657 1225 l 554 1081 q 528 1058 543 1064 q 489 1051 513 1051 l 472 1051 z "},"Ņ":{"ha":819,"x_min":58,"x_max":788,"o":"m 115 -3 q 58 32 54 -3 l 154 940 q 218 975 157 975 l 251 975 q 288 968 274 975 q 308 944 301 961 l 546 358 q 576 265 563 315 l 583 268 q 581 321 581 286 q 582 364 581 350 l 644 940 q 708 975 647 975 l 729 975 q 788 940 790 975 l 692 32 q 626 -3 688 -3 l 601 -3 q 547 24 558 -3 l 297 629 q 271 718 283 665 l 264 714 q 267 664 267 697 q 265 622 267 636 l 201 32 q 136 -3 199 -3 l 115 -3 m 315 -328 q 283 -322 297 -328 q 269 -304 269 -317 q 278 -267 269 -297 q 303 -119 303 -199 q 363 -71 303 -71 l 381 -71 q 420 -83 407 -71 q 433 -117 433 -96 q 413 -221 433 -172 q 363 -299 392 -269 q 315 -328 335 -328 z "},"Ṅ":{"ha":819,"x_min":58,"x_max":788,"o":"m 115 -3 q 58 32 54 -3 l 154 940 q 218 975 157 975 l 251 975 q 288 968 274 975 q 308 944 301 961 l 546 358 q 576 265 563 315 l 583 268 q 581 321 581 286 q 582 364 581 350 l 644 940 q 708 975 647 975 l 729 975 q 788 940 790 975 l 692 32 q 626 -3 688 -3 l 601 -3 q 547 24 558 -3 l 297 629 q 271 718 283 665 l 264 714 q 267 664 267 697 q 265 622 267 636 l 201 32 q 136 -3 199 -3 l 115 -3 m 482 1078 q 428 1086 444 1078 q 414 1111 411 1094 l 422 1186 q 497 1221 425 1221 q 565 1186 569 1221 l 558 1111 q 482 1078 554 1078 z "},"Ŋ":{"ha":819,"x_min":54,"x_max":790,"o":"m 729 975 q 788 940 790 975 l 679 -99 q 615 -249 668 -203 q 497 -294 563 -294 q 393 -244 388 -294 q 406 -198 394 -226 q 433 -169 418 -169 q 451 -173 439 -169 q 482 -176 464 -176 q 519 -158 504 -176 q 538 -92 533 -139 l 549 18 l 297 629 q 271 718 283 665 l 264 714 q 267 664 267 697 q 265 622 267 636 l 201 32 q 136 -3 199 -3 l 115 -3 q 58 32 54 -3 l 154 940 q 218 975 157 975 l 251 975 q 288 968 274 975 q 308 944 301 961 l 546 358 q 576 265 563 315 l 583 268 q 581 321 581 286 q 582 364 581 350 l 644 940 q 708 975 647 975 l 729 975 z "},"ǋ":{"ha":1165,"x_min":58,"x_max":1117,"o":"m 115 -3 q 58 32 54 -3 l 154 940 q 218 975 157 975 l 251 975 q 288 968 274 975 q 308 944 301 961 l 546 358 q 576 265 563 315 l 583 268 q 581 321 581 286 q 582 364 581 350 l 644 940 q 708 975 647 975 l 729 975 q 788 940 790 975 l 692 32 q 626 -3 688 -3 l 601 -3 q 547 24 558 -3 l 297 629 q 271 718 283 665 l 264 714 q 267 664 267 697 q 265 622 267 636 l 201 32 q 136 -3 199 -3 l 115 -3 m 829 -294 q 725 -244 719 -294 q 739 -198 726 -226 q 767 -169 751 -169 q 783 -173 771 -169 q 814 -176 796 -176 q 869 -92 861 -176 l 951 694 q 1019 729 956 729 l 1035 729 q 1094 694 1099 729 l 1011 -99 q 947 -249 1000 -204 q 829 -294 894 -294 m 1033 832 q 979 840 996 832 q 965 865 963 849 l 974 940 q 1049 975 976 975 q 1117 940 1121 975 l 1110 865 q 1033 832 1106 832 z "},"Ñ":{"ha":819,"x_min":58,"x_max":788,"o":"m 115 -3 q 58 32 54 -3 l 154 940 q 218 975 157 975 l 251 975 q 288 968 274 975 q 308 944 301 961 l 546 358 q 576 265 563 315 l 583 268 q 581 321 581 286 q 582 364 581 350 l 644 940 q 708 975 647 975 l 729 975 q 788 940 790 975 l 692 32 q 626 -3 688 -3 l 601 -3 q 547 24 558 -3 l 297 629 q 271 718 283 665 l 264 714 q 267 664 267 697 q 265 622 267 636 l 201 32 q 136 -3 199 -3 l 115 -3 m 282 1068 q 263 1090 263 1075 q 267 1110 263 1100 q 385 1206 303 1206 q 481 1178 417 1206 q 513 1165 486 1175 q 557 1154 539 1154 q 581 1161 571 1154 q 604 1186 592 1168 q 635 1208 618 1208 q 651 1204 642 1208 l 661 1200 q 678 1191 674 1196 q 683 1178 683 1186 q 678 1158 683 1172 q 560 1063 640 1063 q 517 1069 539 1063 q 463 1090 496 1076 q 421 1107 442 1100 q 385 1114 400 1114 q 363 1107 372 1114 q 340 1081 353 1100 q 311 1061 326 1061 q 296 1064 307 1061 l 282 1068 z "},"O":{"ha":832,"x_min":72,"x_max":788,"o":"m 378 -10 q 153 88 235 -10 q 72 379 72 186 q 78 488 72 436 q 205 861 104 740 q 481 982 306 982 q 706 885 625 982 q 788 596 788 789 q 782 488 788 539 q 378 -10 731 -10 m 392 118 q 549 206 490 118 q 628 488 607 294 q 635 601 635 557 q 593 793 635 733 q 469 853 551 853 q 311 767 369 853 q 233 488 253 681 q 226 369 226 415 q 267 178 226 239 q 392 118 308 118 z "},"Ó":{"ha":832,"x_min":72,"x_max":788,"o":"m 378 -10 q 153 88 235 -10 q 72 379 72 186 q 78 488 72 436 q 205 861 104 740 q 481 982 306 982 q 706 885 625 982 q 788 596 788 789 q 782 488 788 539 q 378 -10 731 -10 m 392 118 q 549 206 490 118 q 628 488 607 294 q 635 601 635 557 q 593 793 635 733 q 469 853 551 853 q 311 767 369 853 q 233 488 253 681 q 226 369 226 415 q 267 178 226 239 q 392 118 308 118 m 456 1054 q 430 1058 438 1054 q 422 1071 422 1061 q 433 1103 422 1079 q 465 1169 444 1128 l 493 1226 q 581 1264 513 1264 q 628 1260 614 1264 q 643 1244 643 1256 q 631 1218 643 1236 q 592 1164 619 1200 q 567 1132 582 1151 q 531 1082 553 1113 q 503 1061 521 1068 q 456 1054 486 1054 z "},"Ŏ":{"ha":832,"x_min":72,"x_max":788,"o":"m 378 -10 q 153 88 235 -10 q 72 379 72 186 q 78 488 72 436 q 205 861 104 740 q 481 982 306 982 q 706 885 625 982 q 788 596 788 789 q 782 488 788 539 q 378 -10 731 -10 m 392 118 q 549 206 490 118 q 628 488 607 294 q 635 601 635 557 q 593 793 635 733 q 469 853 551 853 q 311 767 369 853 q 233 488 253 681 q 226 369 226 415 q 267 178 226 239 q 392 118 308 118 m 492 1054 q 381 1092 424 1054 q 339 1192 339 1129 l 340 1210 q 378 1239 344 1239 q 397 1232 392 1239 q 407 1207 403 1225 q 438 1169 415 1182 q 504 1156 461 1156 q 611 1208 583 1156 q 626 1233 619 1226 q 646 1239 632 1239 q 675 1210 679 1239 q 617 1097 668 1139 q 492 1054 567 1054 z "},"Ô":{"ha":832,"x_min":72,"x_max":788,"o":"m 378 -10 q 153 88 235 -10 q 72 379 72 186 q 78 488 72 436 q 205 861 104 740 q 481 982 306 982 q 706 885 625 982 q 788 596 788 789 q 782 488 788 539 q 378 -10 731 -10 m 392 118 q 549 206 490 118 q 628 488 607 294 q 635 601 635 557 q 593 793 635 733 q 469 853 551 853 q 311 767 369 853 q 233 488 253 681 q 226 369 226 415 q 267 178 226 239 q 392 118 308 118 m 358 1044 q 332 1061 332 1044 q 338 1075 335 1068 q 344 1086 342 1082 l 433 1214 q 501 1243 454 1243 l 517 1243 q 554 1236 540 1243 q 578 1214 568 1229 l 640 1086 q 647 1063 647 1072 q 618 1044 644 1044 l 588 1044 q 544 1065 556 1044 l 499 1156 l 436 1065 q 388 1044 418 1044 l 358 1044 z "},"Ố":{"ha":832,"x_min":72,"x_max":794,"o":"m 640 1181 q 608 1197 608 1181 q 617 1228 608 1206 q 644 1292 626 1251 l 664 1336 q 747 1372 683 1372 q 783 1367 772 1372 q 794 1350 794 1363 q 778 1317 794 1342 q 725 1242 761 1292 l 697 1204 q 674 1187 686 1193 q 640 1181 661 1181 m 368 1044 q 342 1061 342 1044 q 347 1074 343 1068 q 351 1086 350 1081 l 436 1214 q 503 1243 454 1243 l 519 1243 q 557 1237 543 1243 q 579 1214 571 1231 l 635 1086 q 642 1063 642 1072 q 633 1049 640 1054 q 613 1044 625 1044 l 582 1044 q 538 1064 547 1044 l 500 1156 l 446 1065 q 426 1049 438 1053 q 397 1044 414 1044 l 368 1044 m 378 -10 q 153 88 235 -10 q 72 379 72 186 q 78 488 72 436 q 205 861 104 740 q 481 982 306 982 q 706 885 625 982 q 788 596 788 789 q 782 488 788 539 q 378 -10 731 -10 m 392 118 q 549 206 490 118 q 628 488 607 294 q 635 601 635 557 q 593 793 635 733 q 469 853 551 853 q 311 767 369 853 q 233 488 253 681 q 226 369 226 415 q 267 178 226 239 q 392 118 308 118 z "},"Ộ":{"ha":832,"x_min":72,"x_max":788,"o":"m 378 -10 q 153 88 235 -10 q 72 379 72 186 q 78 488 72 436 q 205 861 104 740 q 481 982 306 982 q 706 885 625 982 q 788 596 788 789 q 782 488 788 539 q 378 -10 731 -10 m 392 118 q 549 206 490 118 q 628 488 607 294 q 635 601 635 557 q 593 793 635 733 q 469 853 551 853 q 311 767 369 853 q 233 488 253 681 q 226 369 226 415 q 267 178 226 239 q 392 118 308 118 m 354 -254 q 300 -246 317 -254 q 286 -221 283 -237 l 294 -146 q 369 -111 297 -111 q 438 -146 442 -111 l 431 -221 q 354 -254 426 -254 m 358 1044 q 332 1061 332 1044 q 338 1075 335 1068 q 344 1086 342 1082 l 433 1214 q 501 1243 454 1243 l 517 1243 q 554 1236 540 1243 q 578 1214 568 1229 l 640 1086 q 647 1063 647 1072 q 618 1044 644 1044 l 588 1044 q 544 1065 556 1044 l 499 1156 l 436 1065 q 388 1044 418 1044 l 358 1044 z "},"Ồ":{"ha":832,"x_min":72,"x_max":788,"o":"m 693 1181 q 635 1207 654 1181 l 594 1265 q 554 1324 567 1304 q 542 1351 542 1343 q 553 1367 542 1363 q 592 1372 564 1372 q 675 1336 658 1372 q 713 1240 700 1274 q 726 1197 726 1206 q 693 1181 726 1181 m 368 1044 q 342 1061 342 1044 q 347 1074 343 1068 q 351 1086 350 1081 l 436 1214 q 503 1243 454 1243 l 519 1243 q 557 1237 543 1243 q 579 1214 571 1231 l 635 1086 q 642 1063 642 1072 q 633 1049 640 1054 q 613 1044 625 1044 l 582 1044 q 538 1064 547 1044 l 500 1156 l 446 1065 q 426 1049 438 1053 q 397 1044 414 1044 l 368 1044 m 378 -10 q 153 88 235 -10 q 72 379 72 186 q 78 488 72 436 q 205 861 104 740 q 481 982 306 982 q 706 885 625 982 q 788 596 788 789 q 782 488 788 539 q 378 -10 731 -10 m 392 118 q 549 206 490 118 q 628 488 607 294 q 635 601 635 557 q 593 793 635 733 q 469 853 551 853 q 311 767 369 853 q 233 488 253 681 q 226 369 226 415 q 267 178 226 239 q 392 118 308 118 z "},"Ổ":{"ha":832,"x_min":72,"x_max":788,"o":"m 661 1190 q 622 1199 638 1190 q 607 1219 607 1208 q 616 1233 607 1226 q 639 1247 625 1240 q 682 1294 682 1269 q 669 1319 682 1310 q 638 1328 657 1328 q 590 1318 607 1328 q 571 1308 574 1308 q 549 1327 563 1308 q 535 1358 535 1346 q 571 1385 535 1372 q 644 1397 607 1397 q 730 1374 693 1397 q 767 1304 767 1350 q 721 1221 767 1260 q 688 1200 706 1210 q 661 1190 669 1190 m 368 1044 q 342 1061 342 1044 q 347 1074 343 1068 q 351 1086 350 1081 l 436 1214 q 503 1243 454 1243 l 519 1243 q 557 1237 543 1243 q 579 1214 571 1231 l 635 1086 q 642 1063 642 1072 q 633 1049 640 1054 q 613 1044 625 1044 l 582 1044 q 538 1064 547 1044 l 500 1156 l 446 1065 q 426 1049 438 1053 q 397 1044 414 1044 l 368 1044 m 378 -10 q 153 88 235 -10 q 72 379 72 186 q 78 488 72 436 q 205 861 104 740 q 481 982 306 982 q 706 885 625 982 q 788 596 788 789 q 782 488 788 539 q 378 -10 731 -10 m 392 118 q 549 206 490 118 q 628 488 607 294 q 635 601 635 557 q 593 793 635 733 q 469 853 551 853 q 311 767 369 853 q 233 488 253 681 q 226 369 226 415 q 267 178 226 239 q 392 118 308 118 z "},"Ỗ":{"ha":832,"x_min":72,"x_max":788,"o":"m 336 1228 q 319 1250 319 1235 q 324 1269 319 1260 q 431 1365 356 1365 q 469 1358 449 1365 q 518 1338 490 1351 q 556 1321 538 1328 q 588 1314 575 1314 q 610 1321 600 1314 q 631 1346 619 1328 q 658 1368 643 1368 q 672 1364 664 1368 l 683 1360 q 697 1351 693 1356 q 701 1338 701 1346 q 697 1318 701 1329 q 590 1222 663 1222 q 501 1250 560 1222 q 431 1274 451 1274 q 390 1240 408 1274 q 364 1221 376 1221 q 350 1224 361 1221 l 336 1228 m 368 1044 q 343 1063 342 1044 q 356 1089 343 1069 l 432 1183 q 460 1206 444 1199 q 500 1213 476 1213 l 517 1213 q 578 1183 560 1213 l 633 1089 q 642 1063 642 1067 q 633 1049 640 1054 q 613 1044 625 1044 l 582 1044 q 538 1064 553 1044 l 500 1138 l 446 1065 q 425 1049 436 1054 q 397 1044 414 1044 l 368 1044 m 378 -10 q 153 88 235 -10 q 72 379 72 186 q 78 488 72 436 q 205 861 104 740 q 481 982 306 982 q 706 885 625 982 q 788 596 788 789 q 782 488 788 539 q 378 -10 731 -10 m 392 118 q 549 206 490 118 q 628 488 607 294 q 635 601 635 557 q 593 793 635 733 q 469 853 551 853 q 311 767 369 853 q 233 488 253 681 q 226 369 226 415 q 267 178 226 239 q 392 118 308 118 z "},"Ö":{"ha":832,"x_min":72,"x_max":788,"o":"m 378 -10 q 153 88 235 -10 q 72 379 72 186 q 78 488 72 436 q 205 861 104 740 q 481 982 306 982 q 706 885 625 982 q 788 596 788 789 q 782 488 788 539 q 378 -10 731 -10 m 392 118 q 549 206 490 118 q 628 488 607 294 q 635 601 635 557 q 593 793 635 733 q 469 853 551 853 q 311 767 369 853 q 233 488 253 681 q 226 369 226 415 q 267 178 226 239 q 392 118 308 118 m 397 1078 q 352 1086 365 1078 q 342 1111 339 1094 l 349 1186 q 414 1221 353 1221 q 472 1186 475 1221 l 464 1111 q 397 1078 460 1078 m 588 1078 q 531 1111 526 1078 l 539 1186 q 604 1221 542 1221 q 661 1186 664 1221 l 654 1111 q 588 1078 650 1078 z "},"Ọ":{"ha":832,"x_min":72,"x_max":788,"o":"m 378 -10 q 153 88 235 -10 q 72 379 72 186 q 78 488 72 436 q 205 861 104 740 q 481 982 306 982 q 706 885 625 982 q 788 596 788 789 q 782 488 788 539 q 378 -10 731 -10 m 392 118 q 549 206 490 118 q 628 488 607 294 q 635 601 635 557 q 593 793 635 733 q 469 853 551 853 q 311 767 369 853 q 233 488 253 681 q 226 369 226 415 q 267 178 226 239 q 392 118 308 118 m 354 -254 q 300 -246 317 -254 q 286 -221 283 -237 l 294 -146 q 369 -111 297 -111 q 438 -146 442 -111 l 431 -221 q 354 -254 426 -254 z "},"Ò":{"ha":832,"x_min":72,"x_max":788,"o":"m 378 -10 q 153 88 235 -10 q 72 379 72 186 q 78 488 72 436 q 205 861 104 740 q 481 982 306 982 q 706 885 625 982 q 788 596 788 789 q 782 488 788 539 q 378 -10 731 -10 m 392 118 q 549 206 490 118 q 628 488 607 294 q 635 601 635 557 q 593 793 635 733 q 469 853 551 853 q 311 767 369 853 q 233 488 253 681 q 226 369 226 415 q 267 178 226 239 q 392 118 308 118 m 513 1054 q 438 1082 456 1054 l 393 1140 q 335 1219 346 1203 q 324 1244 324 1235 q 339 1260 324 1256 q 388 1264 354 1264 q 475 1226 457 1264 q 526 1119 508 1157 q 544 1071 544 1081 q 538 1058 544 1061 q 513 1054 531 1054 z "},"Ỏ":{"ha":832,"x_min":72,"x_max":788,"o":"m 378 -10 q 153 88 235 -10 q 72 379 72 186 q 78 488 72 436 q 205 861 104 740 q 481 982 306 982 q 706 885 625 982 q 788 596 788 789 q 782 488 788 539 q 378 -10 731 -10 m 392 118 q 549 206 490 118 q 628 488 607 294 q 635 601 635 557 q 593 793 635 733 q 469 853 551 853 q 311 767 369 853 q 233 488 253 681 q 226 369 226 415 q 267 178 226 239 q 392 118 308 118 m 499 1031 q 464 1040 483 1031 q 444 1057 444 1049 q 452 1075 444 1067 q 479 1100 460 1083 q 518 1137 504 1119 q 532 1178 532 1154 q 518 1203 532 1194 q 483 1213 504 1213 q 440 1204 456 1213 q 421 1196 424 1196 q 399 1215 413 1196 q 385 1244 385 1233 q 422 1273 385 1258 q 494 1288 458 1288 q 589 1263 549 1288 q 629 1186 629 1238 q 603 1112 629 1147 q 544 1053 576 1076 q 499 1031 511 1031 z "},"Ơ":{"ha":832,"x_min":72,"x_max":861,"o":"m 861 988 q 827 897 861 931 q 725 860 793 863 q 788 597 788 763 q 782 488 788 539 q 378 -10 731 -10 q 153 88 235 -10 q 72 379 72 186 q 78 488 72 436 q 479 982 129 982 q 577 968 535 982 q 658 929 619 954 q 719 908 693 908 q 756 921 742 908 q 769 956 769 933 q 763 985 769 972 q 744 1015 756 999 q 732 1039 732 1032 q 744 1063 732 1054 l 782 1088 q 800 1093 789 1093 q 842 1057 824 1093 q 861 988 861 1021 m 628 488 q 635 601 635 557 q 593 793 635 733 q 469 853 551 853 q 311 767 369 853 q 233 488 253 681 q 226 369 226 415 q 267 178 226 239 q 392 118 308 118 q 549 206 490 118 q 628 488 607 294 z "},"Ớ":{"ha":832,"x_min":72,"x_max":861,"o":"m 861 988 q 827 897 861 931 q 725 860 793 863 q 788 597 788 763 q 782 488 788 539 q 378 -10 731 -10 q 153 88 235 -10 q 72 379 72 186 q 78 488 72 436 q 479 982 129 982 q 577 968 535 982 q 658 929 619 954 q 719 908 693 908 q 756 921 742 908 q 769 956 769 933 q 763 985 769 972 q 744 1015 756 999 q 732 1039 732 1032 q 744 1063 732 1054 l 782 1088 q 800 1093 789 1093 q 842 1057 824 1093 q 861 988 861 1021 m 628 488 q 635 601 635 557 q 593 793 635 733 q 469 853 551 853 q 311 767 369 853 q 233 488 253 681 q 226 369 226 415 q 267 178 226 239 q 392 118 308 118 q 549 206 490 118 q 628 488 607 294 m 467 1054 q 441 1058 449 1054 q 433 1071 433 1061 q 444 1103 433 1079 q 476 1169 456 1128 l 504 1226 q 592 1264 524 1264 q 640 1260 625 1264 q 654 1244 654 1256 q 642 1218 654 1236 q 603 1164 631 1200 q 578 1132 593 1151 q 542 1082 564 1113 q 515 1061 532 1068 q 467 1054 497 1054 z "},"Ợ":{"ha":832,"x_min":72,"x_max":861,"o":"m 861 988 q 827 897 861 931 q 725 860 793 863 q 788 597 788 763 q 782 488 788 539 q 378 -10 731 -10 q 153 88 235 -10 q 72 379 72 186 q 78 488 72 436 q 479 982 129 982 q 577 968 535 982 q 658 929 619 954 q 719 908 693 908 q 756 921 742 908 q 769 956 769 933 q 763 985 769 972 q 744 1015 756 999 q 732 1039 732 1032 q 744 1063 732 1054 l 782 1088 q 800 1093 789 1093 q 842 1057 824 1093 q 861 988 861 1021 m 628 488 q 635 601 635 557 q 593 793 635 733 q 469 853 551 853 q 311 767 369 853 q 233 488 253 681 q 226 369 226 415 q 267 178 226 239 q 392 118 308 118 q 549 206 490 118 q 628 488 607 294 m 354 -254 q 300 -246 317 -254 q 286 -221 283 -237 l 294 -146 q 369 -111 297 -111 q 438 -146 442 -111 l 431 -221 q 354 -254 426 -254 z "},"Ờ":{"ha":832,"x_min":72,"x_max":861,"o":"m 861 988 q 827 897 861 931 q 725 860 793 863 q 788 597 788 763 q 782 488 788 539 q 378 -10 731 -10 q 153 88 235 -10 q 72 379 72 186 q 78 488 72 436 q 479 982 129 982 q 577 968 535 982 q 658 929 619 954 q 719 908 693 908 q 756 921 742 908 q 769 956 769 933 q 763 985 769 972 q 744 1015 756 999 q 732 1039 732 1032 q 744 1063 732 1054 l 782 1088 q 800 1093 789 1093 q 842 1057 824 1093 q 861 988 861 1021 m 628 488 q 635 601 635 557 q 593 793 635 733 q 469 853 551 853 q 311 767 369 853 q 233 488 253 681 q 226 369 226 415 q 267 178 226 239 q 392 118 308 118 q 549 206 490 118 q 628 488 607 294 m 513 1054 q 438 1082 456 1054 l 393 1140 q 335 1219 346 1203 q 324 1244 324 1235 q 339 1260 324 1256 q 388 1264 354 1264 q 475 1226 457 1264 q 526 1119 508 1157 q 544 1071 544 1081 q 538 1058 544 1061 q 513 1054 531 1054 z "},"Ở":{"ha":832,"x_min":72,"x_max":861,"o":"m 861 988 q 827 897 861 931 q 725 860 793 863 q 788 597 788 763 q 782 488 788 539 q 378 -10 731 -10 q 153 88 235 -10 q 72 379 72 186 q 78 488 72 436 q 479 982 129 982 q 577 968 535 982 q 658 929 619 954 q 719 908 693 908 q 756 921 742 908 q 769 956 769 933 q 763 985 769 972 q 744 1015 756 999 q 732 1039 732 1032 q 744 1063 732 1054 l 782 1088 q 800 1093 789 1093 q 842 1057 824 1093 q 861 988 861 1021 m 628 488 q 635 601 635 557 q 593 793 635 733 q 469 853 551 853 q 311 767 369 853 q 233 488 253 681 q 226 369 226 415 q 267 178 226 239 q 392 118 308 118 q 549 206 490 118 q 628 488 607 294 m 499 1031 q 464 1040 483 1031 q 444 1057 444 1049 q 452 1075 444 1067 q 479 1100 460 1083 q 518 1137 504 1119 q 532 1178 532 1154 q 518 1203 532 1194 q 483 1213 504 1213 q 440 1204 456 1213 q 421 1196 424 1196 q 399 1215 413 1196 q 385 1244 385 1233 q 422 1273 385 1258 q 494 1288 458 1288 q 589 1263 549 1288 q 629 1186 629 1238 q 603 1112 629 1147 q 544 1053 576 1076 q 499 1031 511 1031 z "},"Ỡ":{"ha":832,"x_min":72,"x_max":861,"o":"m 313 1068 q 294 1090 294 1075 q 299 1110 294 1100 q 404 1206 331 1206 q 490 1178 432 1206 q 519 1165 494 1176 q 560 1154 543 1154 q 601 1186 583 1154 q 629 1208 615 1208 q 644 1204 636 1208 l 653 1200 q 669 1191 664 1196 q 674 1178 674 1186 q 668 1158 674 1172 q 563 1063 635 1063 q 475 1090 533 1063 q 404 1114 425 1114 q 384 1107 393 1114 q 364 1081 375 1100 q 339 1061 353 1061 q 325 1064 333 1061 l 313 1068 m 861 988 q 827 897 861 931 q 725 860 793 863 q 788 597 788 763 q 782 488 788 539 q 378 -10 731 -10 q 153 88 235 -10 q 72 379 72 186 q 78 488 72 436 q 479 982 129 982 q 577 968 535 982 q 658 929 619 954 q 719 908 693 908 q 756 921 742 908 q 769 956 769 933 q 763 985 769 972 q 744 1015 756 999 q 732 1039 732 1032 q 744 1063 732 1054 l 782 1088 q 800 1093 789 1093 q 842 1057 824 1093 q 861 988 861 1021 m 628 488 q 635 601 635 557 q 593 793 635 733 q 469 853 551 853 q 311 767 369 853 q 233 488 253 681 q 226 369 226 415 q 267 178 226 239 q 392 118 308 118 q 549 206 490 118 q 628 488 607 294 z "},"Ő":{"ha":832,"x_min":72,"x_max":788,"o":"m 378 -10 q 153 88 235 -10 q 72 379 72 186 q 78 488 72 436 q 205 861 104 740 q 481 982 306 982 q 706 885 625 982 q 788 596 788 789 q 782 488 788 539 q 378 -10 731 -10 m 392 118 q 549 206 490 118 q 628 488 607 294 q 635 601 635 557 q 593 793 635 733 q 469 853 551 853 q 311 767 369 853 q 233 488 253 681 q 226 369 226 415 q 267 178 226 239 q 392 118 308 118 m 375 1054 q 349 1058 357 1054 q 342 1071 342 1061 q 348 1091 342 1076 q 365 1128 354 1106 l 413 1226 q 500 1264 429 1264 q 548 1260 533 1264 q 563 1244 563 1256 q 551 1217 563 1236 q 510 1161 539 1199 q 482 1124 496 1144 q 451 1082 468 1104 q 375 1054 431 1054 m 567 1054 q 542 1058 549 1054 q 535 1071 535 1061 q 541 1091 535 1076 q 558 1128 547 1106 l 606 1226 q 693 1264 622 1264 q 741 1260 726 1264 q 756 1244 756 1256 q 739 1210 756 1233 q 643 1082 722 1186 q 616 1061 633 1068 q 567 1054 599 1054 z "},"Ō":{"ha":832,"x_min":72,"x_max":788,"o":"m 378 -10 q 153 88 235 -10 q 72 379 72 186 q 78 488 72 436 q 205 861 104 740 q 481 982 306 982 q 706 885 625 982 q 788 596 788 789 q 782 488 788 539 q 378 -10 731 -10 m 392 118 q 549 206 490 118 q 628 488 607 294 q 635 601 635 557 q 593 793 635 733 q 469 853 551 853 q 311 767 369 853 q 233 488 253 681 q 226 369 226 415 q 267 178 226 239 q 392 118 308 118 m 358 1090 q 332 1136 328 1090 l 333 1151 q 344 1186 336 1175 q 368 1197 353 1197 l 642 1197 q 665 1186 658 1197 q 668 1151 671 1175 l 665 1136 q 655 1101 663 1113 q 631 1090 647 1090 l 358 1090 z "},"Ǫ":{"ha":832,"x_min":72,"x_max":788,"o":"m 481 982 q 706 885 625 982 q 788 596 788 789 q 782 488 788 539 q 486 4 739 72 q 458 -99 458 -51 q 478 -146 458 -133 q 526 -158 497 -158 q 555 -154 538 -158 q 576 -150 572 -150 q 608 -186 608 -150 q 589 -225 608 -212 q 500 -249 551 -249 q 397 -208 424 -249 q 371 -124 371 -168 q 400 -10 371 -67 l 378 -10 q 153 88 235 -10 q 72 379 72 186 q 78 488 72 436 q 205 861 104 740 q 481 982 306 982 m 628 488 q 635 601 635 557 q 593 793 635 733 q 469 853 551 853 q 311 767 369 853 q 233 488 253 681 q 226 369 226 415 q 267 178 226 239 q 392 118 308 118 q 549 206 490 118 q 628 488 607 294 z "},"Ø":{"ha":832,"x_min":72,"x_max":788,"o":"m 711 879 q 788 597 788 779 q 782 488 788 539 q 378 -10 731 -10 q 190 51 264 -10 l 153 -8 q 129 -26 144 -26 q 101 -15 117 -26 q 86 8 86 -4 q 93 29 86 21 l 140 104 q 72 378 72 201 q 78 488 72 436 q 205 861 104 740 q 481 982 306 982 q 658 931 586 982 l 692 983 q 715 1000 703 1000 q 744 989 729 1000 q 760 965 760 978 q 753 946 760 957 l 711 879 m 233 488 q 226 369 226 414 q 236 258 226 314 l 582 808 q 469 853 542 853 q 311 767 369 853 q 233 488 253 681 m 628 488 q 635 603 635 560 q 619 733 635 679 l 269 176 q 392 118 310 118 q 549 206 490 118 q 628 488 607 294 z "},"Ǿ":{"ha":832,"x_min":72,"x_max":788,"o":"m 711 879 q 788 597 788 779 q 782 488 788 539 q 378 -10 731 -10 q 190 51 264 -10 l 153 -8 q 129 -26 144 -26 q 101 -15 117 -26 q 86 8 86 -4 q 93 29 86 21 l 140 104 q 72 378 72 201 q 78 488 72 436 q 205 861 104 740 q 481 982 306 982 q 658 931 586 982 l 692 983 q 715 1000 703 1000 q 744 989 729 1000 q 760 965 760 978 q 753 946 760 957 l 711 879 m 233 488 q 226 369 226 414 q 236 258 226 314 l 582 808 q 469 853 542 853 q 311 767 369 853 q 233 488 253 681 m 628 488 q 635 603 635 560 q 619 733 635 679 l 269 176 q 392 118 310 118 q 549 206 490 118 q 628 488 607 294 m 450 1054 q 424 1058 432 1054 q 417 1071 417 1061 q 428 1103 417 1079 q 460 1169 439 1128 l 488 1226 q 575 1264 507 1264 q 623 1260 608 1264 q 638 1244 638 1256 q 626 1218 638 1236 q 586 1164 614 1200 q 562 1132 576 1151 q 525 1082 547 1113 q 498 1061 515 1068 q 450 1054 481 1054 z "},"Õ":{"ha":832,"x_min":72,"x_max":788,"o":"m 378 -10 q 153 88 235 -10 q 72 379 72 186 q 78 488 72 436 q 205 861 104 740 q 481 982 306 982 q 706 885 625 982 q 788 596 788 789 q 782 488 788 539 q 378 -10 731 -10 m 392 118 q 549 206 490 118 q 628 488 607 294 q 635 601 635 557 q 593 793 635 733 q 469 853 551 853 q 311 767 369 853 q 233 488 253 681 q 226 369 226 415 q 267 178 226 239 q 392 118 308 118 m 293 1068 q 274 1090 274 1075 q 278 1110 274 1100 q 396 1206 314 1206 q 492 1178 428 1206 q 524 1165 497 1175 q 568 1154 550 1154 q 592 1161 582 1154 q 615 1186 603 1168 q 646 1208 629 1208 q 663 1204 653 1208 l 672 1200 q 690 1191 685 1196 q 694 1178 694 1186 q 689 1158 694 1172 q 571 1063 651 1063 q 528 1069 550 1063 q 474 1090 507 1076 q 432 1107 453 1100 q 396 1114 411 1114 q 374 1107 383 1114 q 351 1081 364 1100 q 322 1061 338 1061 q 307 1064 318 1061 l 293 1068 z "},"Œ":{"ha":1143,"x_min":72,"x_max":1153,"o":"m 1122 972 q 1149 922 1153 972 l 1144 894 q 1134 856 1143 868 q 1108 844 1125 844 l 810 844 l 781 561 l 1049 561 q 1075 526 1075 561 q 1074 511 1075 517 l 1071 483 q 1035 433 1067 433 l 767 433 l 735 128 l 1033 128 q 1060 94 1060 128 q 1058 78 1060 85 l 1056 50 q 1021 0 1051 0 l 611 0 q 580 10 589 0 q 574 46 571 21 l 576 67 q 368 -10 488 -10 q 151 88 231 -10 q 72 378 72 186 q 78 488 72 436 q 469 982 131 982 q 664 894 599 982 l 667 926 q 681 962 669 951 q 714 972 692 972 l 1122 972 m 628 488 q 635 601 635 557 q 593 793 635 733 q 469 853 551 853 q 311 767 369 853 q 233 488 253 681 q 226 369 226 415 q 267 178 226 239 q 392 118 308 118 q 549 206 490 118 q 628 488 607 294 z "},"P":{"ha":669,"x_min":64,"x_max":674,"o":"m 125 -3 q 67 32 64 -3 l 161 926 q 175 961 164 950 q 208 972 186 972 l 442 972 q 603 923 533 972 q 674 742 674 874 q 671 690 674 726 q 607 509 658 574 q 497 422 556 444 q 393 400 438 400 l 257 400 l 218 32 q 153 -3 214 -3 l 125 -3 m 394 526 q 473 563 436 526 q 519 690 510 599 q 521 724 521 703 q 492 817 521 790 q 421 844 463 844 l 303 844 l 269 526 l 394 526 z "},"Þ":{"ha":669,"x_min":56,"x_max":650,"o":"m 117 -3 q 60 32 56 -3 l 154 940 q 219 975 158 975 l 249 975 q 307 940 310 975 l 293 808 l 415 808 q 579 760 508 808 q 650 578 650 711 q 647 528 650 564 q 583 346 635 411 q 472 258 531 281 q 368 236 413 236 l 232 236 l 211 32 q 146 -3 207 -3 l 117 -3 m 369 363 q 447 399 410 363 q 494 528 485 436 q 496 560 496 539 q 467 653 496 626 q 394 681 438 681 l 279 681 l 246 363 l 369 363 z "},"Q":{"ha":832,"x_min":69,"x_max":786,"o":"m 679 -231 q 484 -130 665 -231 q 226 19 303 -29 q 109 153 149 68 q 69 369 69 239 q 76 486 69 417 q 200 862 103 742 q 479 982 297 982 q 707 886 628 982 q 786 597 786 790 q 781 486 786 540 q 499 17 736 97 l 497 13 l 751 -104 q 765 -126 767 -112 q 748 -163 763 -137 q 714 -210 733 -189 q 679 -231 694 -231 m 390 117 q 547 206 488 117 q 626 486 606 294 q 632 599 632 542 q 591 792 632 731 q 468 853 550 853 q 310 765 368 853 q 232 486 251 678 q 225 365 225 431 q 267 176 225 236 q 390 117 308 117 z "},"R":{"ha":713,"x_min":58,"x_max":667,"o":"m 119 -3 q 61 32 58 -3 l 157 926 q 171 961 160 950 q 204 972 182 972 l 417 972 q 603 924 540 972 q 667 767 667 875 q 664 718 667 751 q 511 483 647 551 l 510 478 q 556 422 538 463 q 588 314 574 381 l 644 43 q 647 24 647 35 q 582 -3 644 -3 l 550 -3 q 510 4 526 -3 q 493 24 494 11 l 440 294 q 401 383 425 360 q 324 407 378 407 l 253 407 l 213 32 q 147 -3 210 -3 l 119 -3 m 388 540 q 449 565 419 540 q 495 633 478 590 q 513 728 513 676 q 413 844 513 844 l 297 844 l 265 540 l 388 540 z "},"Ŕ":{"ha":713,"x_min":61,"x_max":667,"o":"m 119 -3 q 61 32 58 -3 l 157 926 q 171 961 160 950 q 204 972 182 972 l 417 972 q 603 924 540 972 q 667 767 667 875 q 664 718 667 751 q 511 483 647 551 l 510 478 q 556 422 538 463 q 588 314 574 381 l 644 43 q 647 24 647 35 q 582 -3 644 -3 l 550 -3 q 510 4 526 -3 q 493 24 494 11 l 440 294 q 401 383 425 360 q 324 407 378 407 l 253 407 l 213 32 q 147 -3 210 -3 l 119 -3 m 388 540 q 449 565 419 540 q 495 633 478 590 q 513 728 513 676 q 413 844 513 844 l 297 844 l 265 540 l 388 540 m 389 1054 q 363 1058 371 1054 q 356 1071 356 1061 q 367 1103 356 1079 q 399 1169 378 1128 l 426 1226 q 514 1264 446 1264 q 562 1260 547 1264 q 576 1244 576 1256 q 565 1218 576 1236 q 525 1164 553 1200 q 501 1132 515 1151 q 464 1082 486 1113 q 437 1061 454 1068 q 389 1054 419 1054 z "},"Ř":{"ha":713,"x_min":61,"x_max":667,"o":"m 119 -3 q 61 32 58 -3 l 157 926 q 171 961 160 950 q 204 972 182 972 l 417 972 q 603 924 540 972 q 667 767 667 875 q 664 718 667 751 q 511 483 647 551 l 510 478 q 556 422 538 463 q 588 314 574 381 l 644 43 q 647 24 647 35 q 582 -3 644 -3 l 550 -3 q 510 4 526 -3 q 493 24 494 11 l 440 294 q 401 383 425 360 q 324 407 378 407 l 253 407 l 213 32 q 147 -3 210 -3 l 119 -3 m 388 540 q 449 565 419 540 q 495 633 478 590 q 513 728 513 676 q 413 844 513 844 l 297 844 l 265 540 l 388 540 m 417 1051 q 356 1081 371 1051 l 293 1207 q 286 1232 286 1228 q 317 1250 289 1250 l 346 1250 q 389 1228 375 1250 l 433 1139 l 497 1228 q 546 1250 511 1250 l 576 1250 q 601 1231 604 1250 q 589 1207 601 1225 l 499 1081 q 472 1058 488 1064 q 433 1051 457 1051 l 417 1051 z "},"Ŗ":{"ha":713,"x_min":61,"x_max":667,"o":"m 119 -3 q 61 32 58 -3 l 157 926 q 171 961 160 950 q 204 972 182 972 l 417 972 q 603 924 540 972 q 667 767 667 875 q 664 718 667 751 q 511 483 647 551 l 510 478 q 556 422 538 463 q 588 314 574 381 l 644 43 q 647 24 647 35 q 582 -3 644 -3 l 550 -3 q 510 4 526 -3 q 493 24 494 11 l 440 294 q 401 383 425 360 q 324 407 378 407 l 253 407 l 213 32 q 147 -3 210 -3 l 119 -3 m 388 540 q 449 565 419 540 q 495 633 478 590 q 513 728 513 676 q 413 844 513 844 l 297 844 l 265 540 l 388 540 m 263 -328 q 231 -322 244 -328 q 217 -304 217 -317 q 225 -267 217 -297 q 250 -119 250 -199 q 310 -71 250 -71 l 328 -71 q 367 -83 354 -71 q 381 -117 381 -96 q 360 -221 381 -172 q 310 -299 339 -269 q 263 -328 282 -328 z "},"Ṛ":{"ha":713,"x_min":61,"x_max":667,"o":"m 119 -3 q 61 32 58 -3 l 157 926 q 171 961 160 950 q 204 972 182 972 l 417 972 q 603 924 540 972 q 667 767 667 875 q 664 718 667 751 q 511 483 647 551 l 510 478 q 556 422 538 463 q 588 314 574 381 l 644 43 q 647 24 647 35 q 582 -3 644 -3 l 550 -3 q 510 4 526 -3 q 493 24 494 11 l 440 294 q 401 383 425 360 q 324 407 378 407 l 253 407 l 213 32 q 147 -3 210 -3 l 119 -3 m 388 540 q 449 565 419 540 q 495 633 478 590 q 513 728 513 676 q 413 844 513 844 l 297 844 l 265 540 l 388 540 m 292 -254 q 238 -246 254 -254 q 224 -221 221 -237 l 232 -146 q 307 -111 235 -111 q 375 -146 379 -111 l 368 -221 q 292 -254 364 -254 z "},"S":{"ha":607,"x_min":11,"x_max":588,"o":"m 250 -8 q 136 3 186 -8 q 46 42 86 14 q 20 60 29 50 q 11 86 11 69 q 24 147 11 115 q 54 179 38 179 q 74 171 63 179 q 244 122 144 122 q 360 158 315 122 q 404 268 404 193 q 372 359 404 322 q 278 432 339 396 q 137 547 186 488 q 88 696 88 606 q 124 849 88 783 q 225 950 160 914 q 376 986 290 986 q 485 976 431 986 q 572 946 540 965 q 588 921 588 936 q 572 860 588 899 q 540 822 557 822 q 515 829 536 822 q 393 857 451 857 q 281 823 325 857 q 236 722 236 789 q 270 630 236 668 q 374 551 304 592 q 508 443 461 500 q 556 297 556 386 q 474 73 556 154 q 250 -8 393 -8 z "},"Ś":{"ha":607,"x_min":11,"x_max":588,"o":"m 250 -8 q 136 3 186 -8 q 46 42 86 14 q 20 60 29 50 q 11 86 11 69 q 24 147 11 115 q 54 179 38 179 q 74 171 63 179 q 244 122 144 122 q 360 158 315 122 q 404 268 404 193 q 372 359 404 322 q 278 432 339 396 q 137 547 186 488 q 88 696 88 606 q 124 849 88 783 q 225 950 160 914 q 376 986 290 986 q 485 976 431 986 q 572 946 540 965 q 588 921 588 936 q 572 860 588 899 q 540 822 557 822 q 515 829 536 822 q 393 857 451 857 q 281 823 325 857 q 236 722 236 789 q 270 630 236 668 q 374 551 304 592 q 508 443 461 500 q 556 297 556 386 q 474 73 556 154 q 250 -8 393 -8 m 354 1054 q 328 1058 336 1054 q 321 1071 321 1061 q 332 1103 321 1079 q 364 1169 343 1128 l 392 1226 q 479 1264 411 1264 q 527 1260 513 1264 q 542 1244 542 1256 q 530 1218 542 1236 q 490 1164 518 1200 q 466 1132 481 1151 q 429 1082 451 1113 q 402 1061 419 1068 q 354 1054 385 1054 z "},"Š":{"ha":607,"x_min":11,"x_max":588,"o":"m 250 -8 q 136 3 186 -8 q 46 42 86 14 q 20 60 29 50 q 11 86 11 69 q 24 147 11 115 q 54 179 38 179 q 74 171 63 179 q 244 122 144 122 q 360 158 315 122 q 404 268 404 193 q 372 359 404 322 q 278 432 339 396 q 137 547 186 488 q 88 696 88 606 q 124 849 88 783 q 225 950 160 914 q 376 986 290 986 q 485 976 431 986 q 572 946 540 965 q 588 921 588 936 q 572 860 588 899 q 540 822 557 822 q 515 829 536 822 q 393 857 451 857 q 281 823 325 857 q 236 722 236 789 q 270 630 236 668 q 374 551 304 592 q 508 443 461 500 q 556 297 556 386 q 474 73 556 154 q 250 -8 393 -8 m 382 1051 q 321 1081 336 1051 l 258 1207 q 251 1232 251 1228 q 282 1250 254 1250 l 311 1250 q 354 1228 340 1250 l 399 1139 l 463 1228 q 511 1250 476 1250 l 542 1250 q 567 1231 569 1250 q 554 1207 567 1225 l 464 1081 q 438 1058 453 1064 q 399 1051 422 1051 l 382 1051 z "},"Ş":{"ha":607,"x_min":11,"x_max":588,"o":"m 374 551 q 508 443 461 500 q 556 297 556 386 q 484 83 556 163 q 285 -7 413 3 l 264 -78 q 333 -103 303 -81 q 363 -175 363 -125 q 325 -265 363 -237 q 226 -293 288 -293 q 134 -274 178 -293 q 90 -229 90 -256 q 101 -200 90 -214 q 122 -186 113 -186 q 156 -197 131 -186 q 217 -215 192 -215 q 247 -206 233 -215 q 260 -179 260 -197 q 249 -153 260 -161 q 218 -137 239 -144 q 194 -125 201 -131 q 188 -110 188 -119 q 194 -78 188 -101 q 217 -8 201 -54 q 46 42 110 -4 q 20 60 29 50 q 11 86 11 69 q 24 147 11 115 q 54 179 38 179 q 74 171 63 179 q 244 122 144 122 q 360 158 315 122 q 404 268 404 193 q 372 359 404 322 q 278 432 339 396 q 137 547 186 488 q 88 696 88 606 q 124 849 88 783 q 225 950 160 914 q 376 986 290 986 q 485 976 431 986 q 572 946 540 965 q 588 921 588 936 q 572 860 588 899 q 540 822 557 822 q 515 829 536 822 q 393 857 451 857 q 281 823 325 857 q 236 722 236 789 q 270 630 236 668 q 374 551 304 592 z "},"Ŝ":{"ha":607,"x_min":11,"x_max":588,"o":"m 250 -8 q 136 3 186 -8 q 46 42 86 14 q 20 60 29 50 q 11 86 11 69 q 24 147 11 115 q 54 179 38 179 q 74 171 63 179 q 244 122 144 122 q 360 158 315 122 q 404 268 404 193 q 372 359 404 322 q 278 432 339 396 q 137 547 186 488 q 88 696 88 606 q 124 849 88 783 q 225 950 160 914 q 376 986 290 986 q 485 976 431 986 q 572 946 540 965 q 588 921 588 936 q 572 860 588 899 q 540 822 557 822 q 515 829 536 822 q 393 857 451 857 q 281 823 325 857 q 236 722 236 789 q 270 630 236 668 q 374 551 304 592 q 508 443 461 500 q 556 297 556 386 q 474 73 556 154 q 250 -8 393 -8 m 257 1044 q 231 1061 231 1044 q 237 1075 233 1068 q 243 1086 240 1082 l 332 1214 q 400 1243 353 1243 l 415 1243 q 453 1236 439 1243 q 476 1214 467 1229 l 539 1086 q 546 1063 546 1072 q 517 1044 543 1044 l 486 1044 q 443 1065 454 1044 l 397 1156 l 335 1065 q 286 1044 317 1044 l 257 1044 z "},"Ș":{"ha":607,"x_min":11,"x_max":588,"o":"m 250 -8 q 136 3 186 -8 q 46 42 86 14 q 20 60 29 50 q 11 86 11 69 q 24 147 11 115 q 54 179 38 179 q 74 171 63 179 q 244 122 144 122 q 360 158 315 122 q 404 268 404 193 q 372 359 404 322 q 278 432 339 396 q 137 547 186 488 q 88 696 88 606 q 124 849 88 783 q 225 950 160 914 q 376 986 290 986 q 485 976 431 986 q 572 946 540 965 q 588 921 588 936 q 572 860 588 899 q 540 822 557 822 q 515 829 536 822 q 393 857 451 857 q 281 823 325 857 q 236 722 236 789 q 270 630 236 668 q 374 551 304 592 q 508 443 461 500 q 556 297 556 386 q 474 73 556 154 q 250 -8 393 -8 m 200 -328 q 168 -322 182 -328 q 154 -304 154 -317 q 163 -267 154 -297 q 188 -119 188 -199 q 247 -71 188 -71 l 265 -71 q 305 -83 292 -71 q 318 -117 318 -96 q 297 -221 318 -172 q 248 -299 276 -269 q 200 -328 219 -328 z "},"Ṣ":{"ha":607,"x_min":11,"x_max":588,"o":"m 250 -8 q 136 3 186 -8 q 46 42 86 14 q 20 60 29 50 q 11 86 11 69 q 24 147 11 115 q 54 179 38 179 q 74 171 63 179 q 244 122 144 122 q 360 158 315 122 q 404 268 404 193 q 372 359 404 322 q 278 432 339 396 q 137 547 186 488 q 88 696 88 606 q 124 849 88 783 q 225 950 160 914 q 376 986 290 986 q 485 976 431 986 q 572 946 540 965 q 588 921 588 936 q 572 860 588 899 q 540 822 557 822 q 515 829 536 822 q 393 857 451 857 q 281 823 325 857 q 236 722 236 789 q 270 630 236 668 q 374 551 304 592 q 508 443 461 500 q 556 297 556 386 q 474 73 556 154 q 250 -8 393 -8 m 229 -254 q 175 -246 192 -254 q 161 -221 158 -237 l 169 -146 q 244 -111 172 -111 q 313 -146 317 -111 l 306 -221 q 229 -254 301 -254 z "},"ẞ":{"ha":824,"x_min":54,"x_max":789,"o":"m 468 -10 q 379 2 424 -10 q 307 33 335 14 q 279 72 279 51 q 303 122 279 90 q 342 154 326 154 q 378 139 353 154 q 418 117 399 125 q 465 110 438 110 q 566 151 521 110 q 621 288 611 193 q 624 325 624 315 q 494 456 624 456 l 454 456 q 431 488 442 456 q 424 543 421 519 q 429 560 426 556 l 614 833 q 476 853 553 853 q 333 796 382 853 q 269 614 283 739 l 210 32 q 142 -3 206 -3 l 119 -3 q 61 32 54 -3 l 121 615 q 231 889 140 797 q 482 981 322 981 q 758 940 613 981 q 779 906 769 938 q 786 850 789 874 q 782 835 786 842 l 601 571 q 725 490 679 549 q 771 332 771 432 q 768 285 771 318 q 713 119 757 185 q 603 22 668 53 q 468 -10 539 -10 z "},"Ə":{"ha":778,"x_min":61,"x_max":701,"o":"m 328 -10 q 128 76 196 -10 q 61 331 61 161 q 68 446 61 376 q 94 485 71 460 q 128 510 117 510 l 549 510 q 553 608 553 564 q 510 804 553 747 q 382 861 468 861 q 203 808 297 861 q 169 794 178 794 q 140 824 156 794 q 125 872 125 853 q 168 922 125 896 q 277 965 211 947 q 407 982 343 982 q 628 893 556 982 q 701 613 701 804 q 693 468 701 547 q 576 104 668 218 q 328 -10 485 -10 m 340 110 q 465 176 417 110 q 536 399 513 242 l 208 399 q 201 296 201 333 q 235 154 201 199 q 340 110 268 110 z "},"T":{"ha":631,"x_min":75,"x_max":668,"o":"m 261 -3 q 204 32 200 -3 l 290 844 l 103 844 q 81 856 88 844 q 78 894 75 868 l 82 922 q 117 972 86 972 l 640 972 q 668 938 668 972 l 667 922 l 664 894 q 626 844 660 844 l 442 844 l 356 32 q 292 -3 353 -3 l 261 -3 z "},"Ŧ":{"ha":631,"x_min":38,"x_max":668,"o":"m 640 972 q 668 938 668 972 l 667 922 l 664 894 q 626 844 660 844 l 442 844 l 410 544 l 581 544 q 608 506 608 544 q 600 458 608 481 q 568 436 592 436 l 399 436 l 356 32 q 292 -3 353 -3 l 261 -3 q 204 32 200 -3 l 247 436 l 64 436 q 43 446 49 436 q 38 475 38 456 q 76 544 38 544 l 258 544 l 290 844 l 103 844 q 81 856 88 844 q 78 894 75 868 l 82 922 q 117 972 86 972 l 640 972 z "},"Ť":{"ha":631,"x_min":78,"x_max":668,"o":"m 261 -3 q 204 32 200 -3 l 290 844 l 103 844 q 81 856 88 844 q 78 894 75 868 l 82 922 q 117 972 86 972 l 640 972 q 668 938 668 972 l 667 922 l 664 894 q 626 844 660 844 l 442 844 l 356 32 q 292 -3 353 -3 l 261 -3 m 381 1051 q 319 1081 335 1051 l 257 1207 q 250 1232 250 1228 q 281 1250 253 1250 l 310 1250 q 353 1228 339 1250 l 397 1139 l 461 1228 q 510 1250 475 1250 l 540 1250 q 565 1231 568 1250 q 553 1207 565 1225 l 463 1081 q 436 1058 451 1064 q 397 1051 421 1051 l 381 1051 z "},"Ţ":{"ha":631,"x_min":75,"x_max":668,"o":"m 640 972 q 668 938 668 972 l 667 922 l 664 894 q 626 844 660 844 l 442 844 l 356 32 q 308 -3 354 3 l 286 -78 q 355 -103 325 -81 q 385 -175 385 -125 q 347 -265 385 -237 q 249 -293 310 -293 q 156 -274 200 -293 q 113 -229 113 -256 q 124 -200 113 -214 q 144 -186 135 -186 q 178 -197 153 -186 q 239 -215 214 -215 q 269 -206 256 -215 q 282 -179 282 -197 q 272 -153 282 -161 q 240 -137 261 -144 q 217 -125 224 -131 q 210 -110 210 -119 q 242 -1 210 -96 q 204 32 200 3 l 290 844 l 103 844 q 81 856 88 844 q 78 894 75 868 l 82 922 q 117 972 86 972 l 640 972 z "},"Ț":{"ha":631,"x_min":78,"x_max":668,"o":"m 261 -3 q 204 32 200 -3 l 290 844 l 103 844 q 81 856 88 844 q 78 894 75 868 l 82 922 q 117 972 86 972 l 640 972 q 668 938 668 972 l 667 922 l 664 894 q 626 844 660 844 l 442 844 l 356 32 q 292 -3 353 -3 l 261 -3 m 222 -328 q 190 -322 204 -328 q 176 -304 176 -317 q 185 -267 176 -297 q 210 -119 210 -199 q 269 -71 210 -71 l 288 -71 q 327 -83 314 -71 q 340 -117 340 -96 q 319 -221 340 -172 q 270 -299 299 -269 q 222 -328 242 -328 z "},"Ṭ":{"ha":631,"x_min":78,"x_max":668,"o":"m 261 -3 q 204 32 200 -3 l 290 844 l 103 844 q 81 856 88 844 q 78 894 75 868 l 82 922 q 117 972 86 972 l 640 972 q 668 938 668 972 l 667 922 l 664 894 q 626 844 660 844 l 442 844 l 356 32 q 292 -3 353 -3 l 261 -3 m 251 -254 q 197 -246 214 -254 q 183 -221 181 -237 l 192 -146 q 267 -111 194 -111 q 335 -146 339 -111 l 328 -221 q 251 -254 324 -254 z "},"U":{"ha":810,"x_min":76,"x_max":786,"o":"m 367 -10 q 151 55 226 -10 q 76 236 76 119 q 78 275 76 261 l 149 940 q 213 975 151 975 l 242 975 q 300 940 303 975 l 231 276 l 229 257 q 270 157 229 196 q 379 118 311 118 q 503 163 453 118 q 563 276 554 207 l 632 940 q 696 975 635 975 l 725 975 q 783 940 786 975 l 713 275 q 608 65 699 140 q 367 -10 518 -10 z "},"Ú":{"ha":810,"x_min":76,"x_max":783,"o":"m 367 -10 q 151 55 226 -10 q 76 236 76 119 q 78 275 76 261 l 149 940 q 213 975 151 975 l 242 975 q 300 940 303 975 l 231 276 l 229 257 q 270 157 229 196 q 379 118 311 118 q 503 163 453 118 q 563 276 554 207 l 632 940 q 696 975 635 975 l 725 975 q 783 940 786 975 l 713 275 q 608 65 699 140 q 367 -10 518 -10 m 443 1054 q 417 1058 425 1054 q 410 1071 410 1061 q 421 1103 410 1079 q 453 1169 432 1128 l 481 1226 q 568 1264 500 1264 q 616 1260 601 1264 q 631 1244 631 1256 q 619 1218 631 1236 q 579 1164 607 1200 q 555 1132 569 1151 q 518 1082 540 1113 q 491 1061 508 1068 q 443 1054 474 1054 z "},"Ŭ":{"ha":810,"x_min":76,"x_max":783,"o":"m 367 -10 q 151 55 226 -10 q 76 236 76 119 q 78 275 76 261 l 149 940 q 213 975 151 975 l 242 975 q 300 940 303 975 l 231 276 l 229 257 q 270 157 229 196 q 379 118 311 118 q 503 163 453 118 q 563 276 554 207 l 632 940 q 696 975 635 975 l 725 975 q 783 940 786 975 l 713 275 q 608 65 699 140 q 367 -10 518 -10 m 479 1054 q 369 1092 411 1054 q 326 1192 326 1129 l 328 1210 q 365 1239 332 1239 q 385 1232 379 1239 q 394 1207 390 1225 q 426 1169 403 1182 q 492 1156 449 1156 q 599 1208 571 1156 q 613 1233 607 1226 q 633 1239 619 1239 q 663 1210 667 1239 q 605 1097 656 1139 q 479 1054 554 1054 z "},"Û":{"ha":810,"x_min":76,"x_max":783,"o":"m 367 -10 q 151 55 226 -10 q 76 236 76 119 q 78 275 76 261 l 149 940 q 213 975 151 975 l 242 975 q 300 940 303 975 l 231 276 l 229 257 q 270 157 229 196 q 379 118 311 118 q 503 163 453 118 q 563 276 554 207 l 632 940 q 696 975 635 975 l 725 975 q 783 940 786 975 l 713 275 q 608 65 699 140 q 367 -10 518 -10 m 346 1044 q 319 1061 319 1044 q 326 1075 322 1068 q 332 1086 329 1082 l 421 1214 q 489 1243 442 1243 l 504 1243 q 542 1236 528 1243 q 565 1214 556 1229 l 628 1086 q 635 1063 635 1072 q 606 1044 632 1044 l 575 1044 q 532 1065 543 1044 l 486 1156 l 424 1065 q 375 1044 406 1044 l 346 1044 z "},"Ü":{"ha":810,"x_min":76,"x_max":783,"o":"m 367 -10 q 151 55 226 -10 q 76 236 76 119 q 78 275 76 261 l 149 940 q 213 975 151 975 l 242 975 q 300 940 303 975 l 231 276 l 229 257 q 270 157 229 196 q 379 118 311 118 q 503 163 453 118 q 563 276 554 207 l 632 940 q 696 975 635 975 l 725 975 q 783 940 786 975 l 713 275 q 608 65 699 140 q 367 -10 518 -10 m 385 1078 q 340 1086 353 1078 q 329 1111 326 1094 l 336 1186 q 401 1221 340 1221 q 460 1186 463 1221 l 451 1111 q 385 1078 447 1078 m 575 1078 q 518 1111 514 1078 l 526 1186 q 592 1221 529 1221 q 649 1186 651 1221 l 642 1111 q 575 1078 638 1078 z "},"Ụ":{"ha":810,"x_min":76,"x_max":783,"o":"m 367 -10 q 151 55 226 -10 q 76 236 76 119 q 78 275 76 261 l 149 940 q 213 975 151 975 l 242 975 q 300 940 303 975 l 231 276 l 229 257 q 270 157 229 196 q 379 118 311 118 q 503 163 453 118 q 563 276 554 207 l 632 940 q 696 975 635 975 l 725 975 q 783 940 786 975 l 713 275 q 608 65 699 140 q 367 -10 518 -10 m 343 -254 q 289 -246 306 -254 q 275 -221 272 -237 l 283 -146 q 358 -111 286 -111 q 426 -146 431 -111 l 419 -221 q 343 -254 415 -254 z "},"Ù":{"ha":810,"x_min":76,"x_max":783,"o":"m 367 -10 q 151 55 226 -10 q 76 236 76 119 q 78 275 76 261 l 149 940 q 213 975 151 975 l 242 975 q 300 940 303 975 l 231 276 l 229 257 q 270 157 229 196 q 379 118 311 118 q 503 163 453 118 q 563 276 554 207 l 632 940 q 696 975 635 975 l 725 975 q 783 940 786 975 l 713 275 q 608 65 699 140 q 367 -10 518 -10 m 500 1054 q 425 1082 443 1054 l 381 1140 q 322 1219 333 1203 q 311 1244 311 1235 q 326 1260 311 1256 q 375 1264 342 1264 q 463 1226 444 1264 q 514 1119 496 1157 q 532 1071 532 1081 q 525 1058 532 1061 q 500 1054 518 1054 z "},"Ủ":{"ha":810,"x_min":76,"x_max":783,"o":"m 367 -10 q 151 55 226 -10 q 76 236 76 119 q 78 275 76 261 l 149 940 q 213 975 151 975 l 242 975 q 300 940 303 975 l 231 276 l 229 257 q 270 157 229 196 q 379 118 311 118 q 503 163 453 118 q 563 276 554 207 l 632 940 q 696 975 635 975 l 725 975 q 783 940 786 975 l 713 275 q 608 65 699 140 q 367 -10 518 -10 m 486 1031 q 451 1040 471 1031 q 432 1057 432 1049 q 440 1075 432 1067 q 467 1100 447 1083 q 506 1137 492 1119 q 519 1178 519 1154 q 506 1203 519 1194 q 471 1213 492 1213 q 427 1204 443 1213 q 408 1196 411 1196 q 386 1215 400 1196 q 372 1244 372 1233 q 409 1273 372 1258 q 482 1288 446 1288 q 576 1263 536 1288 q 617 1186 617 1238 q 590 1112 617 1147 q 531 1053 564 1076 q 486 1031 499 1031 z "},"Ư":{"ha":810,"x_min":76,"x_max":897,"o":"m 897 1051 q 869 967 897 1000 q 782 926 840 935 l 713 275 q 608 65 699 140 q 367 -10 518 -10 q 151 55 226 -10 q 76 236 76 119 q 78 275 76 261 l 149 940 q 213 975 151 975 l 242 975 q 300 940 303 975 l 231 276 l 229 257 q 270 157 229 196 q 379 118 311 118 q 503 163 453 118 q 563 276 554 207 l 632 940 q 696 975 635 975 l 746 975 q 791 988 776 975 q 806 1021 806 1001 q 799 1051 806 1038 q 780 1081 792 1064 q 768 1104 768 1097 q 781 1128 768 1119 l 817 1153 q 836 1158 826 1158 q 878 1122 860 1158 q 897 1051 897 1086 z "},"Ứ":{"ha":810,"x_min":76,"x_max":897,"o":"m 443 1054 q 417 1058 425 1054 q 410 1071 410 1061 q 421 1103 410 1079 q 453 1169 432 1128 l 481 1226 q 568 1264 500 1264 q 616 1260 601 1264 q 631 1244 631 1256 q 619 1218 631 1236 q 579 1164 607 1200 q 555 1132 569 1151 q 518 1082 540 1113 q 491 1061 508 1068 q 443 1054 474 1054 m 897 1051 q 869 967 897 1000 q 782 926 840 935 l 713 275 q 608 65 699 140 q 367 -10 518 -10 q 151 55 226 -10 q 76 236 76 119 q 78 275 76 261 l 149 940 q 213 975 151 975 l 242 975 q 300 940 303 975 l 231 276 l 229 257 q 270 157 229 196 q 379 118 311 118 q 503 163 453 118 q 563 276 554 207 l 632 940 q 696 975 635 975 l 746 975 q 791 988 776 975 q 806 1021 806 1001 q 799 1051 806 1038 q 780 1081 792 1064 q 768 1104 768 1097 q 781 1128 768 1119 l 817 1153 q 836 1158 826 1158 q 878 1122 860 1158 q 897 1051 897 1086 z "},"Ự":{"ha":810,"x_min":76,"x_max":897,"o":"m 897 1051 q 869 967 897 1000 q 782 926 840 935 l 713 275 q 608 65 699 140 q 367 -10 518 -10 q 151 55 226 -10 q 76 236 76 119 q 78 275 76 261 l 149 940 q 213 975 151 975 l 242 975 q 300 940 303 975 l 231 276 l 229 257 q 270 157 229 196 q 379 118 311 118 q 503 163 453 118 q 563 276 554 207 l 632 940 q 696 975 635 975 l 746 975 q 791 988 776 975 q 806 1021 806 1001 q 799 1051 806 1038 q 780 1081 792 1064 q 768 1104 768 1097 q 781 1128 768 1119 l 817 1153 q 836 1158 826 1158 q 878 1122 860 1158 q 897 1051 897 1086 m 358 -111 q 426 -146 431 -111 l 419 -221 q 343 -254 415 -254 q 289 -246 306 -254 q 275 -221 272 -237 l 283 -146 q 358 -111 286 -111 z "},"Ừ":{"ha":810,"x_min":76,"x_max":897,"o":"m 500 1054 q 425 1082 443 1054 l 381 1140 q 322 1219 333 1203 q 311 1244 311 1235 q 326 1260 311 1256 q 375 1264 342 1264 q 463 1226 444 1264 q 514 1119 496 1157 q 532 1071 532 1081 q 525 1058 532 1061 q 500 1054 518 1054 m 897 1051 q 869 967 897 1000 q 782 926 840 935 l 713 275 q 608 65 699 140 q 367 -10 518 -10 q 151 55 226 -10 q 76 236 76 119 q 78 275 76 261 l 149 940 q 213 975 151 975 l 242 975 q 300 940 303 975 l 231 276 l 229 257 q 270 157 229 196 q 379 118 311 118 q 503 163 453 118 q 563 276 554 207 l 632 940 q 696 975 635 975 l 746 975 q 791 988 776 975 q 806 1021 806 1001 q 799 1051 806 1038 q 780 1081 792 1064 q 768 1104 768 1097 q 781 1128 768 1119 l 817 1153 q 836 1158 826 1158 q 878 1122 860 1158 q 897 1051 897 1086 z "},"Ử":{"ha":810,"x_min":76,"x_max":897,"o":"m 408 1196 q 386 1215 400 1196 q 372 1244 372 1233 q 409 1273 372 1258 q 482 1288 446 1288 q 576 1263 536 1288 q 617 1186 617 1238 q 590 1112 617 1147 q 531 1053 564 1076 q 486 1031 499 1031 q 451 1040 471 1031 q 432 1057 432 1049 q 440 1075 432 1067 q 467 1100 447 1083 q 506 1137 492 1119 q 519 1178 519 1154 q 506 1203 519 1194 q 471 1213 492 1213 q 427 1204 443 1213 q 408 1196 411 1196 m 897 1051 q 869 967 897 1000 q 782 926 840 935 l 713 275 q 608 65 699 140 q 367 -10 518 -10 q 151 55 226 -10 q 76 236 76 119 q 78 275 76 261 l 149 940 q 213 975 151 975 l 242 975 q 300 940 303 975 l 231 276 l 229 257 q 270 157 229 196 q 379 118 311 118 q 503 163 453 118 q 563 276 554 207 l 632 940 q 696 975 635 975 l 746 975 q 791 988 776 975 q 806 1021 806 1001 q 799 1051 806 1038 q 780 1081 792 1064 q 768 1104 768 1097 q 781 1128 768 1119 l 817 1153 q 836 1158 826 1158 q 878 1122 860 1158 q 897 1051 897 1086 z "},"Ữ":{"ha":810,"x_min":76,"x_max":897,"o":"m 281 1068 q 261 1090 261 1075 q 265 1110 261 1100 q 383 1206 301 1206 q 479 1178 415 1206 q 511 1165 485 1175 q 556 1154 538 1154 q 580 1161 569 1154 q 603 1186 590 1168 q 633 1208 617 1208 q 650 1204 640 1208 l 660 1200 q 677 1191 672 1196 q 682 1178 682 1186 q 676 1158 682 1172 q 558 1063 639 1063 q 516 1069 538 1063 q 461 1090 494 1076 q 419 1107 440 1100 q 383 1114 399 1114 q 361 1107 371 1114 q 339 1081 351 1100 q 310 1061 325 1061 q 294 1064 306 1061 l 281 1068 m 897 1051 q 869 967 897 1000 q 782 926 840 935 l 713 275 q 608 65 699 140 q 367 -10 518 -10 q 151 55 226 -10 q 76 236 76 119 q 78 275 76 261 l 149 940 q 213 975 151 975 l 242 975 q 300 940 303 975 l 231 276 l 229 257 q 270 157 229 196 q 379 118 311 118 q 503 163 453 118 q 563 276 554 207 l 632 940 q 696 975 635 975 l 746 975 q 791 988 776 975 q 806 1021 806 1001 q 799 1051 806 1038 q 780 1081 792 1064 q 768 1104 768 1097 q 781 1128 768 1119 l 817 1153 q 836 1158 826 1158 q 878 1122 860 1158 q 897 1051 897 1086 z "},"Ű":{"ha":810,"x_min":76,"x_max":783,"o":"m 367 -10 q 151 55 226 -10 q 76 236 76 119 q 78 275 76 261 l 149 940 q 213 975 151 975 l 242 975 q 300 940 303 975 l 231 276 l 229 257 q 270 157 229 196 q 379 118 311 118 q 503 163 453 118 q 563 276 554 207 l 632 940 q 696 975 635 975 l 725 975 q 783 940 786 975 l 713 275 q 608 65 699 140 q 367 -10 518 -10 m 363 1054 q 337 1058 344 1054 q 329 1071 329 1061 q 335 1091 329 1076 q 353 1128 342 1106 l 400 1226 q 488 1264 417 1264 q 535 1260 521 1264 q 550 1244 550 1256 q 538 1217 550 1236 q 497 1161 526 1199 q 469 1124 483 1144 q 439 1082 456 1104 q 363 1054 418 1054 m 554 1054 q 529 1058 536 1054 q 522 1071 522 1061 q 528 1091 522 1076 q 546 1128 535 1106 l 593 1226 q 681 1264 610 1264 q 728 1260 714 1264 q 743 1244 743 1256 q 726 1210 743 1233 q 631 1082 710 1186 q 603 1061 621 1068 q 554 1054 586 1054 z "},"Ū":{"ha":810,"x_min":76,"x_max":783,"o":"m 367 -10 q 151 55 226 -10 q 76 236 76 119 q 78 275 76 261 l 149 940 q 213 975 151 975 l 242 975 q 300 940 303 975 l 231 276 l 229 257 q 270 157 229 196 q 379 118 311 118 q 503 163 453 118 q 563 276 554 207 l 632 940 q 696 975 635 975 l 725 975 q 783 940 786 975 l 713 275 q 608 65 699 140 q 367 -10 518 -10 m 346 1090 q 319 1136 315 1090 l 321 1151 q 332 1186 324 1175 q 356 1197 340 1197 l 629 1197 q 652 1186 646 1197 q 656 1151 658 1175 l 653 1136 q 642 1101 650 1113 q 618 1090 635 1090 l 346 1090 z "},"Ų":{"ha":810,"x_min":76,"x_max":786,"o":"m 725 975 q 783 940 786 975 l 713 275 q 663 126 704 189 q 553 29 622 64 q 522 -78 522 -28 q 542 -125 522 -112 q 590 -137 561 -137 q 619 -133 601 -137 q 640 -129 636 -129 q 672 -165 672 -129 q 653 -204 672 -192 q 564 -228 615 -228 q 461 -187 488 -228 q 435 -103 435 -147 q 458 -1 435 -53 q 367 -10 415 -10 q 151 55 226 -10 q 76 236 76 119 q 78 275 76 261 l 149 940 q 213 975 151 975 l 242 975 q 300 940 303 975 l 231 276 l 229 257 q 270 157 229 196 q 379 118 311 118 q 503 163 453 118 q 563 276 554 207 l 632 940 q 696 975 635 975 l 725 975 z "},"Ů":{"ha":810,"x_min":76,"x_max":783,"o":"m 367 -10 q 151 55 226 -10 q 76 236 76 119 q 78 275 76 261 l 149 940 q 213 975 151 975 l 242 975 q 300 940 303 975 l 231 276 l 229 257 q 270 157 229 196 q 379 118 311 118 q 503 163 453 118 q 563 276 554 207 l 632 940 q 696 975 635 975 l 725 975 q 783 940 786 975 l 713 275 q 608 65 699 140 q 367 -10 518 -10 m 472 1024 q 393 1052 422 1024 q 364 1128 364 1081 q 402 1231 364 1190 q 499 1271 440 1271 q 580 1242 550 1271 q 610 1164 610 1213 q 571 1063 610 1103 q 472 1024 532 1024 m 479 1083 q 529 1102 511 1083 q 547 1156 547 1121 q 493 1210 547 1210 q 443 1190 461 1210 q 425 1136 425 1171 q 479 1083 425 1083 z "},"Ũ":{"ha":810,"x_min":76,"x_max":783,"o":"m 367 -10 q 151 55 226 -10 q 76 236 76 119 q 78 275 76 261 l 149 940 q 213 975 151 975 l 242 975 q 300 940 303 975 l 231 276 l 229 257 q 270 157 229 196 q 379 118 311 118 q 503 163 453 118 q 563 276 554 207 l 632 940 q 696 975 635 975 l 725 975 q 783 940 786 975 l 713 275 q 608 65 699 140 q 367 -10 518 -10 m 281 1068 q 261 1090 261 1075 q 265 1110 261 1100 q 383 1206 301 1206 q 479 1178 415 1206 q 511 1165 485 1175 q 556 1154 538 1154 q 580 1161 569 1154 q 603 1186 590 1168 q 633 1208 617 1208 q 650 1204 640 1208 l 660 1200 q 677 1191 672 1196 q 682 1178 682 1186 q 676 1158 682 1172 q 558 1063 639 1063 q 516 1069 538 1063 q 461 1090 494 1076 q 419 1107 440 1100 q 383 1114 399 1114 q 361 1107 371 1114 q 339 1081 351 1100 q 310 1061 325 1061 q 294 1064 306 1061 l 281 1068 z "},"V":{"ha":706,"x_min":82,"x_max":747,"o":"m 283 -3 q 229 21 233 -3 l 85 929 q 82 950 82 946 q 147 975 85 975 l 176 975 q 232 947 228 975 l 325 240 l 328 163 l 332 163 l 354 242 l 596 947 q 658 975 607 975 l 685 975 q 744 950 747 975 q 739 928 744 947 l 408 21 q 347 -3 401 -3 l 283 -3 z "},"W":{"ha":1044,"x_min":85,"x_max":1083,"o":"m 246 -3 q 193 21 194 -3 l 86 928 q 85 939 85 933 q 86 946 86 944 q 153 975 90 975 l 176 975 q 239 947 238 975 l 282 322 q 286 197 286 276 q 288 151 288 181 l 322 282 l 335 325 l 515 950 q 534 969 519 964 q 574 975 549 975 l 610 975 q 664 950 663 975 l 721 324 q 728 151 724 285 l 753 246 q 772 322 764 293 l 932 947 q 1000 975 940 975 l 1019 975 q 1081 946 1083 975 q 1079 938 1079 943 q 1076 928 1079 933 l 801 21 q 742 -3 793 -3 l 689 -3 q 636 21 638 -3 l 579 579 l 572 756 l 528 579 l 357 21 q 299 -3 351 -3 l 246 -3 z "},"Ẃ":{"ha":1044,"x_min":86,"x_max":1081,"o":"m 246 -3 q 193 21 194 -3 l 86 928 q 85 939 85 933 q 86 946 86 944 q 153 975 90 975 l 176 975 q 239 947 238 975 l 282 322 q 286 197 286 276 q 288 151 288 181 l 322 282 l 335 325 l 515 950 q 534 969 519 964 q 574 975 549 975 l 610 975 q 664 950 663 975 l 721 324 q 728 151 724 285 l 753 246 q 772 322 764 293 l 932 947 q 1000 975 940 975 l 1019 975 q 1081 946 1083 975 q 1079 938 1079 943 q 1076 928 1079 933 l 801 21 q 742 -3 793 -3 l 689 -3 q 636 21 638 -3 l 579 579 l 572 756 l 528 579 l 357 21 q 299 -3 351 -3 l 246 -3 m 563 1054 q 537 1058 544 1054 q 529 1071 529 1061 q 540 1103 529 1079 q 572 1169 551 1128 l 600 1226 q 688 1264 619 1264 q 735 1260 721 1264 q 750 1244 750 1256 q 738 1218 750 1236 q 699 1164 726 1200 q 674 1132 689 1151 q 638 1082 660 1113 q 610 1061 628 1068 q 563 1054 593 1054 z "},"Ŵ":{"ha":1044,"x_min":86,"x_max":1081,"o":"m 246 -3 q 193 21 194 -3 l 86 928 q 85 939 85 933 q 86 946 86 944 q 153 975 90 975 l 176 975 q 239 947 238 975 l 282 322 q 286 197 286 276 q 288 151 288 181 l 322 282 l 335 325 l 515 950 q 534 969 519 964 q 574 975 549 975 l 610 975 q 664 950 663 975 l 721 324 q 728 151 724 285 l 753 246 q 772 322 764 293 l 932 947 q 1000 975 940 975 l 1019 975 q 1081 946 1083 975 q 1079 938 1079 943 q 1076 928 1079 933 l 801 21 q 742 -3 793 -3 l 689 -3 q 636 21 638 -3 l 579 579 l 572 756 l 528 579 l 357 21 q 299 -3 351 -3 l 246 -3 m 465 1044 q 439 1061 439 1044 q 445 1075 442 1068 q 451 1086 449 1082 l 540 1214 q 608 1243 561 1243 l 624 1243 q 661 1236 647 1243 q 685 1214 675 1229 l 747 1086 q 754 1063 754 1072 q 725 1044 751 1044 l 694 1044 q 651 1065 663 1044 l 606 1156 l 543 1065 q 494 1044 525 1044 l 465 1044 z "},"Ẅ":{"ha":1044,"x_min":86,"x_max":1081,"o":"m 246 -3 q 193 21 194 -3 l 86 928 q 85 939 85 933 q 86 946 86 944 q 153 975 90 975 l 176 975 q 239 947 238 975 l 282 322 q 286 197 286 276 q 288 151 288 181 l 322 282 l 335 325 l 515 950 q 534 969 519 964 q 574 975 549 975 l 610 975 q 664 950 663 975 l 721 324 q 728 151 724 285 l 753 246 q 772 322 764 293 l 932 947 q 1000 975 940 975 l 1019 975 q 1081 946 1083 975 q 1079 938 1079 943 q 1076 928 1079 933 l 801 21 q 742 -3 793 -3 l 689 -3 q 636 21 638 -3 l 579 579 l 572 756 l 528 579 l 357 21 q 299 -3 351 -3 l 246 -3 m 504 1078 q 459 1086 472 1078 q 449 1111 446 1094 l 456 1186 q 521 1221 460 1221 q 579 1186 582 1221 l 571 1111 q 504 1078 567 1078 m 694 1078 q 638 1111 633 1078 l 646 1186 q 711 1221 649 1221 q 768 1186 771 1221 l 761 1111 q 694 1078 757 1078 z "},"Ẁ":{"ha":1044,"x_min":86,"x_max":1081,"o":"m 246 -3 q 193 21 194 -3 l 86 928 q 85 939 85 933 q 86 946 86 944 q 153 975 90 975 l 176 975 q 239 947 238 975 l 282 322 q 286 197 286 276 q 288 151 288 181 l 322 282 l 335 325 l 515 950 q 534 969 519 964 q 574 975 549 975 l 610 975 q 664 950 663 975 l 721 324 q 728 151 724 285 l 753 246 q 772 322 764 293 l 932 947 q 1000 975 940 975 l 1019 975 q 1081 946 1083 975 q 1079 938 1079 943 q 1076 928 1079 933 l 801 21 q 742 -3 793 -3 l 689 -3 q 636 21 638 -3 l 579 579 l 572 756 l 528 579 l 357 21 q 299 -3 351 -3 l 246 -3 m 619 1054 q 544 1082 563 1054 l 500 1140 q 442 1219 453 1203 q 431 1244 431 1235 q 446 1260 431 1256 q 494 1264 461 1264 q 582 1226 564 1264 q 633 1119 615 1157 q 651 1071 651 1081 q 644 1058 651 1061 q 619 1054 638 1054 z "},"X":{"ha":703,"x_min":-15,"x_max":728,"o":"m 50 -3 q -12 22 -15 -3 q -7 35 -11 26 q 1 50 -3 43 l 281 511 l 119 922 q 113 950 111 944 q 179 975 115 975 l 218 975 q 257 971 243 975 q 275 953 271 967 l 381 619 l 565 953 q 589 971 574 967 q 629 975 604 975 l 661 975 q 725 950 728 975 q 713 922 724 942 l 457 506 l 636 50 q 641 37 638 46 q 643 22 644 28 q 575 -3 642 -3 l 538 -3 q 481 19 488 -3 l 357 394 l 147 19 q 125 1 140 6 q 83 -3 110 -3 l 50 -3 z "},"Y":{"ha":672,"x_min":81,"x_max":715,"o":"m 283 -3 q 225 32 221 -3 l 268 435 l 89 922 q 81 950 81 939 q 146 975 83 975 l 181 975 q 220 970 206 975 q 239 953 235 965 l 354 560 l 557 954 q 579 971 564 967 q 621 975 594 975 l 653 975 q 713 950 715 974 q 701 922 713 940 l 419 431 l 376 32 q 313 -3 374 -3 l 283 -3 z "},"Ý":{"ha":672,"x_min":81,"x_max":713,"o":"m 283 -3 q 225 32 221 -3 l 268 435 l 89 922 q 81 950 81 939 q 146 975 83 975 l 181 975 q 220 970 206 975 q 239 953 235 965 l 354 560 l 557 954 q 579 971 564 967 q 621 975 594 975 l 653 975 q 713 950 715 974 q 701 922 713 940 l 419 431 l 376 32 q 313 -3 374 -3 l 283 -3 m 374 1054 q 348 1058 356 1054 q 340 1071 340 1061 q 351 1103 340 1079 q 383 1169 363 1128 l 411 1226 q 499 1264 431 1264 q 547 1260 532 1264 q 561 1244 561 1256 q 549 1218 561 1236 q 510 1164 538 1200 q 485 1132 500 1151 q 449 1082 471 1113 q 422 1061 439 1068 q 374 1054 404 1054 z "},"Ŷ":{"ha":672,"x_min":81,"x_max":713,"o":"m 283 -3 q 225 32 221 -3 l 268 435 l 89 922 q 81 950 81 939 q 146 975 83 975 l 181 975 q 220 970 206 975 q 239 953 235 965 l 354 560 l 557 954 q 579 971 564 967 q 621 975 594 975 l 653 975 q 713 950 715 974 q 701 922 713 940 l 419 431 l 376 32 q 313 -3 374 -3 l 283 -3 m 276 1044 q 250 1061 250 1044 q 256 1075 253 1068 q 263 1086 260 1082 l 351 1214 q 419 1243 372 1243 l 435 1243 q 472 1236 458 1243 q 496 1214 486 1229 l 558 1086 q 565 1063 565 1072 q 536 1044 563 1044 l 506 1044 q 463 1065 474 1044 l 417 1156 l 354 1065 q 306 1044 336 1044 l 276 1044 z "},"Ÿ":{"ha":672,"x_min":81,"x_max":713,"o":"m 283 -3 q 225 32 221 -3 l 268 435 l 89 922 q 81 950 81 939 q 146 975 83 975 l 181 975 q 220 970 206 975 q 239 953 235 965 l 354 560 l 557 954 q 579 971 564 967 q 621 975 594 975 l 653 975 q 713 950 715 974 q 701 922 713 940 l 419 431 l 376 32 q 313 -3 374 -3 l 283 -3 m 315 1078 q 270 1086 283 1078 q 260 1111 257 1094 l 267 1186 q 332 1221 271 1221 q 390 1186 393 1221 l 382 1111 q 315 1078 378 1078 m 506 1078 q 449 1111 444 1078 l 457 1186 q 522 1221 460 1221 q 579 1186 582 1221 l 572 1111 q 506 1078 568 1078 z "},"Ỵ":{"ha":672,"x_min":81,"x_max":713,"o":"m 283 -3 q 225 32 221 -3 l 268 435 l 89 922 q 81 950 81 939 q 146 975 83 975 l 181 975 q 220 970 206 975 q 239 953 235 965 l 354 560 l 557 954 q 579 971 564 967 q 621 975 594 975 l 653 975 q 713 950 715 974 q 701 922 713 940 l 419 431 l 376 32 q 313 -3 374 -3 l 283 -3 m 274 -254 q 219 -246 236 -254 q 206 -221 203 -237 l 214 -146 q 289 -111 217 -111 q 357 -146 361 -111 l 350 -221 q 274 -254 346 -254 z "},"Ỳ":{"ha":672,"x_min":81,"x_max":713,"o":"m 283 -3 q 225 32 221 -3 l 268 435 l 89 922 q 81 950 81 939 q 146 975 83 975 l 181 975 q 220 970 206 975 q 239 953 235 965 l 354 560 l 557 954 q 579 971 564 967 q 621 975 594 975 l 653 975 q 713 950 715 974 q 701 922 713 940 l 419 431 l 376 32 q 313 -3 374 -3 l 283 -3 m 431 1054 q 356 1082 374 1054 l 311 1140 q 253 1219 264 1203 q 242 1244 242 1235 q 257 1260 242 1256 q 306 1264 272 1264 q 393 1226 375 1264 q 444 1119 426 1157 q 463 1071 463 1081 q 456 1058 463 1061 q 431 1054 449 1054 z "},"Ỷ":{"ha":672,"x_min":81,"x_max":713,"o":"m 283 -3 q 225 32 221 -3 l 268 435 l 89 922 q 81 950 81 939 q 146 975 83 975 l 181 975 q 220 970 206 975 q 239 953 235 965 l 354 560 l 557 954 q 579 971 564 967 q 621 975 594 975 l 653 975 q 713 950 715 974 q 701 922 713 940 l 419 431 l 376 32 q 313 -3 374 -3 l 283 -3 m 417 1031 q 382 1040 401 1031 q 363 1057 363 1049 q 370 1075 363 1067 q 397 1100 378 1083 q 436 1137 422 1119 q 450 1178 450 1154 q 436 1203 450 1194 q 401 1213 422 1213 q 358 1204 374 1213 q 339 1196 342 1196 q 317 1215 331 1196 q 303 1244 303 1233 q 340 1273 303 1258 q 413 1288 376 1288 q 507 1263 467 1288 q 547 1186 547 1238 q 521 1112 547 1147 q 462 1053 494 1076 q 417 1031 429 1031 z "},"Ỹ":{"ha":672,"x_min":81,"x_max":713,"o":"m 283 -3 q 225 32 221 -3 l 268 435 l 89 922 q 81 950 81 939 q 146 975 83 975 l 181 975 q 220 970 206 975 q 239 953 235 965 l 354 560 l 557 954 q 579 971 564 967 q 621 975 594 975 l 653 975 q 713 950 715 974 q 701 922 713 940 l 419 431 l 376 32 q 313 -3 374 -3 l 283 -3 m 211 1068 q 192 1090 192 1075 q 196 1110 192 1100 q 314 1206 232 1206 q 410 1178 346 1206 q 442 1165 415 1175 q 486 1154 468 1154 q 510 1161 500 1154 q 533 1186 521 1168 q 564 1208 547 1208 q 581 1204 571 1208 l 590 1200 q 608 1191 603 1196 q 613 1178 613 1186 q 607 1158 613 1172 q 489 1063 569 1063 q 447 1069 468 1063 q 392 1090 425 1076 q 350 1107 371 1100 q 314 1114 329 1114 q 292 1107 301 1114 q 269 1081 282 1100 q 240 1061 256 1061 q 225 1064 236 1061 l 211 1068 z "},"Z":{"ha":704,"x_min":10,"x_max":706,"o":"m 42 0 q 19 31 29 0 q 13 88 10 63 q 17 104 13 99 l 513 844 l 156 844 q 134 857 140 844 q 131 899 128 869 l 133 918 q 144 960 136 947 q 168 972 153 972 l 676 972 q 697 940 689 972 q 703 883 706 907 q 701 868 703 872 l 207 128 l 594 128 q 621 92 621 128 q 619 74 621 81 l 617 54 q 605 13 614 25 q 581 0 596 0 l 42 0 z "},"Ź":{"ha":704,"x_min":13,"x_max":704,"o":"m 42 0 q 19 31 29 0 q 13 88 10 63 q 17 104 13 99 l 513 844 l 156 844 q 134 857 140 844 q 131 899 128 869 l 133 918 q 144 960 136 947 q 168 972 153 972 l 676 972 q 697 940 689 972 q 703 883 706 907 q 701 868 703 872 l 207 128 l 594 128 q 621 92 621 128 q 619 74 621 81 l 617 54 q 605 13 614 25 q 581 0 596 0 l 42 0 m 393 1054 q 367 1058 375 1054 q 360 1071 360 1061 q 371 1103 360 1079 q 403 1169 382 1128 l 431 1226 q 518 1264 450 1264 q 566 1260 551 1264 q 581 1244 581 1256 q 569 1218 581 1236 q 529 1164 557 1200 q 505 1132 519 1151 q 468 1082 490 1113 q 441 1061 458 1068 q 393 1054 424 1054 z "},"Ž":{"ha":704,"x_min":13,"x_max":704,"o":"m 42 0 q 19 31 29 0 q 13 88 10 63 q 17 104 13 99 l 513 844 l 156 844 q 134 857 140 844 q 131 899 128 869 l 133 918 q 144 960 136 947 q 168 972 153 972 l 676 972 q 697 940 689 972 q 703 883 706 907 q 701 868 703 872 l 207 128 l 594 128 q 621 92 621 128 q 619 74 621 81 l 617 54 q 605 13 614 25 q 581 0 596 0 l 42 0 m 421 1051 q 360 1081 375 1051 l 297 1207 q 290 1232 290 1228 q 321 1250 293 1250 l 350 1250 q 393 1228 379 1250 l 438 1139 l 501 1228 q 550 1250 515 1250 l 581 1250 q 606 1231 608 1250 q 593 1207 606 1225 l 503 1081 q 476 1058 492 1064 q 438 1051 461 1051 l 421 1051 z "},"Ż":{"ha":704,"x_min":13,"x_max":704,"o":"m 42 0 q 19 31 29 0 q 13 88 10 63 q 17 104 13 99 l 513 844 l 156 844 q 134 857 140 844 q 131 899 128 869 l 133 918 q 144 960 136 947 q 168 972 153 972 l 676 972 q 697 940 689 972 q 703 883 706 907 q 701 868 703 872 l 207 128 l 594 128 q 621 92 621 128 q 619 74 621 81 l 617 54 q 605 13 614 25 q 581 0 596 0 l 42 0 m 431 1078 q 376 1086 393 1078 q 363 1111 360 1094 l 371 1186 q 446 1221 374 1221 q 514 1186 518 1221 l 507 1111 q 431 1078 503 1078 z "},"Ẓ":{"ha":704,"x_min":13,"x_max":704,"o":"m 42 0 q 19 31 29 0 q 13 88 10 63 q 17 104 13 99 l 513 844 l 156 844 q 134 857 140 844 q 131 899 128 869 l 133 918 q 144 960 136 947 q 168 972 153 972 l 676 972 q 697 940 689 972 q 703 883 706 907 q 701 868 703 872 l 207 128 l 594 128 q 621 92 621 128 q 619 74 621 81 l 617 54 q 605 13 614 25 q 581 0 596 0 l 42 0 m 294 -254 q 240 -246 257 -254 q 226 -221 224 -237 l 235 -146 q 310 -111 238 -111 q 378 -146 382 -111 l 371 -221 q 294 -254 367 -254 z "},"a":{"ha":668,"x_min":56,"x_max":626,"o":"m 233 -11 q 98 71 140 -11 q 56 281 56 153 q 60 368 56 325 q 150 638 78 540 q 328 736 222 736 q 475 661 417 736 q 500 715 488 700 q 544 729 513 729 l 556 729 q 604 699 604 729 q 600 653 603 681 q 594 600 597 625 l 588 543 l 547 167 q 578 110 543 110 q 596 113 586 110 q 611 115 606 115 q 626 81 626 115 q 599 14 626 38 q 524 -10 572 -10 q 444 17 478 -10 q 406 110 410 44 q 233 -11 344 -11 m 283 110 q 358 147 322 110 q 415 263 393 185 l 439 493 q 451 569 446 542 q 411 603 433 590 q 356 617 389 617 q 253 554 289 617 q 204 371 217 492 q 199 279 199 310 q 283 110 199 110 z "},"á":{"ha":668,"x_min":56,"x_max":626,"o":"m 233 -11 q 98 71 140 -11 q 56 281 56 153 q 60 368 56 325 q 150 638 78 540 q 328 736 222 736 q 475 661 417 736 q 500 715 488 700 q 544 729 513 729 l 556 729 q 604 699 604 729 q 600 653 603 681 q 594 600 597 625 l 588 543 l 547 167 q 578 110 543 110 q 596 113 586 110 q 611 115 606 115 q 626 81 626 115 q 599 14 626 38 q 524 -10 572 -10 q 444 17 478 -10 q 406 110 410 44 q 233 -11 344 -11 m 283 110 q 358 147 322 110 q 415 263 393 185 l 439 493 q 451 569 446 542 q 411 603 433 590 q 356 617 389 617 q 253 554 289 617 q 204 371 217 492 q 199 279 199 310 q 283 110 199 110 m 338 808 q 312 812 319 808 q 304 825 304 815 q 315 858 304 833 q 347 924 326 882 l 375 981 q 463 1018 394 1018 q 510 1014 496 1018 q 525 999 525 1010 q 513 972 525 990 q 474 918 501 954 q 449 886 464 906 q 413 836 435 867 q 385 815 403 822 q 338 808 368 808 z "},"ă":{"ha":668,"x_min":56,"x_max":626,"o":"m 233 -11 q 98 71 140 -11 q 56 281 56 153 q 60 368 56 325 q 150 638 78 540 q 328 736 222 736 q 475 661 417 736 q 500 715 488 700 q 544 729 513 729 l 556 729 q 604 699 604 729 q 600 653 603 681 q 594 600 597 625 l 588 543 l 547 167 q 578 110 543 110 q 596 113 586 110 q 611 115 606 115 q 626 81 626 115 q 599 14 626 38 q 524 -10 572 -10 q 444 17 478 -10 q 406 110 410 44 q 233 -11 344 -11 m 283 110 q 358 147 322 110 q 415 263 393 185 l 439 493 q 451 569 446 542 q 411 603 433 590 q 356 617 389 617 q 253 554 289 617 q 204 371 217 492 q 199 279 199 310 q 283 110 199 110 m 374 808 q 263 846 306 808 q 221 946 221 883 l 222 964 q 260 993 226 993 q 279 986 274 993 q 289 961 285 979 q 320 923 297 936 q 386 910 343 910 q 493 963 465 910 q 508 987 501 981 q 528 993 514 993 q 557 964 561 993 q 499 851 550 893 q 374 808 449 808 z "},"ắ":{"ha":668,"x_min":56,"x_max":626,"o":"m 233 -11 q 98 71 140 -11 q 56 281 56 153 q 60 368 56 325 q 150 638 78 540 q 328 736 222 736 q 475 661 417 736 q 500 715 488 700 q 544 729 513 729 l 556 729 q 604 699 604 729 q 600 653 603 681 q 594 600 597 625 l 588 543 l 547 167 q 578 110 543 110 q 596 113 586 110 q 611 115 606 115 q 626 81 626 115 q 599 14 626 38 q 524 -10 572 -10 q 444 17 478 -10 q 406 110 410 44 q 233 -11 344 -11 m 283 110 q 358 147 322 110 q 415 263 393 185 l 439 493 q 451 569 446 542 q 411 603 433 590 q 356 617 389 617 q 253 554 289 617 q 204 371 217 492 q 199 279 199 310 q 283 110 199 110 m 374 808 q 263 846 306 808 q 221 946 221 883 l 222 964 q 260 993 226 993 q 279 986 274 993 q 289 961 285 979 q 320 923 297 936 q 386 910 343 910 q 493 963 465 910 q 508 987 501 981 q 528 993 514 993 q 557 964 561 993 q 499 851 550 893 q 374 808 449 808 m 361 1019 q 335 1023 343 1019 q 328 1036 328 1026 q 339 1069 328 1044 q 371 1135 350 1093 l 399 1192 q 486 1229 418 1229 q 534 1225 519 1229 q 549 1210 549 1221 q 537 1183 549 1201 q 497 1129 525 1165 q 473 1097 488 1117 q 436 1047 458 1078 q 409 1026 426 1033 q 361 1019 392 1019 z "},"ặ":{"ha":668,"x_min":56,"x_max":626,"o":"m 233 -11 q 98 71 140 -11 q 56 281 56 153 q 60 368 56 325 q 150 638 78 540 q 328 736 222 736 q 475 661 417 736 q 500 715 488 700 q 544 729 513 729 l 556 729 q 604 699 604 729 q 600 653 603 681 q 594 600 597 625 l 588 543 l 547 167 q 578 110 543 110 q 596 113 586 110 q 611 115 606 115 q 626 81 626 115 q 599 14 626 38 q 524 -10 572 -10 q 444 17 478 -10 q 406 110 410 44 q 233 -11 344 -11 m 283 110 q 358 147 322 110 q 415 263 393 185 l 439 493 q 451 569 446 542 q 411 603 433 590 q 356 617 389 617 q 253 554 289 617 q 204 371 217 492 q 199 279 199 310 q 283 110 199 110 m 265 -254 q 211 -246 228 -254 q 197 -221 194 -237 l 206 -146 q 281 -111 208 -111 q 349 -146 353 -111 l 342 -221 q 265 -254 338 -254 m 374 808 q 263 846 306 808 q 221 946 221 883 l 222 964 q 260 993 226 993 q 279 986 274 993 q 289 961 285 979 q 320 923 297 936 q 386 910 343 910 q 493 963 465 910 q 508 987 501 981 q 528 993 514 993 q 557 964 561 993 q 499 851 550 893 q 374 808 449 808 z "},"ằ":{"ha":668,"x_min":56,"x_max":626,"o":"m 233 -11 q 98 71 140 -11 q 56 281 56 153 q 60 368 56 325 q 150 638 78 540 q 328 736 222 736 q 475 661 417 736 q 500 715 488 700 q 544 729 513 729 l 556 729 q 604 699 604 729 q 600 653 603 681 q 594 600 597 625 l 588 543 l 547 167 q 578 110 543 110 q 596 113 586 110 q 611 115 606 115 q 626 81 626 115 q 599 14 626 38 q 524 -10 572 -10 q 444 17 478 -10 q 406 110 410 44 q 233 -11 344 -11 m 283 110 q 358 147 322 110 q 415 263 393 185 l 439 493 q 451 569 446 542 q 411 603 433 590 q 356 617 389 617 q 253 554 289 617 q 204 371 217 492 q 199 279 199 310 q 283 110 199 110 m 374 808 q 263 846 306 808 q 221 946 221 883 l 222 964 q 260 993 226 993 q 279 986 274 993 q 289 961 285 979 q 320 923 297 936 q 386 910 343 910 q 493 963 465 910 q 508 987 501 981 q 528 993 514 993 q 557 964 561 993 q 499 851 550 893 q 374 808 449 808 m 418 1019 q 343 1047 361 1019 l 299 1106 q 240 1184 251 1168 q 229 1210 229 1200 q 244 1225 229 1221 q 293 1229 260 1229 q 381 1192 363 1229 q 432 1084 414 1122 q 450 1036 450 1046 q 443 1023 450 1026 q 418 1019 436 1019 z "},"ẳ":{"ha":668,"x_min":56,"x_max":626,"o":"m 233 -11 q 98 71 140 -11 q 56 281 56 153 q 60 368 56 325 q 150 638 78 540 q 328 736 222 736 q 475 661 417 736 q 500 715 488 700 q 544 729 513 729 l 556 729 q 604 699 604 729 q 600 653 603 681 q 594 600 597 625 l 588 543 l 547 167 q 578 110 543 110 q 596 113 586 110 q 611 115 606 115 q 626 81 626 115 q 599 14 626 38 q 524 -10 572 -10 q 444 17 478 -10 q 406 110 410 44 q 233 -11 344 -11 m 283 110 q 358 147 322 110 q 415 263 393 185 l 439 493 q 451 569 446 542 q 411 603 433 590 q 356 617 389 617 q 253 554 289 617 q 204 371 217 492 q 199 279 199 310 q 283 110 199 110 m 374 808 q 263 846 306 808 q 221 946 221 883 l 222 964 q 260 993 226 993 q 279 986 274 993 q 289 961 285 979 q 320 923 297 936 q 386 910 343 910 q 493 963 465 910 q 508 987 501 981 q 528 993 514 993 q 557 964 561 993 q 499 851 550 893 q 374 808 449 808 m 404 996 q 369 1005 389 996 q 350 1022 350 1014 q 358 1040 350 1032 q 385 1065 365 1049 q 424 1102 410 1085 q 438 1143 438 1119 q 424 1169 438 1160 q 389 1178 410 1178 q 345 1169 361 1178 q 326 1161 329 1161 q 304 1180 318 1161 q 290 1210 290 1199 q 327 1238 290 1224 q 400 1253 364 1253 q 494 1228 454 1253 q 535 1151 535 1203 q 508 1077 535 1113 q 449 1019 482 1042 q 404 996 417 996 z "},"ẵ":{"ha":668,"x_min":56,"x_max":626,"o":"m 228 1064 q 211 1086 211 1071 q 215 1106 211 1096 q 322 1201 247 1201 q 361 1194 340 1201 q 410 1174 382 1188 q 448 1157 429 1164 q 479 1150 467 1150 q 501 1157 492 1150 q 522 1182 511 1164 q 550 1204 535 1204 q 564 1200 556 1204 l 575 1196 q 589 1187 585 1192 q 593 1174 593 1182 q 589 1154 593 1165 q 482 1058 553 1058 q 393 1086 451 1058 q 322 1110 343 1110 q 282 1076 300 1110 q 256 1057 268 1057 q 242 1060 253 1057 l 228 1064 m 372 808 q 262 846 304 808 q 219 946 219 883 l 221 964 q 258 993 225 993 q 278 986 272 993 q 288 961 283 979 q 319 923 296 936 q 385 910 342 910 q 492 963 464 910 q 506 987 500 981 q 526 993 513 993 q 556 964 560 993 q 498 851 549 893 q 372 808 447 808 m 233 -11 q 98 71 140 -11 q 56 281 56 153 q 60 368 56 325 q 150 638 78 540 q 328 736 222 736 q 475 661 417 736 q 500 715 488 700 q 544 729 513 729 l 556 729 q 604 699 604 729 q 600 653 603 681 q 594 600 597 625 l 588 543 l 547 167 q 578 110 543 110 q 596 113 586 110 q 611 115 606 115 q 626 81 626 115 q 599 14 626 38 q 524 -10 572 -10 q 444 17 478 -10 q 406 110 410 44 q 233 -11 344 -11 m 283 110 q 358 147 322 110 q 415 263 393 185 l 439 493 q 451 569 446 542 q 411 603 433 590 q 356 617 389 617 q 253 554 289 617 q 204 371 217 492 q 199 279 199 310 q 283 110 199 110 z "},"â":{"ha":668,"x_min":56,"x_max":626,"o":"m 233 -11 q 98 71 140 -11 q 56 281 56 153 q 60 368 56 325 q 150 638 78 540 q 328 736 222 736 q 475 661 417 736 q 500 715 488 700 q 544 729 513 729 l 556 729 q 604 699 604 729 q 600 653 603 681 q 594 600 597 625 l 588 543 l 547 167 q 578 110 543 110 q 596 113 586 110 q 611 115 606 115 q 626 81 626 115 q 599 14 626 38 q 524 -10 572 -10 q 444 17 478 -10 q 406 110 410 44 q 233 -11 344 -11 m 283 110 q 358 147 322 110 q 415 263 393 185 l 439 493 q 451 569 446 542 q 411 603 433 590 q 356 617 389 617 q 253 554 289 617 q 204 371 217 492 q 199 279 199 310 q 283 110 199 110 m 240 799 q 214 815 214 799 q 220 829 217 822 q 226 840 224 836 l 315 968 q 383 997 336 997 l 399 997 q 436 990 422 997 q 460 968 450 983 l 522 840 q 529 817 529 826 q 500 799 526 799 l 469 799 q 426 819 438 799 l 381 910 l 318 819 q 269 799 300 799 l 240 799 z "},"ấ":{"ha":668,"x_min":56,"x_max":701,"o":"m 514 997 q 488 1001 496 997 q 481 1014 481 1004 q 492 1047 481 1022 q 524 1113 503 1071 l 551 1169 q 639 1207 571 1207 q 687 1203 672 1207 q 701 1188 701 1199 q 690 1161 701 1179 q 650 1107 678 1143 q 626 1075 640 1094 q 589 1025 611 1056 q 562 1004 579 1011 q 514 997 544 997 m 250 799 q 224 815 224 799 q 228 828 225 822 q 233 840 232 835 l 318 968 q 385 997 336 997 l 401 997 q 439 991 425 997 q 461 968 453 985 l 517 840 q 524 817 524 826 q 515 803 522 808 q 494 799 507 799 l 464 799 q 419 818 429 799 l 382 910 l 328 819 q 308 803 319 807 q 279 799 296 799 l 250 799 m 233 -11 q 98 71 140 -11 q 56 281 56 153 q 60 368 56 325 q 150 638 78 540 q 328 736 222 736 q 475 661 417 736 q 500 715 488 700 q 544 729 513 729 l 556 729 q 604 699 604 729 q 600 653 603 681 q 594 600 597 625 l 588 543 l 547 167 q 578 110 543 110 q 596 113 586 110 q 611 115 606 115 q 626 81 626 115 q 599 14 626 38 q 524 -10 572 -10 q 444 17 478 -10 q 406 110 410 44 q 233 -11 344 -11 m 283 110 q 358 147 322 110 q 415 263 393 185 l 439 493 q 451 569 446 542 q 411 603 433 590 q 356 617 389 617 q 253 554 289 617 q 204 371 217 492 q 199 279 199 310 q 283 110 199 110 z "},"ậ":{"ha":668,"x_min":56,"x_max":626,"o":"m 233 -11 q 98 71 140 -11 q 56 281 56 153 q 60 368 56 325 q 150 638 78 540 q 328 736 222 736 q 475 661 417 736 q 500 715 488 700 q 544 729 513 729 l 556 729 q 604 699 604 729 q 600 653 603 681 q 594 600 597 625 l 588 543 l 547 167 q 578 110 543 110 q 596 113 586 110 q 611 115 606 115 q 626 81 626 115 q 599 14 626 38 q 524 -10 572 -10 q 444 17 478 -10 q 406 110 410 44 q 233 -11 344 -11 m 283 110 q 358 147 322 110 q 415 263 393 185 l 439 493 q 451 569 446 542 q 411 603 433 590 q 356 617 389 617 q 253 554 289 617 q 204 371 217 492 q 199 279 199 310 q 283 110 199 110 m 265 -254 q 211 -246 228 -254 q 197 -221 194 -237 l 206 -146 q 281 -111 208 -111 q 349 -146 353 -111 l 342 -221 q 265 -254 338 -254 m 240 799 q 214 815 214 799 q 220 829 217 822 q 226 840 224 836 l 315 968 q 383 997 336 997 l 399 997 q 436 990 422 997 q 460 968 450 983 l 522 840 q 529 817 529 826 q 500 799 526 799 l 469 799 q 426 819 438 799 l 381 910 l 318 819 q 269 799 300 799 l 240 799 z "},"ầ":{"ha":668,"x_min":56,"x_max":626,"o":"m 571 997 q 496 1025 514 997 l 451 1083 q 393 1162 404 1146 q 382 1188 382 1178 q 397 1203 382 1199 q 446 1207 413 1207 q 533 1169 515 1207 q 585 1062 567 1100 q 603 1014 603 1024 q 596 1001 603 1004 q 571 997 589 997 m 250 799 q 224 815 224 799 q 228 828 225 822 q 233 840 232 835 l 318 968 q 385 997 336 997 l 401 997 q 439 991 425 997 q 461 968 453 985 l 517 840 q 524 817 524 826 q 515 803 522 808 q 494 799 507 799 l 464 799 q 419 818 429 799 l 382 910 l 328 819 q 308 803 319 807 q 279 799 296 799 l 250 799 m 233 -11 q 98 71 140 -11 q 56 281 56 153 q 60 368 56 325 q 150 638 78 540 q 328 736 222 736 q 475 661 417 736 q 500 715 488 700 q 544 729 513 729 l 556 729 q 604 699 604 729 q 600 653 603 681 q 594 600 597 625 l 588 543 l 547 167 q 578 110 543 110 q 596 113 586 110 q 611 115 606 115 q 626 81 626 115 q 599 14 626 38 q 524 -10 572 -10 q 444 17 478 -10 q 406 110 410 44 q 233 -11 344 -11 m 283 110 q 358 147 322 110 q 415 263 393 185 l 439 493 q 451 569 446 542 q 411 603 433 590 q 356 617 389 617 q 253 554 289 617 q 204 371 217 492 q 199 279 199 310 q 283 110 199 110 z "},"ẩ":{"ha":668,"x_min":56,"x_max":688,"o":"m 557 974 q 522 983 542 974 q 503 1000 503 992 q 510 1018 503 1010 q 538 1043 518 1026 q 576 1080 563 1063 q 590 1121 590 1097 q 576 1147 590 1138 q 542 1156 563 1156 q 498 1147 514 1156 q 479 1139 482 1139 q 457 1158 471 1139 q 443 1188 443 1176 q 480 1216 443 1201 q 553 1231 517 1231 q 647 1206 607 1231 q 688 1129 688 1181 q 661 1055 688 1090 q 602 997 635 1019 q 557 974 569 974 m 250 799 q 224 815 224 799 q 228 828 225 822 q 233 840 232 835 l 318 968 q 385 997 336 997 l 401 997 q 439 991 425 997 q 461 968 453 985 l 517 840 q 524 817 524 826 q 515 803 522 808 q 494 799 507 799 l 464 799 q 419 818 429 799 l 382 910 l 328 819 q 308 803 319 807 q 279 799 296 799 l 250 799 m 233 -11 q 98 71 140 -11 q 56 281 56 153 q 60 368 56 325 q 150 638 78 540 q 328 736 222 736 q 475 661 417 736 q 500 715 488 700 q 544 729 513 729 l 556 729 q 604 699 604 729 q 600 653 603 681 q 594 600 597 625 l 588 543 l 547 167 q 578 110 543 110 q 596 113 586 110 q 611 115 606 115 q 626 81 626 115 q 599 14 626 38 q 524 -10 572 -10 q 444 17 478 -10 q 406 110 410 44 q 233 -11 344 -11 m 283 110 q 358 147 322 110 q 415 263 393 185 l 439 493 q 451 569 446 542 q 411 603 433 590 q 356 617 389 617 q 253 554 289 617 q 204 371 217 492 q 199 279 199 310 q 283 110 199 110 z "},"ẫ":{"ha":668,"x_min":56,"x_max":626,"o":"m 226 1058 q 210 1081 210 1065 q 214 1100 210 1090 q 321 1196 246 1196 q 360 1189 339 1196 q 408 1168 381 1182 q 447 1151 428 1158 q 478 1144 465 1144 q 500 1151 490 1144 q 521 1176 510 1158 q 549 1199 533 1199 q 563 1194 554 1199 l 574 1190 q 588 1181 583 1186 q 592 1168 592 1176 q 588 1149 592 1160 q 481 1053 553 1053 q 392 1081 450 1053 q 321 1104 342 1104 q 281 1071 299 1104 q 254 1051 267 1051 q 240 1054 251 1051 l 226 1058 m 240 799 q 214 815 214 799 q 220 829 217 822 q 226 840 224 836 l 315 968 q 383 997 336 997 l 399 997 q 436 990 422 997 q 460 968 450 983 l 522 840 q 529 817 529 826 q 500 799 526 799 l 469 799 q 426 819 438 799 l 381 910 l 318 819 q 269 799 300 799 l 240 799 m 233 -11 q 98 71 140 -11 q 56 281 56 153 q 60 368 56 325 q 150 638 78 540 q 328 736 222 736 q 475 661 417 736 q 500 715 488 700 q 544 729 513 729 l 556 729 q 604 699 604 729 q 600 653 603 681 q 594 600 597 625 l 588 543 l 547 167 q 578 110 543 110 q 596 113 586 110 q 611 115 606 115 q 626 81 626 115 q 599 14 626 38 q 524 -10 572 -10 q 444 17 478 -10 q 406 110 410 44 q 233 -11 344 -11 m 283 110 q 358 147 322 110 q 415 263 393 185 l 439 493 q 451 569 446 542 q 411 603 433 590 q 356 617 389 617 q 253 554 289 617 q 204 371 217 492 q 199 279 199 310 q 283 110 199 110 z "},"ä":{"ha":668,"x_min":56,"x_max":626,"o":"m 233 -11 q 98 71 140 -11 q 56 281 56 153 q 60 368 56 325 q 150 638 78 540 q 328 736 222 736 q 475 661 417 736 q 500 715 488 700 q 544 729 513 729 l 556 729 q 604 699 604 729 q 600 653 603 681 q 594 600 597 625 l 588 543 l 547 167 q 578 110 543 110 q 596 113 586 110 q 611 115 606 115 q 626 81 626 115 q 599 14 626 38 q 524 -10 572 -10 q 444 17 478 -10 q 406 110 410 44 q 233 -11 344 -11 m 283 110 q 358 147 322 110 q 415 263 393 185 l 439 493 q 451 569 446 542 q 411 603 433 590 q 356 617 389 617 q 253 554 289 617 q 204 371 217 492 q 199 279 199 310 q 283 110 199 110 m 279 832 q 234 840 247 832 q 224 865 221 849 l 231 940 q 296 975 235 975 q 354 940 357 975 l 346 865 q 279 832 342 832 m 469 832 q 413 865 408 832 l 421 940 q 486 975 424 975 q 543 940 546 975 l 536 865 q 469 832 532 832 z "},"ạ":{"ha":668,"x_min":56,"x_max":626,"o":"m 233 -11 q 98 71 140 -11 q 56 281 56 153 q 60 368 56 325 q 150 638 78 540 q 328 736 222 736 q 475 661 417 736 q 500 715 488 700 q 544 729 513 729 l 556 729 q 604 699 604 729 q 600 653 603 681 q 594 600 597 625 l 588 543 l 547 167 q 578 110 543 110 q 596 113 586 110 q 611 115 606 115 q 626 81 626 115 q 599 14 626 38 q 524 -10 572 -10 q 444 17 478 -10 q 406 110 410 44 q 233 -11 344 -11 m 283 110 q 358 147 322 110 q 415 263 393 185 l 439 493 q 451 569 446 542 q 411 603 433 590 q 356 617 389 617 q 253 554 289 617 q 204 371 217 492 q 199 279 199 310 q 283 110 199 110 m 265 -254 q 211 -246 228 -254 q 197 -221 194 -237 l 206 -146 q 281 -111 208 -111 q 349 -146 353 -111 l 342 -221 q 265 -254 338 -254 z "},"à":{"ha":668,"x_min":56,"x_max":626,"o":"m 233 -11 q 98 71 140 -11 q 56 281 56 153 q 60 368 56 325 q 150 638 78 540 q 328 736 222 736 q 475 661 417 736 q 500 715 488 700 q 544 729 513 729 l 556 729 q 604 699 604 729 q 600 653 603 681 q 594 600 597 625 l 588 543 l 547 167 q 578 110 543 110 q 596 113 586 110 q 611 115 606 115 q 626 81 626 115 q 599 14 626 38 q 524 -10 572 -10 q 444 17 478 -10 q 406 110 410 44 q 233 -11 344 -11 m 283 110 q 358 147 322 110 q 415 263 393 185 l 439 493 q 451 569 446 542 q 411 603 433 590 q 356 617 389 617 q 253 554 289 617 q 204 371 217 492 q 199 279 199 310 q 283 110 199 110 m 394 808 q 319 836 338 808 l 275 894 q 217 973 228 957 q 206 999 206 989 q 221 1014 206 1010 q 269 1018 236 1018 q 357 981 339 1018 q 408 873 390 911 q 426 825 426 835 q 419 812 426 815 q 394 808 413 808 z "},"ả":{"ha":668,"x_min":56,"x_max":626,"o":"m 233 -11 q 98 71 140 -11 q 56 281 56 153 q 60 368 56 325 q 150 638 78 540 q 328 736 222 736 q 475 661 417 736 q 500 715 488 700 q 544 729 513 729 l 556 729 q 604 699 604 729 q 600 653 603 681 q 594 600 597 625 l 588 543 l 547 167 q 578 110 543 110 q 596 113 586 110 q 611 115 606 115 q 626 81 626 115 q 599 14 626 38 q 524 -10 572 -10 q 444 17 478 -10 q 406 110 410 44 q 233 -11 344 -11 m 283 110 q 358 147 322 110 q 415 263 393 185 l 439 493 q 451 569 446 542 q 411 603 433 590 q 356 617 389 617 q 253 554 289 617 q 204 371 217 492 q 199 279 199 310 q 283 110 199 110 m 381 785 q 346 794 365 785 q 326 811 326 803 q 334 829 326 821 q 361 854 342 838 q 400 891 386 874 q 414 932 414 908 q 400 958 414 949 q 365 967 386 967 q 322 958 338 967 q 303 950 306 950 q 281 969 294 950 q 267 999 267 988 q 303 1027 267 1013 q 376 1042 340 1042 q 471 1017 431 1042 q 511 940 511 992 q 485 866 511 901 q 426 808 458 831 q 381 785 393 785 z "},"ā":{"ha":668,"x_min":56,"x_max":626,"o":"m 233 -11 q 98 71 140 -11 q 56 281 56 153 q 60 368 56 325 q 150 638 78 540 q 328 736 222 736 q 475 661 417 736 q 500 715 488 700 q 544 729 513 729 l 556 729 q 604 699 604 729 q 600 653 603 681 q 594 600 597 625 l 588 543 l 547 167 q 578 110 543 110 q 596 113 586 110 q 611 115 606 115 q 626 81 626 115 q 599 14 626 38 q 524 -10 572 -10 q 444 17 478 -10 q 406 110 410 44 q 233 -11 344 -11 m 283 110 q 358 147 322 110 q 415 263 393 185 l 439 493 q 451 569 446 542 q 411 603 433 590 q 356 617 389 617 q 253 554 289 617 q 204 371 217 492 q 199 279 199 310 q 283 110 199 110 m 240 844 q 214 890 210 844 l 215 906 q 226 940 218 929 q 250 951 235 951 l 524 951 q 547 940 540 951 q 550 906 553 929 l 547 890 q 537 856 544 867 q 513 844 529 844 l 240 844 z "},"ą":{"ha":668,"x_min":56,"x_max":686,"o":"m 654 -161 q 686 -197 686 -161 q 667 -236 686 -224 q 578 -260 629 -260 q 475 -219 501 -260 q 449 -135 449 -179 q 458 -73 449 -107 q 486 -6 467 -39 q 406 110 413 15 q 233 -11 344 -11 q 98 71 140 -11 q 56 281 56 153 q 60 368 56 325 q 150 638 78 540 q 328 736 222 736 q 475 661 417 736 q 500 715 488 700 q 544 729 513 729 l 556 729 q 604 699 604 729 q 600 653 603 681 q 594 600 597 625 l 588 543 l 547 167 q 578 110 543 110 q 596 113 586 110 q 611 115 606 115 q 626 81 626 115 q 610 26 626 47 q 565 -4 594 4 q 544 -60 551 -32 q 536 -110 536 -89 q 556 -157 536 -144 q 604 -169 575 -169 q 633 -165 615 -169 q 654 -161 650 -161 m 439 493 q 451 569 446 542 q 411 603 433 590 q 356 617 389 617 q 253 554 289 617 q 204 371 217 492 q 199 279 199 310 q 283 110 199 110 q 358 147 322 110 q 415 263 393 185 l 439 493 z "},"å":{"ha":668,"x_min":56,"x_max":626,"o":"m 233 -11 q 98 71 140 -11 q 56 281 56 153 q 60 368 56 325 q 150 638 78 540 q 328 736 222 736 q 475 661 417 736 q 500 715 488 700 q 544 729 513 729 l 556 729 q 604 699 604 729 q 600 653 603 681 q 594 600 597 625 l 588 543 l 547 167 q 578 110 543 110 q 596 113 586 110 q 611 115 606 115 q 626 81 626 115 q 599 14 626 38 q 524 -10 572 -10 q 444 17 478 -10 q 406 110 410 44 q 233 -11 344 -11 m 283 110 q 358 147 322 110 q 415 263 393 185 l 439 493 q 451 569 446 542 q 411 603 433 590 q 356 617 389 617 q 253 554 289 617 q 204 371 217 492 q 199 279 199 310 q 283 110 199 110 m 367 778 q 288 806 317 778 q 258 882 258 835 q 297 985 258 944 q 393 1025 335 1025 q 474 996 444 1025 q 504 918 504 967 q 465 817 504 857 q 367 778 426 778 m 374 838 q 424 856 406 838 q 442 910 442 875 q 388 964 442 964 q 338 944 356 964 q 319 890 319 925 q 374 838 319 838 z "},"ǻ":{"ha":668,"x_min":56,"x_max":626,"o":"m 233 -11 q 98 71 140 -11 q 56 281 56 153 q 60 368 56 325 q 150 638 78 540 q 328 736 222 736 q 475 661 417 736 q 500 715 488 700 q 544 729 513 729 l 556 729 q 604 699 604 729 q 600 653 603 681 q 594 600 597 625 l 588 543 l 547 167 q 578 110 543 110 q 596 113 586 110 q 611 115 606 115 q 626 81 626 115 q 599 14 626 38 q 524 -10 572 -10 q 444 17 478 -10 q 406 110 410 44 q 233 -11 344 -11 m 283 110 q 358 147 322 110 q 415 263 393 185 l 439 493 q 451 569 446 542 q 411 603 433 590 q 356 617 389 617 q 253 554 289 617 q 204 371 217 492 q 199 279 199 310 q 283 110 199 110 m 367 778 q 288 806 317 778 q 258 882 258 835 q 297 985 258 944 q 393 1025 335 1025 q 474 996 444 1025 q 504 918 504 967 q 465 817 504 857 q 367 778 426 778 m 374 838 q 424 856 406 838 q 442 910 442 875 q 388 964 442 964 q 338 944 356 964 q 319 890 319 925 q 374 838 319 838 m 393 1072 q 367 1076 375 1072 q 360 1089 360 1079 q 371 1122 360 1097 q 403 1188 382 1146 l 431 1244 q 518 1282 450 1282 q 566 1278 551 1282 q 581 1263 581 1274 q 569 1236 581 1254 q 529 1182 557 1218 q 505 1150 519 1169 q 468 1100 490 1131 q 441 1079 458 1086 q 393 1072 424 1072 z "},"ã":{"ha":668,"x_min":56,"x_max":626,"o":"m 233 -11 q 98 71 140 -11 q 56 281 56 153 q 60 368 56 325 q 150 638 78 540 q 328 736 222 736 q 475 661 417 736 q 500 715 488 700 q 544 729 513 729 l 556 729 q 604 699 604 729 q 600 653 603 681 q 594 600 597 625 l 588 543 l 547 167 q 578 110 543 110 q 596 113 586 110 q 611 115 606 115 q 626 81 626 115 q 599 14 626 38 q 524 -10 572 -10 q 444 17 478 -10 q 406 110 410 44 q 233 -11 344 -11 m 283 110 q 358 147 322 110 q 415 263 393 185 l 439 493 q 451 569 446 542 q 411 603 433 590 q 356 617 389 617 q 253 554 289 617 q 204 371 217 492 q 199 279 199 310 q 283 110 199 110 m 175 822 q 156 844 156 829 q 160 864 156 854 q 278 960 196 960 q 374 932 310 960 q 406 919 379 929 q 450 908 432 908 q 474 915 464 908 q 497 940 485 922 q 528 963 511 963 q 544 958 535 963 l 554 954 q 572 945 567 950 q 576 932 576 940 q 571 913 576 926 q 453 817 533 817 q 410 824 432 817 q 356 844 389 831 q 314 861 335 854 q 278 868 293 868 q 256 861 265 868 q 233 835 246 854 q 204 815 219 815 q 189 818 200 815 l 175 822 z "},"æ":{"ha":922,"x_min":19,"x_max":893,"o":"m 207 -10 q 73 41 126 -10 q 19 181 19 92 q 21 208 19 199 q 124 393 35 333 q 378 456 214 453 q 408 550 389 510 q 313 617 394 617 q 238 607 271 617 q 172 582 206 597 q 144 572 150 572 q 114 602 129 572 q 99 650 99 632 q 133 690 99 669 q 220 723 167 710 q 331 736 274 736 q 430 722 386 736 q 501 679 474 707 q 678 736 575 736 q 839 667 785 736 q 893 464 893 597 q 888 378 893 439 q 863 338 886 363 q 828 313 840 313 l 507 313 q 506 274 506 299 q 537 149 506 188 q 633 110 568 110 q 708 122 676 110 q 765 148 740 133 q 794 163 790 163 q 824 133 808 163 q 840 85 840 104 q 808 42 840 64 q 723 5 775 19 q 618 -10 671 -10 q 411 72 476 -10 q 320 13 374 35 q 207 -10 267 -10 m 747 424 q 751 483 751 457 q 728 584 750 551 q 664 617 707 617 q 569 570 606 617 q 518 424 533 524 l 747 424 m 242 115 q 367 172 317 115 q 357 274 357 213 q 360 344 357 294 q 164 197 164 339 q 242 115 164 115 z "},"ǽ":{"ha":922,"x_min":19,"x_max":893,"o":"m 207 -10 q 73 41 126 -10 q 19 181 19 92 q 21 208 19 199 q 124 393 35 333 q 378 456 214 453 q 408 550 389 510 q 313 617 394 617 q 238 607 271 617 q 172 582 206 597 q 144 572 150 572 q 114 602 129 572 q 99 650 99 632 q 133 690 99 669 q 220 723 167 710 q 331 736 274 736 q 430 722 386 736 q 501 679 474 707 q 678 736 575 736 q 839 667 785 736 q 893 464 893 597 q 888 378 893 439 q 863 338 886 363 q 828 313 840 313 l 507 313 q 506 274 506 299 q 537 149 506 188 q 633 110 568 110 q 708 122 676 110 q 765 148 740 133 q 794 163 790 163 q 824 133 808 163 q 840 85 840 104 q 808 42 840 64 q 723 5 775 19 q 618 -10 671 -10 q 411 72 476 -10 q 320 13 374 35 q 207 -10 267 -10 m 747 424 q 751 483 751 457 q 728 584 750 551 q 664 617 707 617 q 569 570 606 617 q 518 424 533 524 l 747 424 m 242 115 q 367 172 317 115 q 357 274 357 213 q 360 344 357 294 q 164 197 164 339 q 242 115 164 115 m 476 808 q 451 812 458 808 q 443 825 443 815 q 454 858 443 833 q 486 924 465 882 l 514 981 q 601 1018 533 1018 q 649 1014 635 1018 q 664 999 664 1010 q 652 972 664 990 q 613 918 640 954 q 588 886 603 906 q 551 836 574 867 q 524 815 542 822 q 476 808 507 808 z "},"b":{"ha":669,"x_min":50,"x_max":606,"o":"m 346 -10 q 259 17 299 -10 q 194 93 219 43 l 174 19 q 155 2 168 7 q 119 -3 142 -3 l 108 -3 q 54 32 50 -3 l 158 1011 q 222 1046 161 1046 l 244 1046 q 303 1011 306 1046 l 267 674 q 331 719 297 703 q 411 736 365 736 q 554 662 503 736 q 606 451 606 588 q 601 367 606 413 q 554 168 590 253 q 465 37 518 83 q 346 -10 411 -10 m 318 111 q 453 368 425 111 q 458 453 458 429 q 361 615 458 615 q 256 565 301 615 l 215 193 q 261 133 235 154 q 318 111 288 111 z "},"c":{"ha":567,"x_min":54,"x_max":565,"o":"m 313 -10 q 118 59 182 -10 q 54 275 54 128 q 60 365 54 301 q 164 650 79 564 q 389 736 249 736 q 474 726 433 736 q 540 699 515 715 q 563 663 565 682 q 540 610 561 643 q 506 578 519 578 q 497 581 503 578 q 488 586 492 585 q 386 617 438 617 q 267 559 311 617 q 210 368 224 501 q 206 286 206 322 q 236 151 206 193 q 333 110 267 110 q 447 139 392 110 q 469 150 467 150 q 499 119 485 150 q 510 69 513 89 q 440 15 508 40 q 313 -10 372 -10 z "},"ć":{"ha":567,"x_min":54,"x_max":563,"o":"m 313 -10 q 118 59 182 -10 q 54 275 54 128 q 60 365 54 301 q 164 650 79 564 q 389 736 249 736 q 474 726 433 736 q 540 699 515 715 q 563 663 565 682 q 540 610 561 643 q 506 578 519 578 q 497 581 503 578 q 488 586 492 585 q 386 617 438 617 q 267 559 311 617 q 210 368 224 501 q 206 286 206 322 q 236 151 206 193 q 333 110 267 110 q 447 139 392 110 q 469 150 467 150 q 499 119 485 150 q 510 69 513 89 q 440 15 508 40 q 313 -10 372 -10 m 338 808 q 312 812 319 808 q 304 825 304 815 q 315 858 304 833 q 347 924 326 882 l 375 981 q 463 1018 394 1018 q 510 1014 496 1018 q 525 999 525 1010 q 513 972 525 990 q 474 918 501 954 q 449 886 464 906 q 413 836 435 867 q 385 815 403 822 q 338 808 368 808 z "},"č":{"ha":567,"x_min":54,"x_max":563,"o":"m 313 -10 q 118 59 182 -10 q 54 275 54 128 q 60 365 54 301 q 164 650 79 564 q 389 736 249 736 q 474 726 433 736 q 540 699 515 715 q 563 663 565 682 q 540 610 561 643 q 506 578 519 578 q 497 581 503 578 q 488 586 492 585 q 386 617 438 617 q 267 559 311 617 q 210 368 224 501 q 206 286 206 322 q 236 151 206 193 q 333 110 267 110 q 447 139 392 110 q 469 150 467 150 q 499 119 485 150 q 510 69 513 89 q 440 15 508 40 q 313 -10 372 -10 m 365 806 q 304 835 319 806 l 242 961 q 235 986 235 982 q 265 1004 238 1004 l 294 1004 q 338 982 324 1004 l 382 893 l 446 982 q 494 1004 460 1004 l 525 1004 q 550 985 553 1004 q 538 961 550 979 l 447 835 q 421 812 436 818 q 382 806 406 806 l 365 806 z "},"ç":{"ha":567,"x_min":54,"x_max":565,"o":"m 389 736 q 474 726 433 736 q 540 699 515 715 q 563 663 565 682 q 540 610 561 643 q 506 578 519 578 q 497 581 503 578 q 488 586 492 585 q 386 617 438 617 q 267 559 311 617 q 210 368 224 501 q 206 286 206 322 q 236 151 206 193 q 333 110 267 110 q 447 139 392 110 q 469 150 467 150 q 499 119 485 150 q 510 69 513 89 q 451 19 508 43 q 333 -8 393 -4 l 314 -78 q 383 -103 353 -81 q 413 -175 413 -125 q 375 -265 413 -237 q 276 -293 338 -293 q 184 -274 228 -293 q 140 -229 140 -256 q 151 -200 140 -214 q 172 -186 163 -186 q 206 -197 181 -186 q 267 -215 242 -215 q 297 -206 283 -215 q 310 -179 310 -197 q 299 -153 310 -161 q 268 -137 289 -144 q 244 -125 251 -131 q 238 -110 238 -119 q 244 -78 238 -101 q 267 -7 251 -54 q 107 73 160 4 q 54 276 54 142 q 60 365 54 301 q 164 650 79 564 q 389 736 249 736 z "},"ĉ":{"ha":567,"x_min":54,"x_max":563,"o":"m 313 -10 q 118 59 182 -10 q 54 275 54 128 q 60 365 54 301 q 164 650 79 564 q 389 736 249 736 q 474 726 433 736 q 540 699 515 715 q 563 663 565 682 q 540 610 561 643 q 506 578 519 578 q 497 581 503 578 q 488 586 492 585 q 386 617 438 617 q 267 559 311 617 q 210 368 224 501 q 206 286 206 322 q 236 151 206 193 q 333 110 267 110 q 447 139 392 110 q 469 150 467 150 q 499 119 485 150 q 510 69 513 89 q 440 15 508 40 q 313 -10 372 -10 m 240 799 q 214 815 214 799 q 220 829 217 822 q 226 840 224 836 l 315 968 q 383 997 336 997 l 399 997 q 436 990 422 997 q 460 968 450 983 l 522 840 q 529 817 529 826 q 500 799 526 799 l 469 799 q 426 819 438 799 l 381 910 l 318 819 q 269 799 300 799 l 240 799 z "},"ċ":{"ha":567,"x_min":54,"x_max":563,"o":"m 313 -10 q 118 59 182 -10 q 54 275 54 128 q 60 365 54 301 q 164 650 79 564 q 389 736 249 736 q 474 726 433 736 q 540 699 515 715 q 563 663 565 682 q 540 610 561 643 q 506 578 519 578 q 497 581 503 578 q 488 586 492 585 q 386 617 438 617 q 267 559 311 617 q 210 368 224 501 q 206 286 206 322 q 236 151 206 193 q 333 110 267 110 q 447 139 392 110 q 469 150 467 150 q 499 119 485 150 q 510 69 513 89 q 440 15 508 40 q 313 -10 372 -10 m 375 832 q 321 840 338 832 q 307 865 304 849 l 315 940 q 390 975 318 975 q 458 940 463 975 l 451 865 q 375 832 447 832 z "},"d":{"ha":668,"x_min":54,"x_max":642,"o":"m 233 -10 q 101 68 149 -10 q 54 282 54 146 q 58 367 54 324 q 149 639 76 542 q 326 736 221 736 q 401 719 371 736 q 458 674 432 703 l 494 1011 q 558 1046 497 1046 l 579 1046 q 639 1011 642 1046 l 597 626 l 550 175 q 556 124 549 139 q 579 110 563 110 q 597 113 588 110 q 614 115 607 115 q 628 85 628 115 q 622 54 628 71 q 590 8 617 25 q 525 -10 563 -10 q 448 15 481 -10 q 408 100 415 40 q 329 19 375 47 q 233 -10 283 -10 m 288 111 q 349 133 318 111 q 407 196 381 156 l 447 565 q 353 615 410 615 q 207 367 232 615 q 201 275 201 322 q 223 153 201 194 q 288 111 244 111 z "},"ð":{"ha":663,"x_min":56,"x_max":618,"o":"m 618 883 q 592 864 615 867 l 513 854 q 607 451 607 654 q 603 363 607 408 q 508 84 583 178 q 293 -10 432 -10 q 117 67 179 -10 q 56 286 56 143 q 60 361 56 322 q 155 635 79 540 q 360 731 231 731 q 429 722 397 731 q 383 836 414 774 l 274 821 q 246 836 257 821 q 236 869 235 851 q 263 889 239 885 l 351 901 q 318 967 318 954 q 343 988 318 983 q 396 992 389 992 q 435 976 419 992 q 478 917 451 957 q 583 932 569 932 q 609 915 600 932 q 618 883 618 897 m 456 363 q 461 449 461 426 q 435 573 461 533 q 357 613 410 613 q 258 553 293 613 q 207 363 222 494 q 201 274 201 296 q 226 149 201 189 q 304 110 251 110 q 405 170 368 110 q 456 363 442 231 z "},"ď":{"ha":668,"x_min":54,"x_max":831,"o":"m 233 -10 q 101 68 149 -10 q 54 282 54 146 q 58 367 54 324 q 149 639 76 542 q 326 736 221 736 q 401 719 371 736 q 458 674 432 703 l 494 1011 q 558 1046 497 1046 l 579 1046 q 639 1011 642 1046 l 597 626 l 550 175 q 556 124 549 139 q 579 110 563 110 q 597 113 588 110 q 614 115 607 115 q 628 85 628 115 q 622 54 628 71 q 590 8 617 25 q 525 -10 563 -10 q 448 15 481 -10 q 408 100 415 40 q 329 19 375 47 q 233 -10 283 -10 m 288 111 q 349 133 318 111 q 407 196 381 156 l 447 565 q 353 615 410 615 q 207 367 232 615 q 201 275 201 322 q 223 153 201 194 q 288 111 244 111 m 726 725 q 695 731 710 725 q 681 749 681 736 q 686 804 681 763 q 691 851 688 817 q 694 924 694 886 q 710 959 694 946 q 758 972 726 972 l 775 972 q 816 960 801 972 q 831 926 831 947 q 813 826 831 872 q 769 753 794 781 q 726 725 744 725 z "},"đ":{"ha":668,"x_min":54,"x_max":724,"o":"m 694 932 q 717 921 711 932 q 721 886 724 910 l 718 871 q 708 836 715 847 q 683 825 700 825 l 619 825 q 592 563 601 660 q 550 175 597 607 q 556 124 549 139 q 579 110 563 110 q 597 113 588 110 q 614 115 607 115 q 628 85 628 115 q 622 54 628 71 q 590 8 617 25 q 525 -10 563 -10 q 448 15 481 -10 q 408 100 415 40 q 329 19 375 47 q 233 -10 283 -10 q 101 68 149 -10 q 54 282 54 146 q 58 367 54 324 q 149 639 76 542 q 326 736 221 736 q 401 719 371 736 q 458 674 432 703 l 475 825 l 411 825 q 385 871 381 825 l 386 886 q 397 921 389 910 q 421 932 406 932 l 486 932 l 494 1011 q 558 1046 497 1046 l 579 1046 q 639 1011 642 1046 l 631 932 l 694 932 m 447 565 q 353 615 410 615 q 207 367 232 615 q 201 275 201 322 q 223 153 201 194 q 288 111 244 111 q 349 133 318 111 q 407 196 381 156 l 447 565 z "},"ḍ":{"ha":668,"x_min":54,"x_max":639,"o":"m 233 -10 q 101 68 149 -10 q 54 282 54 146 q 58 367 54 324 q 149 639 76 542 q 326 736 221 736 q 401 719 371 736 q 458 674 432 703 l 494 1011 q 558 1046 497 1046 l 579 1046 q 639 1011 642 1046 l 597 626 l 550 175 q 556 124 549 139 q 579 110 563 110 q 597 113 588 110 q 614 115 607 115 q 628 85 628 115 q 622 54 628 71 q 590 8 617 25 q 525 -10 563 -10 q 448 15 481 -10 q 408 100 415 40 q 329 19 375 47 q 233 -10 283 -10 m 288 111 q 349 133 318 111 q 407 196 381 156 l 447 565 q 353 615 410 615 q 207 367 232 615 q 201 275 201 322 q 223 153 201 194 q 288 111 244 111 m 357 -254 q 303 -246 319 -254 q 289 -221 286 -237 l 297 -146 q 372 -111 300 -111 q 440 -146 444 -111 l 433 -221 q 357 -254 429 -254 z "},"ǳ":{"ha":1231,"x_min":54,"x_max":1215,"o":"m 233 -10 q 101 68 149 -10 q 54 282 54 146 q 58 367 54 324 q 149 639 76 542 q 326 736 221 736 q 401 719 371 736 q 458 674 432 703 l 494 1011 q 558 1046 497 1046 l 579 1046 q 639 1011 642 1046 l 597 626 l 550 175 q 556 124 549 139 q 579 110 563 110 q 597 113 588 110 q 614 115 607 115 q 628 85 628 115 q 622 54 628 71 q 590 8 617 25 q 525 -10 563 -10 q 448 15 481 -10 q 408 100 415 40 q 329 19 375 47 q 233 -10 283 -10 m 288 111 q 349 133 318 111 q 407 196 381 156 l 447 565 q 353 615 410 615 q 207 367 232 615 q 201 275 201 322 q 223 153 201 194 q 288 111 244 111 m 708 0 q 691 29 699 0 q 686 81 683 58 q 690 97 686 85 l 1035 608 l 790 608 q 764 643 764 608 q 765 658 764 653 l 767 676 q 778 715 769 703 q 801 726 786 726 l 1194 726 q 1210 697 1203 726 q 1215 644 1218 668 l 1211 628 l 867 118 l 1133 118 q 1160 68 1164 118 l 1157 50 q 1146 12 1154 24 q 1122 0 1138 0 l 708 0 z "},"ǆ":{"ha":1231,"x_min":54,"x_max":1215,"o":"m 233 -10 q 101 68 149 -10 q 54 282 54 146 q 58 367 54 324 q 149 639 76 542 q 326 736 221 736 q 401 719 371 736 q 458 674 432 703 l 494 1011 q 558 1046 497 1046 l 579 1046 q 639 1011 642 1046 l 597 626 l 550 175 q 556 124 549 139 q 579 110 563 110 q 597 113 588 110 q 614 115 607 115 q 628 85 628 115 q 622 54 628 71 q 590 8 617 25 q 525 -10 563 -10 q 448 15 481 -10 q 408 100 415 40 q 329 19 375 47 q 233 -10 283 -10 m 288 111 q 349 133 318 111 q 407 196 381 156 l 447 565 q 353 615 410 615 q 207 367 232 615 q 201 275 201 322 q 223 153 201 194 q 288 111 244 111 m 708 0 q 691 29 699 0 q 686 81 683 58 q 690 97 686 85 l 1035 608 l 790 608 q 764 643 764 608 q 765 658 764 653 l 767 676 q 778 715 769 703 q 801 726 786 726 l 1194 726 q 1210 697 1203 726 q 1215 644 1218 668 l 1211 628 l 867 118 l 1133 118 q 1160 68 1164 118 l 1157 50 q 1146 12 1154 24 q 1122 0 1138 0 l 708 0 m 994 806 q 933 835 949 806 l 871 961 q 864 986 864 982 q 894 1004 867 1004 l 924 1004 q 967 982 953 1004 l 1011 893 l 1075 982 q 1124 1004 1089 1004 l 1154 1004 q 1179 985 1182 1004 q 1167 961 1179 979 l 1076 835 q 1050 812 1065 818 q 1011 806 1035 806 l 994 806 z "},"e":{"ha":631,"x_min":60,"x_max":597,"o":"m 207 297 q 240 151 204 193 q 346 110 275 110 q 422 124 389 110 q 488 160 454 138 q 502 169 492 163 q 518 175 513 175 q 535 164 529 175 q 540 135 540 153 q 518 60 540 89 q 434 8 493 26 q 328 -10 375 -10 q 134 56 208 -10 q 60 276 60 121 q 97 511 60 407 q 208 676 133 615 q 393 736 282 736 q 513 706 467 736 q 578 633 558 676 q 597 549 597 590 q 515 359 597 426 q 303 292 433 292 q 207 300 244 292 l 207 297 m 381 617 q 214 399 244 617 l 279 399 q 406 431 354 399 q 458 532 458 463 q 438 593 458 569 q 381 617 417 617 z "},"é":{"ha":631,"x_min":60,"x_max":597,"o":"m 207 297 q 240 151 204 193 q 346 110 275 110 q 422 124 389 110 q 488 160 454 138 q 502 169 492 163 q 518 175 513 175 q 535 164 529 175 q 540 135 540 153 q 518 60 540 89 q 434 8 493 26 q 328 -10 375 -10 q 134 56 208 -10 q 60 276 60 121 q 97 511 60 407 q 208 676 133 615 q 393 736 282 736 q 513 706 467 736 q 578 633 558 676 q 597 549 597 590 q 515 359 597 426 q 303 292 433 292 q 207 300 244 292 l 207 297 m 381 617 q 214 399 244 617 l 279 399 q 406 431 354 399 q 458 532 458 463 q 438 593 458 569 q 381 617 417 617 m 353 808 q 327 812 335 808 q 319 825 319 815 q 331 858 319 833 q 363 924 342 882 l 390 981 q 478 1018 410 1018 q 526 1014 511 1018 q 540 999 540 1010 q 528 972 540 990 q 489 918 517 954 q 465 886 479 906 q 428 836 450 867 q 401 815 418 822 q 353 808 383 808 z "},"ĕ":{"ha":631,"x_min":60,"x_max":597,"o":"m 207 297 q 240 151 204 193 q 346 110 275 110 q 422 124 389 110 q 488 160 454 138 q 502 169 492 163 q 518 175 513 175 q 535 164 529 175 q 540 135 540 153 q 518 60 540 89 q 434 8 493 26 q 328 -10 375 -10 q 134 56 208 -10 q 60 276 60 121 q 97 511 60 407 q 208 676 133 615 q 393 736 282 736 q 513 706 467 736 q 578 633 558 676 q 597 549 597 590 q 515 359 597 426 q 303 292 433 292 q 207 300 244 292 l 207 297 m 381 617 q 214 399 244 617 l 279 399 q 406 431 354 399 q 458 532 458 463 q 438 593 458 569 q 381 617 417 617 m 389 808 q 278 846 321 808 q 236 946 236 883 l 238 964 q 275 993 242 993 q 294 986 289 993 q 304 961 300 979 q 335 923 313 936 q 401 910 358 910 q 508 963 481 910 q 523 987 517 981 q 543 993 529 993 q 572 964 576 993 q 515 851 565 893 q 389 808 464 808 z "},"ě":{"ha":631,"x_min":60,"x_max":597,"o":"m 207 297 q 240 151 204 193 q 346 110 275 110 q 422 124 389 110 q 488 160 454 138 q 502 169 492 163 q 518 175 513 175 q 535 164 529 175 q 540 135 540 153 q 518 60 540 89 q 434 8 493 26 q 328 -10 375 -10 q 134 56 208 -10 q 60 276 60 121 q 97 511 60 407 q 208 676 133 615 q 393 736 282 736 q 513 706 467 736 q 578 633 558 676 q 597 549 597 590 q 515 359 597 426 q 303 292 433 292 q 207 300 244 292 l 207 297 m 381 617 q 214 399 244 617 l 279 399 q 406 431 354 399 q 458 532 458 463 q 438 593 458 569 q 381 617 417 617 m 381 806 q 319 835 335 806 l 257 961 q 250 986 250 982 q 281 1004 253 1004 l 310 1004 q 353 982 339 1004 l 397 893 l 461 982 q 510 1004 475 1004 l 540 1004 q 565 985 568 1004 q 553 961 565 979 l 463 835 q 436 812 451 818 q 397 806 421 806 l 381 806 z "},"ê":{"ha":631,"x_min":60,"x_max":597,"o":"m 207 297 q 240 151 204 193 q 346 110 275 110 q 422 124 389 110 q 488 160 454 138 q 502 169 492 163 q 518 175 513 175 q 535 164 529 175 q 540 135 540 153 q 518 60 540 89 q 434 8 493 26 q 328 -10 375 -10 q 134 56 208 -10 q 60 276 60 121 q 97 511 60 407 q 208 676 133 615 q 393 736 282 736 q 513 706 467 736 q 578 633 558 676 q 597 549 597 590 q 515 359 597 426 q 303 292 433 292 q 207 300 244 292 l 207 297 m 381 617 q 214 399 244 617 l 279 399 q 406 431 354 399 q 458 532 458 463 q 438 593 458 569 q 381 617 417 617 m 256 799 q 229 815 229 799 q 235 829 232 822 q 242 840 239 836 l 331 968 q 399 997 351 997 l 414 997 q 451 990 438 997 q 475 968 465 983 l 538 840 q 544 817 544 826 q 515 799 542 799 l 485 799 q 442 819 453 799 l 396 910 l 333 819 q 285 799 315 799 l 256 799 z "},"ế":{"ha":631,"x_min":60,"x_max":718,"o":"m 656 1207 q 703 1203 689 1207 q 718 1188 718 1199 q 706 1161 718 1179 q 667 1107 694 1143 q 642 1075 657 1094 q 606 1025 628 1056 q 578 1004 596 1011 q 531 997 561 997 q 505 1001 513 997 q 497 1014 497 1004 q 508 1047 497 1022 q 540 1113 519 1071 l 568 1169 q 656 1207 588 1207 m 265 799 q 239 815 239 799 q 244 828 240 822 q 249 840 247 835 l 333 968 q 400 997 351 997 l 417 997 q 454 991 440 997 q 476 968 468 985 l 532 840 q 539 817 539 826 q 530 803 538 808 q 510 799 522 799 l 479 799 q 435 818 444 799 l 397 910 l 343 819 q 323 803 335 807 q 294 799 311 799 l 265 799 m 393 736 q 513 706 467 736 q 578 633 558 676 q 597 549 597 590 q 515 359 597 426 q 303 292 433 292 q 207 300 244 292 l 207 297 q 240 151 204 193 q 346 110 275 110 q 422 124 389 110 q 488 160 454 138 q 502 169 492 163 q 518 175 513 175 q 535 164 529 175 q 540 135 540 153 q 518 60 540 89 q 434 8 493 26 q 328 -10 375 -10 q 134 56 208 -10 q 60 276 60 121 q 97 511 60 407 q 208 676 133 615 q 393 736 282 736 m 279 399 q 406 431 354 399 q 458 532 458 463 q 438 593 458 569 q 381 617 417 617 q 214 399 244 617 l 279 399 z "},"ệ":{"ha":631,"x_min":60,"x_max":597,"o":"m 207 297 q 240 151 204 193 q 346 110 275 110 q 422 124 389 110 q 488 160 454 138 q 502 169 492 163 q 518 175 513 175 q 535 164 529 175 q 540 135 540 153 q 518 60 540 89 q 434 8 493 26 q 328 -10 375 -10 q 134 56 208 -10 q 60 276 60 121 q 97 511 60 407 q 208 676 133 615 q 393 736 282 736 q 513 706 467 736 q 578 633 558 676 q 597 549 597 590 q 515 359 597 426 q 303 292 433 292 q 207 300 244 292 l 207 297 m 381 617 q 214 399 244 617 l 279 399 q 406 431 354 399 q 458 532 458 463 q 438 593 458 569 q 381 617 417 617 m 306 -254 q 251 -246 268 -254 q 238 -221 235 -237 l 246 -146 q 321 -111 249 -111 q 389 -146 393 -111 l 382 -221 q 306 -254 378 -254 m 256 799 q 229 815 229 799 q 235 829 232 822 q 242 840 239 836 l 331 968 q 399 997 351 997 l 414 997 q 451 990 438 997 q 475 968 465 983 l 538 840 q 544 817 544 826 q 515 799 542 799 l 485 799 q 442 819 453 799 l 396 910 l 333 819 q 285 799 315 799 l 256 799 z "},"ề":{"ha":631,"x_min":60,"x_max":618,"o":"m 549 1169 q 600 1062 582 1100 q 618 1014 618 1024 q 611 1001 618 1004 q 586 997 604 997 q 511 1025 529 997 l 467 1083 q 408 1162 419 1146 q 397 1188 397 1178 q 413 1203 397 1199 q 461 1207 428 1207 q 549 1169 531 1207 m 265 799 q 239 815 239 799 q 244 828 240 822 q 249 840 247 835 l 333 968 q 400 997 351 997 l 417 997 q 454 991 440 997 q 476 968 468 985 l 532 840 q 539 817 539 826 q 530 803 538 808 q 510 799 522 799 l 479 799 q 435 818 444 799 l 397 910 l 343 819 q 323 803 335 807 q 294 799 311 799 l 265 799 m 393 736 q 513 706 467 736 q 578 633 558 676 q 597 549 597 590 q 515 359 597 426 q 303 292 433 292 q 207 300 244 292 l 207 297 q 240 151 204 193 q 346 110 275 110 q 422 124 389 110 q 488 160 454 138 q 502 169 492 163 q 518 175 513 175 q 535 164 529 175 q 540 135 540 153 q 518 60 540 89 q 434 8 493 26 q 328 -10 375 -10 q 134 56 208 -10 q 60 276 60 121 q 97 511 60 407 q 208 676 133 615 q 393 736 282 736 m 279 399 q 406 431 354 399 q 458 532 458 463 q 438 593 458 569 q 381 617 417 617 q 214 399 244 617 l 279 399 z "},"ể":{"ha":631,"x_min":60,"x_max":703,"o":"m 568 1231 q 663 1206 622 1231 q 703 1129 703 1181 q 676 1055 703 1090 q 617 997 650 1019 q 572 974 585 974 q 538 983 557 974 q 518 1000 518 992 q 526 1018 518 1010 q 553 1043 533 1026 q 592 1080 578 1063 q 606 1121 606 1097 q 592 1147 606 1138 q 557 1156 578 1156 q 513 1147 529 1156 q 494 1139 497 1139 q 472 1158 486 1139 q 458 1188 458 1176 q 495 1216 458 1201 q 568 1231 532 1231 m 265 799 q 239 815 239 799 q 244 828 240 822 q 249 840 247 835 l 333 968 q 400 997 351 997 l 417 997 q 454 991 440 997 q 476 968 468 985 l 532 840 q 539 817 539 826 q 530 803 538 808 q 510 799 522 799 l 479 799 q 435 818 444 799 l 397 910 l 343 819 q 323 803 335 807 q 294 799 311 799 l 265 799 m 393 736 q 513 706 467 736 q 578 633 558 676 q 597 549 597 590 q 515 359 597 426 q 303 292 433 292 q 207 300 244 292 l 207 297 q 240 151 204 193 q 346 110 275 110 q 422 124 389 110 q 488 160 454 138 q 502 169 492 163 q 518 175 513 175 q 535 164 529 175 q 540 135 540 153 q 518 60 540 89 q 434 8 493 26 q 328 -10 375 -10 q 134 56 208 -10 q 60 276 60 121 q 97 511 60 407 q 208 676 133 615 q 393 736 282 736 m 279 399 q 406 431 354 399 q 458 532 458 463 q 438 593 458 569 q 381 617 417 617 q 214 399 244 617 l 279 399 z "},"ễ":{"ha":631,"x_min":60,"x_max":607,"o":"m 589 1190 q 603 1181 599 1186 q 607 1168 607 1176 q 603 1149 607 1160 q 496 1053 568 1053 q 407 1081 465 1053 q 336 1104 357 1104 q 296 1071 314 1104 q 269 1051 282 1051 q 256 1054 267 1051 l 242 1058 q 225 1081 225 1065 q 229 1100 225 1090 q 336 1196 261 1196 q 375 1189 354 1196 q 424 1168 396 1182 q 462 1151 443 1158 q 493 1144 481 1144 q 515 1151 506 1144 q 536 1176 525 1158 q 564 1199 549 1199 q 578 1194 569 1199 l 589 1190 m 256 799 q 229 815 229 799 q 235 829 232 822 q 242 840 239 836 l 331 968 q 399 997 351 997 l 414 997 q 451 990 438 997 q 475 968 465 983 l 538 840 q 544 817 544 826 q 515 799 542 799 l 485 799 q 442 819 453 799 l 396 910 l 333 819 q 285 799 315 799 l 256 799 m 393 736 q 513 706 467 736 q 578 633 558 676 q 597 549 597 590 q 515 359 597 426 q 303 292 433 292 q 207 300 244 292 l 207 297 q 240 151 204 193 q 346 110 275 110 q 422 124 389 110 q 488 160 454 138 q 502 169 492 163 q 518 175 513 175 q 535 164 529 175 q 540 135 540 153 q 518 60 540 89 q 434 8 493 26 q 328 -10 375 -10 q 134 56 208 -10 q 60 276 60 121 q 97 511 60 407 q 208 676 133 615 q 393 736 282 736 m 279 399 q 406 431 354 399 q 458 532 458 463 q 438 593 458 569 q 381 617 417 617 q 214 399 244 617 l 279 399 z "},"ë":{"ha":631,"x_min":60,"x_max":597,"o":"m 207 297 q 240 151 204 193 q 346 110 275 110 q 422 124 389 110 q 488 160 454 138 q 502 169 492 163 q 518 175 513 175 q 535 164 529 175 q 540 135 540 153 q 518 60 540 89 q 434 8 493 26 q 328 -10 375 -10 q 134 56 208 -10 q 60 276 60 121 q 97 511 60 407 q 208 676 133 615 q 393 736 282 736 q 513 706 467 736 q 578 633 558 676 q 597 549 597 590 q 515 359 597 426 q 303 292 433 292 q 207 300 244 292 l 207 297 m 381 617 q 214 399 244 617 l 279 399 q 406 431 354 399 q 458 532 458 463 q 438 593 458 569 q 381 617 417 617 m 294 832 q 249 840 263 832 q 239 865 236 849 l 246 940 q 311 975 250 975 q 369 940 372 975 l 361 865 q 294 832 357 832 m 485 832 q 428 865 424 832 l 436 940 q 501 975 439 975 q 558 940 561 975 l 551 865 q 485 832 547 832 z "},"ė":{"ha":631,"x_min":60,"x_max":597,"o":"m 207 297 q 240 151 204 193 q 346 110 275 110 q 422 124 389 110 q 488 160 454 138 q 502 169 492 163 q 518 175 513 175 q 535 164 529 175 q 540 135 540 153 q 518 60 540 89 q 434 8 493 26 q 328 -10 375 -10 q 134 56 208 -10 q 60 276 60 121 q 97 511 60 407 q 208 676 133 615 q 393 736 282 736 q 513 706 467 736 q 578 633 558 676 q 597 549 597 590 q 515 359 597 426 q 303 292 433 292 q 207 300 244 292 l 207 297 m 381 617 q 214 399 244 617 l 279 399 q 406 431 354 399 q 458 532 458 463 q 438 593 458 569 q 381 617 417 617 m 390 832 q 336 840 353 832 q 322 865 319 849 l 331 940 q 406 975 333 975 q 474 940 478 975 l 467 865 q 390 832 463 832 z "},"ẹ":{"ha":631,"x_min":60,"x_max":597,"o":"m 207 297 q 240 151 204 193 q 346 110 275 110 q 422 124 389 110 q 488 160 454 138 q 502 169 492 163 q 518 175 513 175 q 535 164 529 175 q 540 135 540 153 q 518 60 540 89 q 434 8 493 26 q 328 -10 375 -10 q 134 56 208 -10 q 60 276 60 121 q 97 511 60 407 q 208 676 133 615 q 393 736 282 736 q 513 706 467 736 q 578 633 558 676 q 597 549 597 590 q 515 359 597 426 q 303 292 433 292 q 207 300 244 292 l 207 297 m 381 617 q 214 399 244 617 l 279 399 q 406 431 354 399 q 458 532 458 463 q 438 593 458 569 q 381 617 417 617 m 306 -254 q 251 -246 268 -254 q 238 -221 235 -237 l 246 -146 q 321 -111 249 -111 q 389 -146 393 -111 l 382 -221 q 306 -254 378 -254 z "},"è":{"ha":631,"x_min":60,"x_max":597,"o":"m 207 297 q 240 151 204 193 q 346 110 275 110 q 422 124 389 110 q 488 160 454 138 q 502 169 492 163 q 518 175 513 175 q 535 164 529 175 q 540 135 540 153 q 518 60 540 89 q 434 8 493 26 q 328 -10 375 -10 q 134 56 208 -10 q 60 276 60 121 q 97 511 60 407 q 208 676 133 615 q 393 736 282 736 q 513 706 467 736 q 578 633 558 676 q 597 549 597 590 q 515 359 597 426 q 303 292 433 292 q 207 300 244 292 l 207 297 m 381 617 q 214 399 244 617 l 279 399 q 406 431 354 399 q 458 532 458 463 q 438 593 458 569 q 381 617 417 617 m 410 808 q 335 836 353 808 l 290 894 q 232 973 243 957 q 221 999 221 989 q 236 1014 221 1010 q 285 1018 251 1018 q 372 981 354 1018 q 424 873 406 911 q 442 825 442 835 q 435 812 442 815 q 410 808 428 808 z "},"ẻ":{"ha":631,"x_min":60,"x_max":597,"o":"m 207 297 q 240 151 204 193 q 346 110 275 110 q 422 124 389 110 q 488 160 454 138 q 502 169 492 163 q 518 175 513 175 q 535 164 529 175 q 540 135 540 153 q 518 60 540 89 q 434 8 493 26 q 328 -10 375 -10 q 134 56 208 -10 q 60 276 60 121 q 97 511 60 407 q 208 676 133 615 q 393 736 282 736 q 513 706 467 736 q 578 633 558 676 q 597 549 597 590 q 515 359 597 426 q 303 292 433 292 q 207 300 244 292 l 207 297 m 381 617 q 214 399 244 617 l 279 399 q 406 431 354 399 q 458 532 458 463 q 438 593 458 569 q 381 617 417 617 m 396 785 q 361 794 381 785 q 342 811 342 803 q 349 829 342 821 q 376 854 357 838 q 415 891 401 874 q 429 932 429 908 q 415 958 429 949 q 381 967 401 967 q 337 958 353 967 q 318 950 321 950 q 296 969 310 950 q 282 999 282 988 q 319 1027 282 1013 q 392 1042 356 1042 q 486 1017 446 1042 q 526 940 526 992 q 500 866 526 901 q 441 808 474 831 q 396 785 408 785 z "},"ē":{"ha":631,"x_min":60,"x_max":597,"o":"m 207 297 q 240 151 204 193 q 346 110 275 110 q 422 124 389 110 q 488 160 454 138 q 502 169 492 163 q 518 175 513 175 q 535 164 529 175 q 540 135 540 153 q 518 60 540 89 q 434 8 493 26 q 328 -10 375 -10 q 134 56 208 -10 q 60 276 60 121 q 97 511 60 407 q 208 676 133 615 q 393 736 282 736 q 513 706 467 736 q 578 633 558 676 q 597 549 597 590 q 515 359 597 426 q 303 292 433 292 q 207 300 244 292 l 207 297 m 381 617 q 214 399 244 617 l 279 399 q 406 431 354 399 q 458 532 458 463 q 438 593 458 569 q 381 617 417 617 m 256 844 q 229 890 225 844 l 231 906 q 242 940 233 929 q 265 951 250 951 l 539 951 q 562 940 556 951 q 565 906 568 929 l 563 890 q 552 856 560 867 q 528 844 544 844 l 256 844 z "},"ę":{"ha":631,"x_min":60,"x_max":625,"o":"m 593 -110 q 625 -146 625 -110 q 606 -185 625 -172 q 517 -208 568 -208 q 414 -168 440 -208 q 388 -83 388 -128 q 403 0 388 -44 q 328 -10 364 -10 q 134 56 208 -10 q 60 276 60 121 q 97 511 60 407 q 208 676 133 615 q 393 736 282 736 q 513 706 467 736 q 578 633 558 676 q 597 549 597 590 q 515 359 597 426 q 303 292 433 292 q 207 300 244 292 l 207 297 q 240 151 204 193 q 346 110 275 110 q 422 124 389 110 q 488 160 454 138 q 502 169 492 163 q 518 175 513 175 q 535 164 529 175 q 540 135 540 153 q 518 60 540 89 q 503 44 511 51 q 475 -58 475 -10 q 494 -106 475 -93 q 543 -118 514 -118 q 572 -114 554 -118 q 593 -110 589 -110 m 381 617 q 214 399 244 617 l 279 399 q 406 431 354 399 q 458 532 458 463 q 438 593 458 569 q 381 617 417 617 z "},"ẽ":{"ha":631,"x_min":60,"x_max":597,"o":"m 207 297 q 240 151 204 193 q 346 110 275 110 q 422 124 389 110 q 488 160 454 138 q 502 169 492 163 q 518 175 513 175 q 535 164 529 175 q 540 135 540 153 q 518 60 540 89 q 434 8 493 26 q 328 -10 375 -10 q 134 56 208 -10 q 60 276 60 121 q 97 511 60 407 q 208 676 133 615 q 393 736 282 736 q 513 706 467 736 q 578 633 558 676 q 597 549 597 590 q 515 359 597 426 q 303 292 433 292 q 207 300 244 292 l 207 297 m 381 617 q 214 399 244 617 l 279 399 q 406 431 354 399 q 458 532 458 463 q 438 593 458 569 q 381 617 417 617 m 190 822 q 171 844 171 829 q 175 864 171 854 q 293 960 211 960 q 389 932 325 960 q 421 919 394 929 q 465 908 447 908 q 490 915 479 908 q 513 940 500 922 q 543 963 526 963 q 560 958 550 963 l 569 954 q 587 945 582 950 q 592 932 592 940 q 586 913 592 926 q 468 817 549 817 q 426 824 447 817 q 371 844 404 831 q 329 861 350 854 q 293 868 308 868 q 271 861 281 868 q 249 835 261 854 q 219 815 235 815 q 204 818 215 815 l 190 822 z "},"ə":{"ha":631,"x_min":33,"x_max":571,"o":"m 303 736 q 497 671 422 736 q 571 450 571 606 q 534 215 571 319 q 423 51 497 111 q 238 -10 349 -10 q 118 20 164 -10 q 53 93 72 50 q 33 178 33 136 q 115 367 33 300 q 328 435 197 435 q 424 426 386 435 l 424 429 q 391 575 426 533 q 285 617 356 617 q 209 603 242 617 q 143 567 176 589 q 128 558 139 564 q 113 551 118 551 q 96 563 101 551 q 90 592 90 574 q 113 667 90 638 q 197 718 138 700 q 303 736 256 736 m 250 110 q 417 328 386 110 l 351 328 q 224 296 276 328 q 172 194 172 264 q 193 133 172 157 q 250 110 214 110 z "},"f":{"ha":397,"x_min":78,"x_max":463,"o":"m 142 -3 q 81 32 78 -3 l 143 608 l 108 608 q 85 620 92 608 q 82 658 79 632 l 83 676 q 95 715 86 703 q 121 726 104 726 l 154 726 l 168 861 q 233 1008 179 965 q 358 1051 288 1051 q 430 1039 397 1051 q 460 1001 463 1026 q 445 955 458 985 q 418 925 432 925 q 400 929 414 925 q 372 933 386 933 q 331 917 346 933 q 311 854 315 900 l 297 726 l 376 726 q 404 692 404 726 l 403 676 l 401 658 q 390 620 399 632 q 364 608 381 608 l 285 608 l 224 32 q 157 -3 221 -3 l 142 -3 z "},"g":{"ha":654,"x_min":40,"x_max":604,"o":"m 556 729 q 604 699 604 729 l 542 114 q 449 -200 519 -106 q 247 -294 378 -294 q 110 -268 165 -294 q 43 -210 54 -242 q 40 -183 40 -203 q 47 -139 40 -158 q 65 -119 54 -119 q 95 -135 69 -119 q 153 -164 121 -151 q 229 -176 186 -176 q 343 -117 304 -176 q 396 76 382 -58 l 399 101 q 326 26 367 51 q 238 1 285 1 q 98 80 142 1 q 54 282 54 158 q 60 368 54 310 q 151 638 78 540 q 331 736 224 736 q 475 661 417 736 q 500 715 488 700 q 544 729 513 729 l 556 729 m 439 493 q 451 569 446 542 q 357 617 411 617 q 253 555 289 617 q 204 371 217 493 q 199 282 199 310 q 286 122 199 122 q 355 156 319 122 q 415 263 390 190 l 439 493 z "},"ğ":{"ha":654,"x_min":40,"x_max":604,"o":"m 556 729 q 604 699 604 729 l 542 114 q 449 -200 519 -106 q 247 -294 378 -294 q 110 -268 165 -294 q 43 -210 54 -242 q 40 -183 40 -203 q 47 -139 40 -158 q 65 -119 54 -119 q 95 -135 69 -119 q 153 -164 121 -151 q 229 -176 186 -176 q 343 -117 304 -176 q 396 76 382 -58 l 399 101 q 326 26 367 51 q 238 1 285 1 q 98 80 142 1 q 54 282 54 158 q 60 368 54 310 q 151 638 78 540 q 331 736 224 736 q 475 661 417 736 q 500 715 488 700 q 544 729 513 729 l 556 729 m 439 493 q 451 569 446 542 q 357 617 411 617 q 253 555 289 617 q 204 371 217 493 q 199 282 199 310 q 286 122 199 122 q 355 156 319 122 q 415 263 390 190 l 439 493 m 363 808 q 252 846 294 808 q 210 946 210 883 l 211 964 q 249 993 215 993 q 268 986 263 993 q 278 961 274 979 q 309 923 286 936 q 375 910 332 910 q 482 963 454 910 q 497 987 490 981 q 517 993 503 993 q 546 964 550 993 q 488 851 539 893 q 363 808 438 808 z "},"ĝ":{"ha":654,"x_min":40,"x_max":604,"o":"m 556 729 q 604 699 604 729 l 542 114 q 449 -200 519 -106 q 247 -294 378 -294 q 110 -268 165 -294 q 43 -210 54 -242 q 40 -183 40 -203 q 47 -139 40 -158 q 65 -119 54 -119 q 95 -135 69 -119 q 153 -164 121 -151 q 229 -176 186 -176 q 343 -117 304 -176 q 396 76 382 -58 l 399 101 q 326 26 367 51 q 238 1 285 1 q 98 80 142 1 q 54 282 54 158 q 60 368 54 310 q 151 638 78 540 q 331 736 224 736 q 475 661 417 736 q 500 715 488 700 q 544 729 513 729 l 556 729 m 439 493 q 451 569 446 542 q 357 617 411 617 q 253 555 289 617 q 204 371 217 493 q 199 282 199 310 q 286 122 199 122 q 355 156 319 122 q 415 263 390 190 l 439 493 m 229 799 q 203 815 203 799 q 209 829 206 822 q 215 840 213 836 l 304 968 q 372 997 325 997 l 388 997 q 425 990 411 997 q 449 968 439 983 l 511 840 q 518 817 518 826 q 489 799 515 799 l 458 799 q 415 819 426 799 l 369 910 l 307 819 q 258 799 289 799 l 229 799 z "},"ģ":{"ha":654,"x_min":40,"x_max":604,"o":"m 556 729 q 604 699 604 729 l 542 114 q 449 -200 519 -106 q 247 -294 378 -294 q 110 -268 165 -294 q 43 -210 54 -242 q 40 -183 40 -203 q 47 -139 40 -158 q 65 -119 54 -119 q 95 -135 69 -119 q 153 -164 121 -151 q 229 -176 186 -176 q 343 -117 304 -176 q 396 76 382 -58 l 399 101 q 326 26 367 51 q 238 1 285 1 q 98 80 142 1 q 54 282 54 158 q 60 368 54 310 q 151 638 78 540 q 331 736 224 736 q 475 661 417 736 q 500 715 488 700 q 544 729 513 729 l 556 729 m 439 493 q 451 569 446 542 q 357 617 411 617 q 253 555 289 617 q 204 371 217 493 q 199 282 199 310 q 286 122 199 122 q 355 156 319 122 q 415 263 390 190 l 439 493 m 419 1065 q 451 1060 438 1065 q 465 1042 465 1054 q 457 1004 465 1035 q 432 857 432 936 q 372 808 432 808 l 354 808 q 315 821 328 808 q 301 854 301 833 q 322 958 301 910 q 372 1036 343 1007 q 419 1065 400 1065 z "},"ġ":{"ha":654,"x_min":40,"x_max":604,"o":"m 556 729 q 604 699 604 729 l 542 114 q 449 -200 519 -106 q 247 -294 378 -294 q 110 -268 165 -294 q 43 -210 54 -242 q 40 -183 40 -203 q 47 -139 40 -158 q 65 -119 54 -119 q 95 -135 69 -119 q 153 -164 121 -151 q 229 -176 186 -176 q 343 -117 304 -176 q 396 76 382 -58 l 399 101 q 326 26 367 51 q 238 1 285 1 q 98 80 142 1 q 54 282 54 158 q 60 368 54 310 q 151 638 78 540 q 331 736 224 736 q 475 661 417 736 q 500 715 488 700 q 544 729 513 729 l 556 729 m 439 493 q 451 569 446 542 q 357 617 411 617 q 253 555 289 617 q 204 371 217 493 q 199 282 199 310 q 286 122 199 122 q 355 156 319 122 q 415 263 390 190 l 439 493 m 364 832 q 310 840 326 832 q 296 865 293 849 l 304 940 q 379 975 307 975 q 447 940 451 975 l 440 865 q 364 832 436 832 z "},"h":{"ha":674,"x_min":46,"x_max":629,"o":"m 526 -6 q 440 26 475 -6 q 406 131 406 57 q 414 233 406 150 l 442 504 q 443 531 443 514 q 368 614 443 614 q 296 587 329 614 q 247 532 263 560 l 196 32 q 131 -3 192 -3 l 107 -3 q 50 32 46 -3 l 153 1011 q 218 1046 157 1046 l 243 1046 q 297 1011 304 1046 l 260 642 q 340 710 293 683 q 440 736 386 736 q 550 693 508 736 q 592 564 592 650 q 590 526 592 540 q 551 160 551 188 q 581 113 551 113 q 598 115 589 113 q 614 118 607 118 q 629 86 629 118 q 602 18 629 42 q 526 -6 575 -6 z "},"ħ":{"ha":674,"x_min":46,"x_max":629,"o":"m 614 118 q 629 86 629 118 q 602 18 629 42 q 526 -6 575 -6 q 440 26 475 -6 q 406 131 406 57 q 414 233 406 150 l 442 504 q 443 531 443 514 q 368 614 443 614 q 296 587 329 614 q 247 532 263 560 l 196 32 q 131 -3 192 -3 l 107 -3 q 50 32 46 -3 l 133 825 l 86 825 q 63 836 69 825 q 58 871 56 847 l 60 886 q 71 922 63 911 q 96 932 79 932 l 144 932 l 153 1011 q 218 1046 157 1046 l 243 1046 q 297 1011 304 1046 l 289 932 l 386 932 q 410 922 404 932 q 414 886 417 911 l 411 871 q 400 836 408 847 q 374 825 392 825 l 278 825 l 260 642 q 340 710 293 683 q 440 736 386 736 q 550 693 508 736 q 592 564 592 650 q 590 526 592 540 q 551 160 551 188 q 581 113 551 113 q 598 115 589 113 q 614 118 607 118 z "},"ĥ":{"ha":674,"x_min":50,"x_max":629,"o":"m 526 -6 q 440 26 475 -6 q 406 131 406 57 q 414 233 406 150 l 442 504 q 443 531 443 514 q 368 614 443 614 q 296 587 329 614 q 247 532 263 560 l 196 32 q 131 -3 192 -3 l 107 -3 q 50 32 46 -3 l 153 1011 q 218 1046 157 1046 l 243 1046 q 297 1011 304 1046 l 260 642 q 340 710 293 683 q 440 736 386 736 q 550 693 508 736 q 592 564 592 650 q 590 526 592 540 q 551 160 551 188 q 581 113 551 113 q 598 115 589 113 q 614 118 607 118 q 629 86 629 118 q 602 18 629 42 q 526 -6 575 -6 m 103 1086 q 76 1103 76 1086 q 83 1117 79 1110 q 89 1128 86 1124 l 178 1256 q 246 1285 199 1285 l 261 1285 q 299 1278 285 1285 q 322 1256 313 1271 l 385 1128 q 392 1104 392 1114 q 363 1086 389 1086 l 332 1086 q 289 1107 300 1086 l 243 1197 l 181 1107 q 132 1086 163 1086 l 103 1086 z "},"ḥ":{"ha":674,"x_min":50,"x_max":629,"o":"m 526 -6 q 440 26 475 -6 q 406 131 406 57 q 414 233 406 150 l 442 504 q 443 531 443 514 q 368 614 443 614 q 296 587 329 614 q 247 532 263 560 l 196 32 q 131 -3 192 -3 l 107 -3 q 50 32 46 -3 l 153 1011 q 218 1046 157 1046 l 243 1046 q 297 1011 304 1046 l 260 642 q 340 710 293 683 q 440 736 386 736 q 550 693 508 736 q 592 564 592 650 q 590 526 592 540 q 551 160 551 188 q 581 113 551 113 q 598 115 589 113 q 614 118 607 118 q 629 86 629 118 q 602 18 629 42 q 526 -6 575 -6 m 276 -254 q 222 -246 239 -254 q 208 -221 206 -237 l 217 -146 q 292 -111 219 -111 q 360 -146 364 -111 l 353 -221 q 276 -254 349 -254 z "},"i":{"ha":353,"x_min":71,"x_max":296,"o":"m 189 -6 q 72 149 63 -6 q 82 260 75 169 q 128 694 122 661 q 196 729 132 729 l 210 729 q 271 694 271 729 l 246 453 q 217 178 226 292 q 215 156 215 169 q 243 113 215 113 q 262 115 253 113 q 278 118 271 118 q 292 88 292 118 q 288 57 292 68 q 254 11 281 28 q 189 -6 228 -6 m 213 832 q 158 840 175 832 q 144 865 142 849 l 153 940 q 228 975 156 975 q 296 940 300 975 l 289 865 q 213 832 285 832 z "},"ı":{"ha":353,"x_min":63,"x_max":292,"o":"m 189 -6 q 72 149 63 -6 q 82 260 75 169 q 128 694 122 661 q 196 729 132 729 l 210 729 q 271 694 271 729 l 246 453 q 217 178 226 292 q 215 156 215 169 q 243 113 215 113 q 262 115 253 113 q 278 118 271 118 q 292 88 292 118 q 288 57 292 68 q 254 11 281 28 q 189 -6 228 -6 z "},"í":{"ha":353,"x_min":71,"x_max":365,"o":"m 189 -6 q 72 149 63 -6 q 82 260 75 169 q 128 694 122 661 q 196 729 132 729 l 210 729 q 271 694 271 729 l 246 453 q 217 178 226 292 q 215 156 215 169 q 243 113 215 113 q 262 115 253 113 q 278 118 271 118 q 292 88 292 118 q 288 57 292 68 q 254 11 281 28 q 189 -6 228 -6 m 178 808 q 152 812 160 808 q 144 825 144 815 q 156 858 144 833 q 188 924 167 882 l 215 981 q 303 1018 235 1018 q 351 1014 336 1018 q 365 999 365 1010 q 353 972 365 990 q 314 918 342 954 q 290 886 304 906 q 253 836 275 867 q 226 815 243 822 q 178 808 208 808 z "},"ĭ":{"ha":353,"x_min":61,"x_max":397,"o":"m 189 -6 q 72 149 63 -6 q 82 260 75 169 q 128 694 122 661 q 196 729 132 729 l 210 729 q 271 694 271 729 l 246 453 q 217 178 226 292 q 215 156 215 169 q 243 113 215 113 q 262 115 253 113 q 278 118 271 118 q 292 88 292 118 q 288 57 292 68 q 254 11 281 28 q 189 -6 228 -6 m 214 808 q 103 846 146 808 q 61 946 61 883 l 63 964 q 100 993 67 993 q 119 986 114 993 q 129 961 125 979 q 160 923 138 936 q 226 910 183 910 q 333 963 306 910 q 348 987 342 981 q 368 993 354 993 q 397 964 401 993 q 340 851 390 893 q 214 808 289 808 z "},"î":{"ha":353,"x_min":54,"x_max":369,"o":"m 189 -6 q 72 149 63 -6 q 82 260 75 169 q 128 694 122 661 q 196 729 132 729 l 210 729 q 271 694 271 729 l 246 453 q 217 178 226 292 q 215 156 215 169 q 243 113 215 113 q 262 115 253 113 q 278 118 271 118 q 292 88 292 118 q 288 57 292 68 q 254 11 281 28 q 189 -6 228 -6 m 81 799 q 54 815 54 799 q 60 829 57 822 q 67 840 64 836 l 156 968 q 224 997 176 997 l 239 997 q 276 990 263 997 q 300 968 290 983 l 363 840 q 369 817 369 826 q 340 799 367 799 l 310 799 q 267 819 278 799 l 221 910 l 158 819 q 110 799 140 799 l 81 799 z "},"ï":{"ha":353,"x_min":64,"x_max":383,"o":"m 189 -6 q 72 149 63 -6 q 82 260 75 169 q 128 694 122 661 q 196 729 132 729 l 210 729 q 271 694 271 729 l 246 453 q 217 178 226 292 q 215 156 215 169 q 243 113 215 113 q 262 115 253 113 q 278 118 271 118 q 292 88 292 118 q 288 57 292 68 q 254 11 281 28 q 189 -6 228 -6 m 119 832 q 74 840 88 832 q 64 865 61 849 l 71 940 q 136 975 75 975 q 194 940 197 975 l 186 865 q 119 832 182 832 m 310 832 q 253 865 249 832 l 261 940 q 326 975 264 975 q 383 940 386 975 l 376 865 q 310 832 372 832 z "},"ị":{"ha":353,"x_min":71,"x_max":296,"o":"m 189 -6 q 72 149 63 -6 q 82 260 75 169 q 128 694 122 661 q 196 729 132 729 l 210 729 q 271 694 271 729 l 246 453 q 217 178 226 292 q 215 156 215 169 q 243 113 215 113 q 262 115 253 113 q 278 118 271 118 q 292 88 292 118 q 288 57 292 68 q 254 11 281 28 q 189 -6 228 -6 m 213 832 q 158 840 175 832 q 144 865 142 849 l 153 940 q 228 975 156 975 q 296 940 300 975 l 289 865 q 213 832 285 832 m 146 -254 q 92 -246 108 -254 q 78 -221 75 -237 l 86 -146 q 161 -111 89 -111 q 229 -146 233 -111 l 222 -221 q 146 -254 218 -254 z "},"ì":{"ha":353,"x_min":46,"x_max":292,"o":"m 189 -6 q 72 149 63 -6 q 82 260 75 169 q 128 694 122 661 q 196 729 132 729 l 210 729 q 271 694 271 729 l 246 453 q 217 178 226 292 q 215 156 215 169 q 243 113 215 113 q 262 115 253 113 q 278 118 271 118 q 292 88 292 118 q 288 57 292 68 q 254 11 281 28 q 189 -6 228 -6 m 235 808 q 160 836 178 808 l 115 894 q 57 973 68 957 q 46 999 46 989 q 61 1014 46 1010 q 110 1018 76 1018 q 197 981 179 1018 q 249 873 231 911 q 267 825 267 835 q 260 812 267 815 q 235 808 253 808 z "},"ỉ":{"ha":353,"x_min":71,"x_max":351,"o":"m 189 -6 q 72 149 63 -6 q 82 260 75 169 q 128 694 122 661 q 196 729 132 729 l 210 729 q 271 694 271 729 l 246 453 q 217 178 226 292 q 215 156 215 169 q 243 113 215 113 q 262 115 253 113 q 278 118 271 118 q 292 88 292 118 q 288 57 292 68 q 254 11 281 28 q 189 -6 228 -6 m 221 785 q 186 794 206 785 q 167 811 167 803 q 174 829 167 821 q 201 854 182 838 q 240 891 226 874 q 254 932 254 908 q 240 958 254 949 q 206 967 226 967 q 162 958 178 967 q 143 950 146 950 q 121 969 135 950 q 107 999 107 988 q 144 1027 107 1013 q 217 1042 181 1042 q 311 1017 271 1042 q 351 940 351 992 q 325 866 351 901 q 266 808 299 831 q 221 785 233 785 z "},"ĳ":{"ha":699,"x_min":71,"x_max":650,"o":"m 189 -6 q 72 149 63 -6 q 82 260 75 169 q 128 694 122 661 q 196 729 132 729 l 210 729 q 271 694 271 729 l 246 453 q 217 178 226 292 q 215 156 215 169 q 243 113 215 113 q 262 115 253 113 q 278 118 271 118 q 292 88 292 118 q 288 57 292 68 q 254 11 281 28 q 189 -6 228 -6 m 213 832 q 158 840 175 832 q 144 865 142 849 l 153 940 q 228 975 156 975 q 296 940 300 975 l 289 865 q 213 832 285 832 m 363 -294 q 258 -244 253 -294 q 272 -198 260 -226 q 300 -169 285 -169 q 317 -173 304 -169 q 347 -176 329 -176 q 403 -92 394 -176 l 485 694 q 553 729 489 729 l 568 729 q 628 694 632 729 l 544 -99 q 481 -249 533 -204 q 363 -294 428 -294 m 567 832 q 513 840 529 832 q 499 865 496 849 l 507 940 q 582 975 510 975 q 650 940 654 975 l 643 865 q 567 832 639 832 z "},"ī":{"ha":353,"x_min":54,"x_max":390,"o":"m 189 -6 q 72 149 63 -6 q 82 260 75 169 q 128 694 122 661 q 196 729 132 729 l 210 729 q 271 694 271 729 l 246 453 q 217 178 226 292 q 215 156 215 169 q 243 113 215 113 q 262 115 253 113 q 278 118 271 118 q 292 88 292 118 q 288 57 292 68 q 254 11 281 28 q 189 -6 228 -6 m 81 844 q 54 890 50 844 l 56 906 q 67 940 58 929 q 90 951 75 951 l 364 951 q 387 940 381 951 q 390 906 393 929 l 388 890 q 377 856 385 867 q 353 844 369 844 l 81 844 z "},"į":{"ha":353,"x_min":64,"x_max":382,"o":"m 213 832 q 158 840 175 832 q 144 865 142 849 l 153 940 q 228 975 156 975 q 296 940 300 975 l 289 865 q 213 832 285 832 m 350 -143 q 382 -179 382 -143 q 363 -218 382 -206 q 274 -242 325 -242 q 171 -201 197 -242 q 144 -117 144 -161 q 172 -6 144 -61 q 72 149 64 6 q 82 260 75 169 q 128 694 122 661 q 196 729 132 729 l 210 729 q 271 694 271 729 l 246 453 q 217 178 226 292 q 215 156 215 169 q 243 113 215 113 q 262 115 253 113 q 278 118 271 118 q 292 88 292 118 q 288 57 292 68 q 264 18 281 33 q 240 -40 249 -11 q 232 -92 232 -69 q 251 -139 232 -126 q 300 -151 271 -151 q 328 -147 311 -151 q 350 -143 346 -143 z "},"ĩ":{"ha":353,"x_min":17,"x_max":396,"o":"m 35 822 q 17 844 17 829 q 21 864 17 854 q 126 960 53 960 q 213 932 154 960 q 241 919 217 931 q 282 908 265 908 q 324 940 306 908 q 351 963 338 963 q 367 958 358 963 l 375 954 q 391 945 386 950 q 396 932 396 940 q 390 913 396 926 q 285 817 357 817 q 197 844 256 817 q 126 868 147 868 q 106 861 115 868 q 86 835 97 854 q 61 815 75 815 q 47 818 56 815 l 35 822 m 189 -6 q 72 149 63 -6 q 82 260 75 169 q 128 694 122 661 q 196 729 132 729 l 210 729 q 271 694 271 729 l 246 453 q 217 178 226 292 q 215 156 215 169 q 243 113 215 113 q 262 115 253 113 q 278 118 271 118 q 292 88 292 118 q 288 57 292 68 q 254 11 281 28 q 189 -6 228 -6 z "},"j":{"ha":346,"x_min":-94,"x_max":299,"o":"m 10 -294 q -94 -244 -100 -294 q -81 -198 -93 -226 q -53 -169 -68 -169 q -36 -173 -49 -169 q -6 -176 -24 -176 q 50 -92 42 -176 l 132 694 q 200 729 136 729 l 215 729 q 275 694 279 729 l 192 -99 q 128 -249 181 -204 q 10 -294 75 -294 m 215 832 q 161 840 178 832 q 147 865 144 849 l 156 940 q 231 975 158 975 q 299 940 303 975 l 292 865 q 215 832 288 832 z "},"ȷ":{"ha":346,"x_min":-100,"x_max":279,"o":"m 10 -294 q -94 -244 -100 -294 q -81 -198 -93 -226 q -53 -169 -68 -169 q -36 -173 -49 -169 q -6 -176 -24 -176 q 50 -92 42 -176 l 132 694 q 200 729 136 729 l 215 729 q 275 694 279 729 l 192 -99 q 128 -249 181 -204 q 10 -294 75 -294 z "},"ĵ":{"ha":346,"x_min":-94,"x_max":372,"o":"m 10 -294 q -94 -244 -100 -294 q -81 -198 -93 -226 q -53 -169 -68 -169 q -36 -173 -49 -169 q -6 -176 -24 -176 q 50 -92 42 -176 l 132 694 q 200 729 136 729 l 215 729 q 275 694 279 729 l 192 -99 q 128 -249 181 -204 q 10 -294 75 -294 m 83 799 q 57 815 57 799 q 63 829 60 822 q 69 840 67 836 l 158 968 q 226 997 179 997 l 242 997 q 279 990 265 997 q 303 968 293 983 l 365 840 q 372 817 372 826 q 343 799 369 799 l 313 799 q 269 819 281 799 l 224 910 l 161 819 q 113 799 143 799 l 83 799 z "},"k":{"ha":628,"x_min":76,"x_max":636,"o":"m 582 729 q 633 710 636 729 q 621 681 633 700 l 408 374 l 568 42 q 575 18 575 26 q 559 2 574 7 q 513 -3 544 -3 l 471 -3 q 439 1 447 -3 q 424 18 431 4 l 269 354 l 260 354 l 225 32 q 161 -3 221 -3 l 138 -3 q 81 32 76 -3 l 183 1011 q 249 1046 188 1046 l 272 1046 q 328 1011 332 1046 l 264 403 l 271 403 l 481 708 q 503 725 489 721 q 542 729 517 729 l 582 729 z "},"ķ":{"ha":628,"x_min":81,"x_max":633,"o":"m 582 729 q 633 710 636 729 q 621 681 633 700 l 408 374 l 568 42 q 575 18 575 26 q 559 2 574 7 q 513 -3 544 -3 l 471 -3 q 439 1 447 -3 q 424 18 431 4 l 269 354 l 260 354 l 225 32 q 161 -3 221 -3 l 138 -3 q 81 32 76 -3 l 183 1011 q 249 1046 188 1046 l 272 1046 q 328 1011 332 1046 l 264 403 l 271 403 l 481 708 q 503 725 489 721 q 542 729 517 729 l 582 729 m 246 -328 q 214 -322 228 -328 q 200 -304 200 -317 q 208 -267 200 -297 q 233 -119 233 -199 q 293 -71 233 -71 l 311 -71 q 351 -83 338 -71 q 364 -117 364 -96 q 343 -221 364 -172 q 294 -299 322 -269 q 246 -328 265 -328 z "},"ĸ":{"ha":743,"x_min":74,"x_max":692,"o":"m 225 731 q 272 722 258 731 q 286 696 286 714 l 256 411 l 261 410 l 539 708 q 617 729 557 729 l 636 729 q 677 724 663 729 q 692 711 692 719 q 675 682 692 699 l 396 386 l 649 42 q 658 21 658 26 q 643 2 658 7 q 590 -3 628 -3 l 569 -3 q 521 1 540 -3 q 493 18 501 6 l 254 344 l 249 343 l 215 32 q 149 -3 211 -3 l 133 -3 q 87 6 100 -3 q 74 32 74 14 l 143 696 q 210 731 146 731 l 225 731 z "}}}
